# https://github.com/mikedh/trimesh
v -0.01132354 0.10681331 -0.10182280
v -0.00927298 0.10685151 -0.10322059
v -0.01132280 0.10632960 -0.10174949
v -0.00928199 0.10636600 -0.10314039
v -0.01132268 0.10632801 -0.10174940
v -0.00723937 0.10640461 -0.10453289
v -0.00723936 0.10640481 -0.10453289
v -0.00722212 0.10687130 -0.10461579
v -0.00722245 0.10689020 -0.10461839
v -0.00722212 0.10687130 -0.10461579
v -0.00722245 0.10689000 -0.10461950
v -0.01073426 0.10616131 -0.10601130
v -0.00723936 0.10640481 -0.10453289
v -0.01074826 0.10567670 -0.10592349
v -0.01425455 0.10494831 -0.10731289
v -0.01424597 0.10543181 -0.10740289
v -0.01132267 0.09993297 -0.13796410
v -0.01132341 0.10041671 -0.13803740
v -0.00927343 0.10046010 -0.13943560
v -0.00928297 0.09997435 -0.13935500
v -0.01132254 0.09993123 -0.13796390
v -0.00722382 0.10050760 -0.14083410
v -0.00724176 0.10002201 -0.14074780
v -0.00724178 0.10002160 -0.14074780
v -0.00724176 0.10002201 -0.14074780
v -0.00722382 0.10050760 -0.14083410
v -0.01075197 0.09924328 -0.14212920
v -0.01073731 0.09972809 -0.14221679
v -0.01425785 0.09845292 -0.14350640
v -0.01424927 0.09893632 -0.14359630
v -0.01279335 0.11081450 -0.07499769
v -0.01280187 0.11129641 -0.07507299
v -0.01279338 0.11110631 -0.07333169
v -0.01280189 0.11158821 -0.07340679
v -0.01279341 0.11139801 -0.07166540
v -0.01280192 0.11187990 -0.07174070
v -0.01122257 0.11208821 -0.07177319
v -0.01123114 0.11160270 -0.07169740
v -0.01280192 0.11187990 -0.07174070
v -0.01201356 0.11149950 -0.07168119
v -0.01279341 0.11139801 -0.07166540
v -0.01279330 0.11139670 -0.07166520
v -0.01123119 0.11106570 -0.07476600
v -0.01123121 0.11106440 -0.07476589
v -0.01123119 0.11133291 -0.07323159
v -0.01122259 0.11181971 -0.07330749
v -0.01122261 0.11155121 -0.07484179
v -0.01123117 0.11160141 -0.07169729
v -0.01123114 0.11160270 -0.07169740
v -0.01122257 0.11208821 -0.07177319
v -0.01122261 0.11155121 -0.07484179
v -0.00979292 0.11174000 -0.07487130
v -0.01123119 0.11106570 -0.07476600
v -0.00978441 0.11125821 -0.07479609
v -0.01050909 0.11116111 -0.07478089
v -0.00978429 0.11125690 -0.07479580
v -0.00978441 0.11125821 -0.07479609
v -0.00979292 0.11174000 -0.07487130
v -0.00978443 0.11152650 -0.07326190
v -0.00979294 0.11200841 -0.07333700
v -0.00978444 0.11179481 -0.07172740
v -0.00979296 0.11227671 -0.07180270
v -0.00850046 0.11196280 -0.07175360
v -0.00978433 0.11179351 -0.07172720
v -0.00978444 0.11179481 -0.07172740
v -0.00979296 0.11227671 -0.07180270
v -0.00722278 0.11261561 -0.07185560
v -0.00721427 0.11213380 -0.07178030
v -0.00721416 0.11213251 -0.07178010
v -0.00722281 0.11292300 -0.07010029
v -0.00721430 0.11244410 -0.07000819
v -0.00722278 0.11261561 -0.07185560
v -0.00721428 0.11228870 -0.07089419
v -0.00721427 0.11213380 -0.07178030
v -0.01073532 0.11198221 -0.06991940
v -0.00721419 0.11244291 -0.07000799
v -0.00721430 0.11244410 -0.07000819
v -0.01425377 0.11152190 -0.06983090
v -0.01424520 0.11200431 -0.06992370
v -0.01073400 0.11246361 -0.07001199
v -0.00722281 0.11292300 -0.07010029
v -0.01425389 0.11062031 -0.07496730
v -0.01425392 0.11061890 -0.07496719
v -0.01425387 0.11106981 -0.07239390
v -0.01425380 0.11152051 -0.06983059
v -0.01425377 0.11152190 -0.06983090
v -0.01424532 0.11110570 -0.07504319
v -0.01424520 0.11200431 -0.06992370
v -0.01424532 0.11110570 -0.07504319
v -0.01280187 0.11129641 -0.07507299
v -0.01425389 0.11062031 -0.07496730
v -0.01279335 0.11081450 -0.07499769
v -0.01352491 0.11071660 -0.07498240
v -0.01279324 0.11081321 -0.07499749
v -0.00722281 0.11292300 -0.07010029
v -0.00722278 0.11261561 -0.07185560
v -0.00979296 0.11227671 -0.07180270
v -0.00979292 0.11174000 -0.07487130
v -0.01122261 0.11155121 -0.07484179
v -0.00979294 0.11200841 -0.07333700
v -0.01122259 0.11181971 -0.07330749
v -0.01122257 0.11208821 -0.07177319
v -0.01073400 0.11246361 -0.07001199
v -0.01424520 0.11200431 -0.06992370
v -0.01280192 0.11187990 -0.07174070
v -0.01424532 0.11110570 -0.07504319
v -0.01280189 0.11158821 -0.07340679
v -0.01280187 0.11129641 -0.07507299
v -0.01098554 0.11069260 -0.07993049
v -0.01096204 0.11069851 -0.07991520
v -0.00918543 0.11108880 -0.07906619
v -0.01087249 0.11072770 -0.07981790
v -0.01081799 0.11074550 -0.07975869
v -0.01077939 0.11076310 -0.07968789
v -0.01071075 0.11079441 -0.07956219
v -0.01070380 0.11080001 -0.07953610
v -0.01064216 0.11084891 -0.07930419
v -0.01061205 0.11113581 -0.07768859
v -0.00918545 0.11132461 -0.07771809
v -0.01061207 0.11090770 -0.07899200
v -0.01063061 0.11085811 -0.07926069
v -0.00722270 0.11116981 -0.08013049
v -0.00722268 0.11082141 -0.08212399
v -0.00820406 0.11112921 -0.07959829
v -0.00837743 0.11079390 -0.08138130
v -0.00953219 0.11076651 -0.08063870
v -0.01179092 0.11054721 -0.08013450
v -0.01172429 0.11055530 -0.08014019
v -0.01146397 0.11059460 -0.08011830
v -0.01137359 0.11060821 -0.08011059
v -0.01127182 0.11062820 -0.08007589
v -0.01113879 0.11065420 -0.08003039
v -0.01111363 0.11066050 -0.08001400
v -0.00722273 0.11158420 -0.07775860
v -0.00722274 0.11189100 -0.07600300
v -0.01424533 0.11096850 -0.07582569
v -0.01280182 0.11084611 -0.07764329
v -0.01424540 0.11042811 -0.07890849
v -0.01280180 0.11061860 -0.07894160
v -0.01276944 0.11056621 -0.07926579
v -0.01416079 0.11029870 -0.07971200
v -0.01276270 0.11055530 -0.07933340
v -0.01414005 0.11026700 -0.07990910
v -0.01271285 0.11053711 -0.07947569
v -0.01402271 0.11022310 -0.08025010
v -0.01266302 0.11051900 -0.07961799
v -0.01392415 0.11018631 -0.08053649
v -0.01264527 0.11051671 -0.07964460
v -0.01254663 0.11050431 -0.07979240
v -0.01384041 0.11017450 -0.08066909
v -0.01253777 0.11050320 -0.07980569
v -0.01361812 0.11014310 -0.08102079
v -0.01244426 0.11050120 -0.07988960
v -0.01232551 0.11050220 -0.07997599
v -0.01324137 0.11013231 -0.08137660
v -0.01238126 0.11049991 -0.07994610
v -0.01334246 0.11013521 -0.08128109
v -0.01360980 0.11014290 -0.08102870
v -0.00974588 0.11068030 -0.08096400
v -0.01001214 0.11059411 -0.08124890
v -0.01190810 0.11053300 -0.08012449
v -0.00971725 0.11068960 -0.08093339
v -0.01004940 0.11058201 -0.08128880
v -0.01034273 0.11050841 -0.08148240
v -0.01047213 0.11047590 -0.08156779
v -0.01072234 0.11042640 -0.08165600
v -0.01099260 0.11037301 -0.08175129
v -0.01115278 0.11034840 -0.08176660
v -0.01178442 0.11025171 -0.08182719
v -0.01229862 0.11019111 -0.08177470
v -0.01200527 0.11052440 -0.08009809
v -0.01230531 0.11019031 -0.08177409
v -0.01218280 0.11050870 -0.08005000
v -0.01267569 0.11015960 -0.08166009
v -0.01219311 0.11050780 -0.08004719
v -0.01284083 0.11014590 -0.08160929
v -0.01302763 0.11013961 -0.08150079
v -0.00819668 0.11097111 -0.07766279
v -0.00917682 0.11084141 -0.07764259
v -0.00917694 0.11084270 -0.07764280
v -0.00918545 0.11132461 -0.07771809
v -0.00722273 0.11158420 -0.07775860
v -0.00721422 0.11110241 -0.07768339
v -0.00721410 0.11110110 -0.07768319
v -0.00722274 0.11189100 -0.07600300
v -0.00721423 0.11141211 -0.07591099
v -0.00722273 0.11158420 -0.07775860
v -0.00721422 0.11125731 -0.07679719
v -0.00721422 0.11110241 -0.07768339
v -0.00721423 0.11141211 -0.07591099
v -0.00722274 0.11189100 -0.07600300
v -0.01424533 0.11096850 -0.07582569
v -0.00721412 0.11141080 -0.07591070
v -0.01073536 0.11094831 -0.07582179
v -0.01425391 0.11048610 -0.07573300
v -0.01425391 0.11048610 -0.07573300
v -0.01424533 0.11096850 -0.07582569
v -0.01424540 0.11042811 -0.07890849
v -0.01425393 0.11048471 -0.07573269
v -0.01425396 0.11021631 -0.07726409
v -0.01425399 0.10994281 -0.07882389
v -0.01230531 0.11019031 -0.08177409
v -0.01229862 0.11019111 -0.08177470
v -0.01229941 0.10970740 -0.08169219
v -0.01178442 0.11025171 -0.08182719
v -0.01178442 0.10976741 -0.08175160
v -0.01238223 0.10969771 -0.08168260
v -0.01253954 0.10968320 -0.08164280
v -0.01267569 0.11015960 -0.08166009
v -0.01267750 0.10967441 -0.08158529
v -0.01284083 0.11014590 -0.08160929
v -0.01303720 0.10965140 -0.08143530
v -0.01302763 0.11013961 -0.08150079
v -0.01303814 0.10965140 -0.08143469
v -0.01324137 0.11013231 -0.08137660
v -0.01325810 0.10964660 -0.08129040
v -0.01334246 0.11013521 -0.08128109
v -0.01334902 0.10964921 -0.08120429
v -0.01361719 0.10965700 -0.08095050
v -0.01360980 0.11014290 -0.08102870
v -0.01361812 0.11014310 -0.08102079
v -0.01361854 0.10965700 -0.08094920
v -0.01384041 0.11017450 -0.08066909
v -0.01373479 0.10966791 -0.08079670
v -0.01384601 0.10968911 -0.08058889
v -0.01392415 0.11018631 -0.08053649
v -0.01399979 0.10971840 -0.08030149
v -0.01402271 0.11022310 -0.08025010
v -0.01403885 0.10973591 -0.08017129
v -0.01414005 0.11026700 -0.07990910
v -0.01416545 0.10979271 -0.07974909
v -0.01416079 0.11029870 -0.07971200
v -0.01417688 0.10981200 -0.07962969
v -0.00953219 0.11076651 -0.08063870
v -0.00952887 0.11028321 -0.08056689
v -0.00971725 0.11068960 -0.08093339
v -0.00962900 0.11023961 -0.08073750
v -0.00974588 0.11068030 -0.08096400
v -0.00973674 0.11019861 -0.08088760
v -0.00975115 0.11019320 -0.08090769
v -0.01001214 0.11059411 -0.08124890
v -0.01001195 0.11011240 -0.08116549
v -0.01004940 0.11058201 -0.08128880
v -0.01012478 0.11007741 -0.08127699
v -0.01034273 0.11050841 -0.08148240
v -0.01030493 0.11003100 -0.08140130
v -0.01033209 0.11002511 -0.08141360
v -0.01047213 0.11047590 -0.08156779
v -0.01071658 0.10994191 -0.08158869
v -0.01072234 0.11042640 -0.08165600
v -0.01077693 0.10992881 -0.08161619
v -0.01099260 0.11037301 -0.08175129
v -0.01106316 0.10987651 -0.08169119
v -0.01115278 0.11034840 -0.08176660
v -0.01115010 0.10986341 -0.08169850
v -0.00837743 0.11079390 -0.08138130
v -0.00722268 0.11082141 -0.08212399
v -0.00721417 0.11033841 -0.08205560
v -0.00721393 0.11033631 -0.08205540
v -0.00837217 0.11030871 -0.08131050
v -0.00953219 0.11076651 -0.08063870
v -0.00952887 0.11028321 -0.08056689
v -0.00952870 0.11028131 -0.08056669
v -0.00722270 0.11116981 -0.08013049
v -0.00721419 0.11069031 -0.08004170
v -0.00722268 0.11082141 -0.08212399
v -0.00721418 0.11051430 -0.08104879
v -0.00721417 0.11033841 -0.08205560
v -0.00819653 0.11064901 -0.07950889
v -0.00721416 0.11068960 -0.08004159
v -0.00721419 0.11069031 -0.08004170
v -0.00722270 0.11116981 -0.08013049
v -0.00820406 0.11112921 -0.07959829
v -0.00917692 0.11060930 -0.07897740
v -0.00917688 0.11060860 -0.07897729
v -0.00918543 0.11108880 -0.07906619
v -0.00918545 0.11132461 -0.07771809
v -0.00917694 0.11084270 -0.07764280
v -0.00918543 0.11108880 -0.07906619
v -0.00917693 0.11072600 -0.07831019
v -0.00917692 0.11060930 -0.07897740
v -0.01061205 0.11113581 -0.07768859
v -0.01062063 0.11065040 -0.07761270
v -0.01280182 0.11084611 -0.07764329
v -0.01170826 0.11050651 -0.07759030
v -0.01279331 0.11036420 -0.07756799
v -0.01279320 0.11036291 -0.07756779
v -0.01280182 0.11084611 -0.07764329
v -0.01279331 0.11036420 -0.07756799
v -0.01280180 0.11061860 -0.07894160
v -0.01279330 0.11025190 -0.07820910
v -0.01279329 0.11013820 -0.07885800
v -0.01279279 0.11012980 -0.07890679
v -0.01276944 0.11056621 -0.07926579
v -0.01275660 0.11008680 -0.07918009
v -0.01276270 0.11055530 -0.07933340
v -0.01273938 0.11006630 -0.07930999
v -0.01271285 0.11053711 -0.07947569
v -0.01271382 0.11005540 -0.07939219
v -0.01271152 0.11005440 -0.07939959
v -0.01266302 0.11051900 -0.07961799
v -0.01263451 0.11003740 -0.07955580
v -0.01264527 0.11051671 -0.07964460
v -0.01260024 0.11002981 -0.07962530
v -0.01254663 0.11050431 -0.07979240
v -0.01254084 0.11002411 -0.07970370
v -0.01253777 0.11050320 -0.07980569
v -0.01253004 0.11002311 -0.07971789
v -0.01244426 0.11050120 -0.07988960
v -0.01243920 0.11002090 -0.07979980
v -0.01238307 0.11001961 -0.07985049
v -0.01238126 0.11049991 -0.07994610
v -0.01232338 0.11002090 -0.07988890
v -0.01232551 0.11050220 -0.07997599
v -0.01231839 0.11002101 -0.07989210
v -0.01219311 0.11050780 -0.08004719
v -0.01217779 0.11002910 -0.07995410
v -0.01218280 0.11050870 -0.08005000
v -0.01210472 0.11003331 -0.07998629
v -0.01203870 0.11003891 -0.08000529
v -0.01200527 0.11052440 -0.08009809
v -0.01200506 0.11004271 -0.08000979
v -0.01190810 0.11053300 -0.08012449
v -0.01179004 0.11006660 -0.08003889
v -0.01179092 0.11054721 -0.08013450
v -0.01172429 0.11007400 -0.08004769
v -0.01172429 0.11055530 -0.08014019
v -0.01146541 0.11011281 -0.08002580
v -0.01146397 0.11059460 -0.08011830
v -0.01137892 0.11012581 -0.08001849
v -0.01137359 0.11060821 -0.08011059
v -0.01133325 0.11013380 -0.08000770
v -0.01127182 0.11062820 -0.08007589
v -0.01127447 0.11014570 -0.07998480
v -0.01113879 0.11065420 -0.08003039
v -0.01111675 0.11017770 -0.07992359
v -0.01111363 0.11066050 -0.08001400
v -0.01110903 0.11017930 -0.07992059
v -0.01101931 0.11020121 -0.07986459
v -0.01098554 0.11069260 -0.07993049
v -0.01099191 0.11020930 -0.07983929
v -0.01096204 0.11069851 -0.07991520
v -0.01087497 0.11024390 -0.07973159
v -0.01087249 0.11072770 -0.07981790
v -0.01087017 0.11024531 -0.07972720
v -0.01081799 0.11074550 -0.07975869
v -0.01082152 0.11026281 -0.07966439
v -0.01077939 0.11076310 -0.07968789
v -0.01078680 0.11027891 -0.07959939
v -0.01071075 0.11079441 -0.07956219
v -0.01071475 0.11031221 -0.07946459
v -0.01070380 0.11080001 -0.07953610
v -0.01071009 0.11031550 -0.07944909
v -0.01064216 0.11084891 -0.07930419
v -0.01065590 0.11035451 -0.07926829
v -0.01065108 0.11036381 -0.07921879
v -0.01063061 0.11085811 -0.07926069
v -0.01062067 0.11042241 -0.07890750
v -0.01061207 0.11090770 -0.07899200
v -0.01062066 0.11053641 -0.07825619
v -0.01061205 0.11113581 -0.07768859
v -0.01062063 0.11065040 -0.07761270
v -0.01062065 0.11064901 -0.07761259
v -0.01239697 0.10943271 -0.08602580
v -0.01424552 0.10933780 -0.08512690
v -0.01113931 0.10968480 -0.08556709
v -0.01073414 0.11006100 -0.08373420
v -0.00988165 0.10993690 -0.08510830
v -0.00988167 0.10959881 -0.08704060
v -0.00722260 0.10944700 -0.08998869
v -0.01113931 0.10951571 -0.08653320
v -0.01073404 0.10923240 -0.08846800
v -0.01424555 0.10901861 -0.08694749
v -0.00722266 0.11046770 -0.08414770
v -0.00786527 0.11033890 -0.08438319
v -0.00722268 0.11078341 -0.08234140
v -0.00850788 0.11021000 -0.08461860
v -0.00850785 0.10968980 -0.08759379
v -0.00786523 0.10973221 -0.08785389
v -0.00722262 0.10977460 -0.08811390
v -0.00849934 0.10921041 -0.08750439
v -0.00850785 0.10968980 -0.08759379
v -0.00849936 0.10946960 -0.08602250
v -0.00850788 0.11021000 -0.08461860
v -0.00849937 0.10972870 -0.08454069
v -0.00786527 0.11033890 -0.08438319
v -0.00722266 0.11046770 -0.08414770
v -0.00721415 0.10998640 -0.08406979
v -0.00721410 0.10998550 -0.08406959
v -0.00785783 0.10985650 -0.08430549
v -0.00850788 0.11021000 -0.08461860
v -0.00849937 0.10972870 -0.08454069
v -0.00849932 0.10972780 -0.08454049
v -0.00721415 0.10998640 -0.08406979
v -0.00722266 0.11046770 -0.08414770
v -0.00721416 0.11014580 -0.08315730
v -0.00722268 0.11078341 -0.08234140
v -0.00721417 0.11030520 -0.08224499
v -0.01073515 0.10957911 -0.08364129
v -0.00721397 0.11030350 -0.08224459
v -0.00721417 0.11030520 -0.08224499
v -0.01425410 0.10885431 -0.08503689
v -0.01424552 0.10933780 -0.08512690
v -0.01073414 0.11006100 -0.08373420
v -0.00722268 0.11078341 -0.08234140
v -0.01425414 0.10853310 -0.08686869
v -0.01425415 0.10853231 -0.08686860
v -0.01425413 0.10869291 -0.08595269
v -0.01425412 0.10885351 -0.08503669
v -0.01425410 0.10885431 -0.08503689
v -0.01424555 0.10901861 -0.08694749
v -0.01424552 0.10933780 -0.08512690
v -0.01073505 0.10874740 -0.08839259
v -0.01425414 0.10853310 -0.08686869
v -0.01424555 0.10901861 -0.08694749
v -0.01073404 0.10923240 -0.08846800
v -0.00722260 0.10944700 -0.08998869
v -0.00721409 0.10896441 -0.08991760
v -0.00721389 0.10896261 -0.08991740
v -0.00722262 0.10977460 -0.08811390
v -0.00721411 0.10929531 -0.08802450
v -0.00722260 0.10944700 -0.08998869
v -0.00721410 0.10912980 -0.08897110
v -0.00721409 0.10896441 -0.08991760
v -0.00785779 0.10925190 -0.08776379
v -0.00721406 0.10929441 -0.08802430
v -0.00721411 0.10929531 -0.08802450
v -0.00849934 0.10921041 -0.08750439
v -0.00849929 0.10920961 -0.08750419
v -0.00722262 0.10977460 -0.08811390
v -0.00786523 0.10973221 -0.08785389
v -0.00850785 0.10968980 -0.08759379
v -0.01237346 0.10895350 -0.08594230
v -0.01239697 0.10943271 -0.08602580
v -0.01113295 0.10920221 -0.08548980
v -0.01113931 0.10968480 -0.08556709
v -0.00989021 0.10945121 -0.08503640
v -0.00988165 0.10993690 -0.08510830
v -0.01239697 0.10943271 -0.08602580
v -0.01237346 0.10895350 -0.08594230
v -0.01113931 0.10951571 -0.08653320
v -0.01113295 0.10903541 -0.08644270
v -0.00988167 0.10959881 -0.08704060
v -0.00989024 0.10911741 -0.08694410
v -0.00989024 0.10911741 -0.08694410
v -0.00989027 0.10911570 -0.08694349
v -0.00989026 0.10928251 -0.08598989
v -0.00989025 0.10944941 -0.08503640
v -0.00989021 0.10945121 -0.08503640
v -0.00988167 0.10959881 -0.08704060
v -0.00988165 0.10993690 -0.08510830
v -0.00997787 0.10771220 -0.09490310
v -0.00997796 0.10771141 -0.09490289
v -0.01211706 0.10769941 -0.09329429
v -0.00995182 0.10819700 -0.09499630
v -0.01209872 0.10818500 -0.09338180
v -0.01424565 0.10817351 -0.09176730
v -0.01425424 0.10768801 -0.09168710
v -0.00997787 0.10771220 -0.09490310
v -0.00995182 0.10819700 -0.09499630
v -0.01211775 0.10742791 -0.09484849
v -0.01424571 0.10762661 -0.09488670
v -0.01425429 0.10714410 -0.09479390
v -0.01425432 0.10684800 -0.09648219
v -0.01425435 0.10684671 -0.09648210
v -0.01425433 0.10699470 -0.09563789
v -0.01425431 0.10714280 -0.09479359
v -0.01425429 0.10714410 -0.09479390
v -0.01424575 0.10733351 -0.09655810
v -0.01424571 0.10762661 -0.09488670
v -0.01073548 0.10731891 -0.09655580
v -0.01425432 0.10684800 -0.09648219
v -0.01424575 0.10733351 -0.09655810
v -0.00721391 0.10779011 -0.09662939
v -0.00721403 0.10779140 -0.09662959
v -0.00722254 0.10827331 -0.09670489
v -0.00722255 0.10854361 -0.09515820
v -0.00721404 0.10806391 -0.09507029
v -0.00722254 0.10827331 -0.09670489
v -0.00721403 0.10792770 -0.09585000
v -0.00721403 0.10779140 -0.09662959
v -0.00933448 0.10805311 -0.09346449
v -0.00721402 0.10806341 -0.09507020
v -0.00721404 0.10806391 -0.09507029
v -0.01145367 0.10804330 -0.09185980
v -0.01147932 0.10852340 -0.09193479
v -0.00935091 0.10853321 -0.09354649
v -0.00722255 0.10854361 -0.09515820
v -0.00721407 0.10860960 -0.09194830
v -0.00721396 0.10860821 -0.09194810
v -0.00933481 0.10832521 -0.09190390
v -0.00722258 0.10909141 -0.09202349
v -0.01147932 0.10852340 -0.09193479
v -0.01145367 0.10804330 -0.09185980
v -0.01145357 0.10804251 -0.09185969
v -0.00722260 0.10937941 -0.09037519
v -0.00721409 0.10890050 -0.09028320
v -0.00722258 0.10909141 -0.09202349
v -0.00721408 0.10875500 -0.09111570
v -0.00721407 0.10860960 -0.09194830
v -0.01073544 0.10843271 -0.09019320
v -0.00721398 0.10889921 -0.09028289
v -0.00721409 0.10890050 -0.09028320
v -0.01425419 0.10796650 -0.09010360
v -0.01424562 0.10844900 -0.09019639
v -0.01073411 0.10891421 -0.09028579
v -0.00722260 0.10937941 -0.09037519
v -0.01425424 0.10768801 -0.09168710
v -0.01425425 0.10768751 -0.09168710
v -0.01425423 0.10782631 -0.09089520
v -0.01425422 0.10796521 -0.09010330
v -0.01425419 0.10796650 -0.09010360
v -0.01424565 0.10817351 -0.09176730
v -0.01424562 0.10844900 -0.09019639
v -0.01424575 0.10733351 -0.09655810
v -0.01424571 0.10762661 -0.09488670
v -0.00722254 0.10827331 -0.09670489
v -0.00995182 0.10819700 -0.09499630
v -0.00722260 0.10937941 -0.09037519
v -0.00722258 0.10909141 -0.09202349
v -0.01073411 0.10891421 -0.09028579
v -0.01147932 0.10852340 -0.09193479
v -0.01424562 0.10844900 -0.09019639
v -0.00722255 0.10854361 -0.09515820
v -0.00935091 0.10853321 -0.09354649
v -0.01209872 0.10818500 -0.09338180
v -0.01424565 0.10817351 -0.09176730
v -0.00807844 0.10713111 -0.09971919
v -0.00894044 0.10701551 -0.09970109
v -0.00894050 0.10701641 -0.09970120
v -0.00721388 0.10724701 -0.09973730
v -0.00721399 0.10724830 -0.09973750
v -0.00722250 0.10773011 -0.09981280
v -0.00894377 0.10749930 -0.09977670
v -0.00722252 0.10803701 -0.09805670
v -0.00721401 0.10755810 -0.09796470
v -0.00722250 0.10773011 -0.09981280
v -0.00721400 0.10740320 -0.09885110
v -0.00721399 0.10724830 -0.09973750
v -0.01073549 0.10708810 -0.09787429
v -0.00721390 0.10755681 -0.09796440
v -0.00721401 0.10755810 -0.09796470
v -0.01425435 0.10661970 -0.09778430
v -0.01424577 0.10710221 -0.09787699
v -0.01073415 0.10756961 -0.09796690
v -0.00722252 0.10803701 -0.09805670
v -0.01425439 0.10630311 -0.09958979
v -0.01425441 0.10630181 -0.09958970
v -0.01425439 0.10646010 -0.09868679
v -0.01425437 0.10661841 -0.09778399
v -0.01425435 0.10661970 -0.09778430
v -0.01424581 0.10678860 -0.09966569
v -0.01424577 0.10710221 -0.09787699
v -0.01124255 0.10719121 -0.09972860
v -0.01126539 0.10670380 -0.09965240
v -0.01424581 0.10678860 -0.09966569
v -0.01276153 0.10650320 -0.09962109
v -0.01425439 0.10630311 -0.09958979
v -0.01126539 0.10670380 -0.09965240
v -0.01124255 0.10719121 -0.09972860
v -0.01274422 0.10676350 -0.10098869
v -0.01126548 0.10670291 -0.09965229
v -0.01276083 0.10627710 -0.10090719
v -0.01425445 0.10585141 -0.10216050
v -0.01424586 0.10633561 -0.10224879
v -0.01425450 0.10548270 -0.10426269
v -0.01425451 0.10548230 -0.10426269
v -0.01425448 0.10566671 -0.10321150
v -0.01425447 0.10548460 -0.10426269
v -0.01425446 0.10585100 -0.10216040
v -0.01425445 0.10585141 -0.10216050
v -0.01424591 0.10597101 -0.10432800
v -0.01424586 0.10633561 -0.10224879
v -0.01425447 0.10548460 -0.10426269
v -0.01424591 0.10597101 -0.10432800
v -0.01278967 0.10590700 -0.10300700
v -0.01278474 0.10639231 -0.10307550
v -0.01132280 0.10632960 -0.10174949
v -0.01132354 0.10681331 -0.10182280
v -0.00722245 0.10689020 -0.10461839
v -0.00722248 0.10725750 -0.10251690
v -0.00722212 0.10687130 -0.10461579
v -0.00721397 0.10677791 -0.10242880
v -0.00721394 0.10641201 -0.10452290
v -0.00721393 0.10609291 -0.10634840
v -0.00722244 0.10657421 -0.10642640
v -0.00722245 0.10689000 -0.10461950
v -0.00857733 0.10675251 -0.10149549
v -0.00721394 0.10677740 -0.10242869
v -0.00721397 0.10677791 -0.10242880
v -0.00722248 0.10725750 -0.10251690
v -0.00858767 0.10723260 -0.10158250
v -0.00995289 0.10720791 -0.10064810
v -0.00993905 0.10672800 -0.10056350
v -0.00993905 0.10672780 -0.10056350
v -0.00993905 0.10672800 -0.10056350
v -0.00995289 0.10720791 -0.10064810
v -0.00944052 0.10687201 -0.10013299
v -0.00944833 0.10735360 -0.10021240
v -0.00894050 0.10701641 -0.09970120
v -0.00894377 0.10749930 -0.09977670
v -0.00995289 0.10720791 -0.10064810
v -0.01274422 0.10676350 -0.10098869
v -0.00944833 0.10735360 -0.10021240
v -0.01124255 0.10719121 -0.09972860
v -0.00894377 0.10749930 -0.09977670
v -0.01424591 0.10597101 -0.10432800
v -0.01424586 0.10633561 -0.10224879
v -0.01278474 0.10639231 -0.10307550
v -0.01132354 0.10681331 -0.10182280
v -0.00927298 0.10685151 -0.10322059
v -0.00858767 0.10723260 -0.10158250
v -0.00722245 0.10689020 -0.10461839
v -0.00722248 0.10725750 -0.10251690
v -0.00722250 0.10773011 -0.09981280
v -0.00722252 0.10803701 -0.09805670
v -0.01073415 0.10756961 -0.09796690
v -0.01424581 0.10678860 -0.09966569
v -0.01424577 0.10710221 -0.09787699
v -0.01239589 0.10553010 -0.10830270
v -0.01424597 0.10543181 -0.10740289
v -0.01113893 0.10578441 -0.10784449
v -0.01073426 0.10616131 -0.10601130
v -0.00988196 0.10603850 -0.10738639
v -0.00988199 0.10570051 -0.10931779
v -0.00722238 0.10555340 -0.11226750
v -0.01113893 0.10561531 -0.10881019
v -0.01073414 0.10533250 -0.11074569
v -0.01424601 0.10511240 -0.10922400
v -0.00722244 0.10657421 -0.10642640
v -0.00786503 0.10644430 -0.10666160
v -0.00722245 0.10689000 -0.10461950
v -0.00850762 0.10631431 -0.10689689
v -0.01073426 0.10616131 -0.10601130
v -0.00722245 0.10689000 -0.10461950
v -0.00988196 0.10603850 -0.10738639
v -0.00850758 0.10579400 -0.10987170
v -0.00786499 0.10583761 -0.11013189
v -0.00722239 0.10588111 -0.11039219
v -0.00849907 0.10531470 -0.10978230
v -0.00850758 0.10579400 -0.10987170
v -0.00849909 0.10557380 -0.10830059
v -0.00850762 0.10631431 -0.10689689
v -0.00849911 0.10583291 -0.10681889
v -0.00786503 0.10644430 -0.10666160
v -0.00722244 0.10657421 -0.10642640
v -0.00721393 0.10609291 -0.10634840
v -0.00721387 0.10609211 -0.10634820
v -0.00785760 0.10596190 -0.10658389
v -0.00850762 0.10631431 -0.10689689
v -0.00849911 0.10583291 -0.10681889
v -0.00849905 0.10583210 -0.10681880
v -0.01425459 0.10462690 -0.10914529
v -0.01425461 0.10462610 -0.10914520
v -0.01425459 0.10478680 -0.10822889
v -0.01425457 0.10494751 -0.10731269
v -0.01425455 0.10494831 -0.10731289
v -0.01424601 0.10511240 -0.10922400
v -0.01424597 0.10543181 -0.10740289
v -0.01073517 0.10484751 -0.11067019
v -0.01425459 0.10462690 -0.10914529
v -0.01424601 0.10511240 -0.10922400
v -0.01073414 0.10533250 -0.11074569
v -0.00722238 0.10555340 -0.11226750
v -0.00721386 0.10507090 -0.11219639
v -0.00721365 0.10506901 -0.11219619
v -0.00722239 0.10588111 -0.11039219
v -0.00721388 0.10540181 -0.11030279
v -0.00722238 0.10555340 -0.11226750
v -0.00721387 0.10523630 -0.11124969
v -0.00721386 0.10507090 -0.11219639
v -0.00785756 0.10535730 -0.11004190
v -0.00721383 0.10540101 -0.11030259
v -0.00721388 0.10540181 -0.11030279
v -0.00849907 0.10531470 -0.10978230
v -0.00849902 0.10531380 -0.10978210
v -0.00722239 0.10588111 -0.11039219
v -0.00786499 0.10583761 -0.11013189
v -0.00850758 0.10579400 -0.10987170
v -0.01237239 0.10505101 -0.10821919
v -0.01239589 0.10553010 -0.10830270
v -0.01113258 0.10530170 -0.10776730
v -0.01113893 0.10578441 -0.10784449
v -0.00989053 0.10555291 -0.10731450
v -0.00988196 0.10603850 -0.10738639
v -0.01239589 0.10553010 -0.10830270
v -0.01237239 0.10505101 -0.10821919
v -0.01113893 0.10561531 -0.10881019
v -0.01113258 0.10513501 -0.10871980
v -0.00988199 0.10570051 -0.10931779
v -0.00989055 0.10521921 -0.10922129
v -0.00989055 0.10521921 -0.10922129
v -0.00989059 0.10521740 -0.10922070
v -0.00989057 0.10538421 -0.10826759
v -0.00989056 0.10555101 -0.10731440
v -0.00989053 0.10555291 -0.10731450
v -0.00988199 0.10570051 -0.10931779
v -0.00988196 0.10603850 -0.10738639
v -0.01146229 0.10301741 -0.12054739
v -0.01146232 0.10301600 -0.12054719
v -0.01146229 0.10330181 -0.11891540
v -0.01146226 0.10358761 -0.11728340
v -0.01146224 0.10358900 -0.11728349
v -0.01145366 0.10407451 -0.11735930
v -0.01145372 0.10350280 -0.12062320
v -0.01145372 0.10350280 -0.12062320
v -0.01002155 0.10369731 -0.12065359
v -0.01146229 0.10301741 -0.12054739
v -0.01001304 0.10321550 -0.12057829
v -0.01073899 0.10311561 -0.12056270
v -0.01001293 0.10321411 -0.12057809
v -0.01001304 0.10321550 -0.12057829
v -0.01002155 0.10369731 -0.12065359
v -0.01001307 0.10350110 -0.11894659
v -0.01002160 0.10426851 -0.11738969
v -0.01001309 0.10378670 -0.11731440
v -0.00864095 0.10445560 -0.11741890
v -0.00864953 0.10397011 -0.11734300
v -0.01002160 0.10426851 -0.11738969
v -0.00933263 0.10387761 -0.11732859
v -0.01001309 0.10378670 -0.11731440
v -0.01001297 0.10378541 -0.11731419
v -0.00864957 0.10331891 -0.12106640
v -0.00864960 0.10331750 -0.12106630
v -0.00864957 0.10364310 -0.11920469
v -0.00864955 0.10396881 -0.11734289
v -0.00864953 0.10397011 -0.11734300
v -0.00864095 0.10445560 -0.11741890
v -0.00864100 0.10380440 -0.12114219
v -0.00864100 0.10380440 -0.12114219
v -0.00722228 0.10399701 -0.12117239
v -0.00864957 0.10331891 -0.12106640
v -0.00721377 0.10351520 -0.12109710
v -0.00793300 0.10341620 -0.12108160
v -0.00721365 0.10351391 -0.12109689
v -0.00721377 0.10351520 -0.12109710
v -0.00722228 0.10399701 -0.12117239
v -0.00721380 0.10399560 -0.11834880
v -0.00722234 0.10495481 -0.11569250
v -0.00721383 0.10447590 -0.11560049
v -0.01073559 0.10400081 -0.11550920
v -0.00721371 0.10447461 -0.11560020
v -0.00721383 0.10447590 -0.11560049
v -0.01425471 0.10352740 -0.11541819
v -0.01424614 0.10400991 -0.11551089
v -0.01073424 0.10448230 -0.11560170
v -0.00722234 0.10495481 -0.11569250
v -0.01425471 0.10352740 -0.11541819
v -0.01424614 0.10400991 -0.11551089
v -0.01424619 0.10353601 -0.11821339
v -0.01425482 0.10257660 -0.12083999
v -0.01425485 0.10257521 -0.12083979
v -0.01425479 0.10305070 -0.11812880
v -0.01425473 0.10352611 -0.11541780
v -0.01424625 0.10306200 -0.12091580
v -0.01424625 0.10306200 -0.12091580
v -0.01280103 0.10325831 -0.12094650
v -0.01425482 0.10257660 -0.12083999
v -0.01279253 0.10277650 -0.12087120
v -0.01352500 0.10267570 -0.12085539
v -0.01279241 0.10277511 -0.12087100
v -0.01279253 0.10277650 -0.12087120
v -0.01280103 0.10325831 -0.12094650
v -0.01279256 0.10309330 -0.11906360
v -0.01280110 0.10389190 -0.11733079
v -0.01279259 0.10341011 -0.11725549
v -0.01145366 0.10407451 -0.11735930
v -0.01146224 0.10358900 -0.11728349
v -0.01280110 0.10389190 -0.11733079
v -0.01212874 0.10349871 -0.11726939
v -0.01279259 0.10341011 -0.11725549
v -0.01279247 0.10340880 -0.11725529
v -0.01002160 0.10426851 -0.11738969
v -0.01002155 0.10369731 -0.12065359
v -0.01145372 0.10350280 -0.12062320
v -0.00722234 0.10495481 -0.11569250
v -0.00722228 0.10399701 -0.12117239
v -0.00864100 0.10380440 -0.12114219
v -0.00864095 0.10445560 -0.11741890
v -0.01145366 0.10407451 -0.11735930
v -0.01280110 0.10389190 -0.11733079
v -0.01280103 0.10325831 -0.12094650
v -0.01424625 0.10306200 -0.12091580
v -0.01424619 0.10353601 -0.11821339
v -0.01424614 0.10400991 -0.11551089
v -0.01073424 0.10448230 -0.11560170
v -0.00977637 0.10255690 -0.12452560
v -0.00791090 0.10266990 -0.12537100
v -0.00791094 0.10267070 -0.12537109
v -0.01164037 0.10244420 -0.12368089
v -0.01168110 0.10292241 -0.12375560
v -0.00980026 0.10303611 -0.12460789
v -0.00791945 0.10315001 -0.12546029
v -0.00721374 0.10304721 -0.12377510
v -0.00721363 0.10304580 -0.12377490
v -0.00942786 0.10274460 -0.12372790
v -0.00722225 0.10352891 -0.12385040
v -0.01168110 0.10292241 -0.12375560
v -0.01164037 0.10244420 -0.12368089
v -0.01164028 0.10244371 -0.12368089
v -0.00722227 0.10380350 -0.12227940
v -0.00721376 0.10332470 -0.12218730
v -0.00722225 0.10352891 -0.12385040
v -0.00721375 0.10318590 -0.12298120
v -0.00721374 0.10304721 -0.12377510
v -0.01074068 0.10284701 -0.12209550
v -0.00721364 0.10332341 -0.12218710
v -0.00721376 0.10332470 -0.12218730
v -0.01426495 0.10237101 -0.12200399
v -0.01425637 0.10285351 -0.12209669
v -0.01073932 0.10332850 -0.12218809
v -0.00722227 0.10380350 -0.12227940
v -0.01426500 0.10202661 -0.12396449
v -0.01426501 0.10202581 -0.12396449
v -0.01426499 0.10219771 -0.12298410
v -0.01426497 0.10236970 -0.12200369
v -0.01426495 0.10237101 -0.12200399
v -0.01425642 0.10251211 -0.12404350
v -0.01425637 0.10285351 -0.12209669
v -0.01219544 0.10214650 -0.12493089
v -0.01426500 0.10202661 -0.12396449
v -0.01425642 0.10251211 -0.12404350
v -0.01012545 0.10226671 -0.12589750
v -0.01010456 0.10275290 -0.12598219
v -0.01012545 0.10226671 -0.12589750
v -0.01010456 0.10275290 -0.12598219
v -0.01219662 0.10182400 -0.12676649
v -0.01218061 0.10230920 -0.12685330
v -0.01426511 0.10138080 -0.12763420
v -0.01425653 0.10186431 -0.12772410
v -0.01426524 0.10103390 -0.12958459
v -0.01426526 0.10103261 -0.12958439
v -0.01426519 0.10120660 -0.12860930
v -0.01426511 0.10138080 -0.12763420
v -0.01425653 0.10186431 -0.12772410
v -0.01425659 0.10169230 -0.12869230
v -0.01426513 0.10137990 -0.12763400
v -0.01425666 0.10151941 -0.12966040
v -0.01074075 0.10151671 -0.12966000
v -0.01426524 0.10103390 -0.12958459
v -0.01425666 0.10151941 -0.12966040
v -0.01073939 0.10200130 -0.12973570
v -0.00722212 0.10248320 -0.12981100
v -0.00721361 0.10200141 -0.12973570
v -0.00721349 0.10200000 -0.12973550
v -0.00721361 0.10200141 -0.12973570
v -0.00722212 0.10248320 -0.12981100
v -0.00721364 0.10213971 -0.12895179
v -0.00722215 0.10262001 -0.12903550
v -0.00721367 0.10227781 -0.12816780
v -0.00722218 0.10275660 -0.12825979
v -0.00942789 0.10197670 -0.12810499
v -0.00721356 0.10227650 -0.12816760
v -0.00721367 0.10227781 -0.12816780
v -0.00722218 0.10275660 -0.12825979
v -0.00945159 0.10245481 -0.12819690
v -0.01168101 0.10215310 -0.12813389
v -0.01164048 0.10167770 -0.12804260
v -0.01164041 0.10167730 -0.12804249
v -0.00977650 0.10207271 -0.12728619
v -0.01164048 0.10167770 -0.12804260
v -0.01168101 0.10215310 -0.12813389
v -0.00980028 0.10255150 -0.12737069
v -0.00791944 0.10294910 -0.12660740
v -0.00791093 0.10246791 -0.12652929
v -0.00791088 0.10246711 -0.12652910
v -0.00791093 0.10246791 -0.12652929
v -0.00791944 0.10294910 -0.12660740
v -0.00791094 0.10256930 -0.12595019
v -0.00791945 0.10304960 -0.12603390
v -0.00791094 0.10267070 -0.12537109
v -0.00791945 0.10315001 -0.12546029
v -0.00722227 0.10380350 -0.12227940
v -0.00722225 0.10352891 -0.12385040
v -0.01073932 0.10332850 -0.12218809
v -0.01168110 0.10292241 -0.12375560
v -0.01425637 0.10285351 -0.12209669
v -0.00791945 0.10304960 -0.12603390
v -0.00791944 0.10294910 -0.12660740
v -0.01010456 0.10275290 -0.12598219
v -0.00980028 0.10255150 -0.12737069
v -0.01218061 0.10230920 -0.12685330
v -0.01168101 0.10215310 -0.12813389
v -0.01425653 0.10186431 -0.12772410
v -0.00791945 0.10315001 -0.12546029
v -0.00980026 0.10303611 -0.12460789
v -0.01425642 0.10251211 -0.12404350
v -0.00945159 0.10245481 -0.12819690
v -0.01073939 0.10200130 -0.12973570
v -0.01425666 0.10151941 -0.12966040
v -0.01425659 0.10169230 -0.12869230
v -0.00722218 0.10275660 -0.12825979
v -0.00722215 0.10262001 -0.12903550
v -0.00722212 0.10248320 -0.12981100
v -0.01073574 0.10128110 -0.13098649
v -0.00721344 0.10176240 -0.13107900
v -0.00721355 0.10176371 -0.13107930
v -0.01425525 0.10080040 -0.13089410
v -0.01424668 0.10128280 -0.13098689
v -0.01073436 0.10176261 -0.13107910
v -0.00722206 0.10224251 -0.13117130
v -0.01425525 0.10080040 -0.13089410
v -0.01424668 0.10128280 -0.13098689
v -0.01424678 0.10112140 -0.13188140
v -0.01425546 0.10047361 -0.13269990
v -0.01425549 0.10047230 -0.13269970
v -0.01425538 0.10063601 -0.13179690
v -0.01425528 0.10079901 -0.13089380
v -0.01424689 0.10095920 -0.13277570
v -0.01073579 0.10096030 -0.13277590
v -0.01425546 0.10047361 -0.13269990
v -0.01424689 0.10095920 -0.13277570
v -0.01073441 0.10144491 -0.13285160
v -0.00722196 0.10193061 -0.13292750
v -0.00721345 0.10144890 -0.13285220
v -0.00721332 0.10144751 -0.13285199
v -0.00721345 0.10144890 -0.13285220
v -0.00722196 0.10193061 -0.13292750
v -0.00721350 0.10160650 -0.13196579
v -0.00722201 0.10208671 -0.13204940
v -0.00721355 0.10176371 -0.13107930
v -0.00722206 0.10224251 -0.13117130
v -0.01073441 0.10144491 -0.13285160
v -0.01424689 0.10095920 -0.13277570
v -0.01424678 0.10112140 -0.13188140
v -0.00722201 0.10208671 -0.13204940
v -0.00722196 0.10193061 -0.13292750
v -0.01424668 0.10128280 -0.13098689
v -0.01073436 0.10176261 -0.13107910
v -0.00722206 0.10224251 -0.13117130
v -0.00807790 0.10077111 -0.13593900
v -0.00894005 0.10065020 -0.13592019
v -0.00894013 0.10065110 -0.13592030
v -0.00721307 0.10089231 -0.13595800
v -0.00721320 0.10089380 -0.13595820
v -0.00722171 0.10137551 -0.13603350
v -0.00894339 0.10113411 -0.13599579
v -0.00721320 0.10089380 -0.13595820
v -0.00722171 0.10137551 -0.13603350
v -0.00721328 0.10105270 -0.13507180
v -0.00722179 0.10153290 -0.13515540
v -0.00721335 0.10121120 -0.13418530
v -0.00722186 0.10168991 -0.13427730
v -0.01073585 0.10072320 -0.13409150
v -0.00721324 0.10120990 -0.13418499
v -0.00721335 0.10121120 -0.13418530
v -0.01425564 0.10023720 -0.13399810
v -0.01424707 0.10071950 -0.13409079
v -0.01073445 0.10120460 -0.13418400
v -0.00722186 0.10168991 -0.13427730
v -0.01425564 0.10023720 -0.13399810
v -0.01424707 0.10071950 -0.13409079
v -0.01424721 0.10055561 -0.13498530
v -0.01425594 0.09990519 -0.13580380
v -0.01425597 0.09990388 -0.13580359
v -0.01425581 0.10007020 -0.13490080
v -0.01425567 0.10023571 -0.13399770
v -0.01424736 0.10039090 -0.13587960
v -0.01124583 0.10081141 -0.13594529
v -0.01126869 0.10032380 -0.13586920
v -0.01274660 0.10060110 -0.13591250
v -0.01276399 0.10011420 -0.13583640
v -0.01424736 0.10039090 -0.13587960
v -0.01425594 0.09990519 -0.13580380
v -0.01126869 0.10032380 -0.13586920
v -0.01124583 0.10081141 -0.13594529
v -0.01274702 0.10036390 -0.13720110
v -0.01126876 0.10032300 -0.13586910
v -0.01276372 0.09987728 -0.13711960
v -0.01425647 0.09942785 -0.13836750
v -0.01424788 0.09991201 -0.13845570
v -0.01425699 0.09903154 -0.14047140
v -0.01425699 0.09903109 -0.14047140
v -0.01425673 0.09922972 -0.13941960
v -0.01425695 0.09903345 -0.14047140
v -0.01425647 0.09942785 -0.13836750
v -0.01424788 0.09991201 -0.13845570
v -0.01424813 0.09971663 -0.13949640
v -0.01425648 0.09942728 -0.13836730
v -0.01424839 0.09952019 -0.14053679
v -0.01425695 0.09903345 -0.14047140
v -0.01424839 0.09952019 -0.14053679
v -0.01279118 0.09948526 -0.13921930
v -0.01278614 0.09997085 -0.13928769
v -0.01132267 0.09993297 -0.13796410
v -0.01132341 0.10041671 -0.13803740
v -0.00721241 0.09969741 -0.14256260
v -0.00722092 0.10017850 -0.14264050
v -0.00721267 0.10003041 -0.14073660
v -0.00722119 0.10053470 -0.14068730
v -0.00721293 0.10040960 -0.13864570
v -0.00722143 0.10088900 -0.13873390
v -0.00857581 0.10037931 -0.13771180
v -0.00721290 0.10040900 -0.13864560
v -0.00721293 0.10040960 -0.13864570
v -0.00722143 0.10088900 -0.13873390
v -0.00858611 0.10085920 -0.13779880
v -0.00995095 0.10083101 -0.13686400
v -0.00993712 0.10035120 -0.13677950
v -0.00993712 0.10035120 -0.13677950
v -0.00993712 0.10035120 -0.13677950
v -0.00995095 0.10083101 -0.13686400
v -0.00943946 0.10050110 -0.13635060
v -0.00944720 0.10098281 -0.13642990
v -0.00894013 0.10065110 -0.13592030
v -0.00894339 0.10113411 -0.13599579
v -0.00988424 0.09959945 -0.14359530
v -0.01113593 0.09932406 -0.14404810
v -0.01073731 0.09972809 -0.14221679
v -0.01238739 0.09904709 -0.14450050
v -0.01424927 0.09893632 -0.14359630
v -0.01073407 0.09883709 -0.14694510
v -0.01424986 0.09858458 -0.14541670
v -0.01424956 0.09876086 -0.14450660
v -0.00988468 0.09923961 -0.14551550
v -0.00721990 0.09910316 -0.14847480
v -0.01113594 0.09914264 -0.14500789
v -0.00722171 0.10137551 -0.13603350
v -0.00894339 0.10113411 -0.13599579
v -0.00722179 0.10153290 -0.13515540
v -0.00722186 0.10168991 -0.13427730
v -0.00995095 0.10083101 -0.13686400
v -0.01274702 0.10036390 -0.13720110
v -0.00944720 0.10098281 -0.13642990
v -0.01124583 0.10081141 -0.13594529
v -0.00722092 0.10017850 -0.14264050
v -0.00786336 0.10003891 -0.14287420
v -0.00722382 0.10050760 -0.14083410
v -0.00850575 0.09989882 -0.14310780
v -0.00988445 0.09941984 -0.14455549
v -0.00850547 0.09962429 -0.14459120
v -0.00850517 0.09934848 -0.14607440
v -0.00786269 0.09939959 -0.14633610
v -0.00722008 0.09927739 -0.14753640
v -0.00722026 0.09945115 -0.14659780
v -0.00722119 0.10053470 -0.14068730
v -0.00927343 0.10046010 -0.13943560
v -0.00722143 0.10088900 -0.13873390
v -0.01278614 0.09997085 -0.13928769
v -0.01424839 0.09952019 -0.14053679
v -0.01424813 0.09971663 -0.13949640
v -0.01424788 0.09991201 -0.13845570
v -0.01132341 0.10041671 -0.13803740
v -0.00858611 0.10085920 -0.13779880
v -0.01274660 0.10060110 -0.13591250
v -0.01424736 0.10039090 -0.13587960
v -0.01424721 0.10055561 -0.13498530
v -0.01424707 0.10071950 -0.13409079
v -0.01073445 0.10120460 -0.13418400
v -0.00849667 0.09886953 -0.14598510
v -0.00850517 0.09934848 -0.14607440
v -0.00849697 0.09914422 -0.14450770
v -0.00850547 0.09962429 -0.14459120
v -0.00849724 0.09941768 -0.14302990
v -0.00850575 0.09989882 -0.14310780
v -0.00786336 0.10003891 -0.14287420
v -0.00722092 0.10017850 -0.14264050
v -0.00721241 0.09969741 -0.14256260
v -0.00721234 0.09969642 -0.14256240
v -0.00785606 0.09955645 -0.14279650
v -0.00850575 0.09989882 -0.14310780
v -0.00849724 0.09941768 -0.14302990
v -0.00849717 0.09941665 -0.14302970
v -0.01425785 0.09845292 -0.14350640
v -0.01424927 0.09893632 -0.14359630
v -0.01424956 0.09876086 -0.14450660
v -0.01425816 0.09827529 -0.14442220
v -0.01425787 0.09845189 -0.14350610
v -0.01425847 0.09809793 -0.14533780
v -0.01425845 0.09809868 -0.14533790
v -0.01424986 0.09858458 -0.14541670
v -0.01073517 0.09835177 -0.14686950
v -0.01425845 0.09809868 -0.14533790
v -0.01424986 0.09858458 -0.14541670
v -0.01073407 0.09883709 -0.14694510
v -0.00721990 0.09910316 -0.14847480
v -0.00721139 0.09862089 -0.14840380
v -0.00721110 0.09861867 -0.14840360
v -0.00721139 0.09862089 -0.14840380
v -0.00721990 0.09910316 -0.14847480
v -0.00721158 0.09879677 -0.14745640
v -0.00722008 0.09927739 -0.14753640
v -0.00721176 0.09897220 -0.14650850
v -0.00722026 0.09945115 -0.14659780
v -0.00785539 0.09891971 -0.14624610
v -0.00721170 0.09897134 -0.14650830
v -0.00721176 0.09897220 -0.14650850
v -0.00722026 0.09945115 -0.14659780
v -0.00786269 0.09939959 -0.14633610
v -0.00849667 0.09886953 -0.14598510
v -0.00849662 0.09886870 -0.14598490
v -0.00850517 0.09934848 -0.14607440
v -0.00988424 0.09959945 -0.14359530
v -0.00989281 0.09911351 -0.14352340
v -0.01113593 0.09932406 -0.14404810
v -0.01112974 0.09884134 -0.14397090
v -0.01236391 0.09856818 -0.14441710
v -0.01236392 0.09856846 -0.14441710
v -0.01238739 0.09904709 -0.14450050
v -0.01238739 0.09904709 -0.14450050
v -0.01236392 0.09856846 -0.14441710
v -0.01113594 0.09914264 -0.14500789
v -0.01112971 0.09866269 -0.14491750
v -0.00988468 0.09923961 -0.14551550
v -0.00989324 0.09875850 -0.14541910
v -0.00989324 0.09875850 -0.14541910
v -0.00989328 0.09875640 -0.14541840
v -0.00989305 0.09893426 -0.14447110
v -0.00988445 0.09941984 -0.14455549
v -0.00988468 0.09923961 -0.14551550
v -0.00989284 0.09911156 -0.14352330
v -0.00989281 0.09911351 -0.14352340
v -0.00988424 0.09959945 -0.14359530
f 1 2 3
f 2 4 3
f 3 4 5
f 6 4 7
f 4 2 7
f 7 2 8
f 2 9 8
f 10 11 12
f 13 10 14
f 10 12 14
f 14 12 15
f 12 16 15
f 17 18 19
f 20 21 17
f 19 22 23
f 17 19 20
f 19 23 20
f 20 23 24
f 25 26 27
f 26 28 27
f 27 28 29
f 28 30 29
f 31 32 33
f 32 34 33
f 33 34 35
f 34 36 35
f 37 38 39
f 38 40 39
f 39 40 41
f 40 42 41
f 43 44 45
f 46 47 43
f 45 48 49
f 43 45 46
f 45 49 46
f 46 49 50
f 51 52 53
f 52 54 53
f 53 54 55
f 54 56 55
f 57 58 59
f 58 60 59
f 59 60 61
f 60 62 61
f 63 64 65
f 66 67 65
f 67 68 65
f 65 68 63
f 68 69 63
f 70 71 72
f 71 73 72
f 72 73 74
f 75 76 77
f 78 75 79
f 75 77 79
f 79 77 80
f 77 81 80
f 82 83 84
f 84 85 86
f 82 84 87
f 84 86 87
f 87 86 88
f 89 90 91
f 90 92 91
f 91 92 93
f 92 94 93
f 95 96 97
f 98 99 100
f 99 101 100
f 100 101 97
f 101 102 97
f 97 102 95
f 102 103 95
f 103 102 104
f 102 105 104
f 104 105 106
f 105 107 106
f 106 107 108
f 109 110 111
f 110 112 111
f 112 113 111
f 111 113 114
f 114 115 111
f 115 116 111
f 111 116 117
f 118 119 120
f 119 111 120
f 120 111 121
f 111 117 121
f 122 123 124
f 123 125 124
f 124 125 111
f 125 126 111
f 127 128 126
f 128 129 126
f 126 129 130
f 130 131 126
f 131 132 126
f 126 132 111
f 132 133 111
f 111 133 109
f 134 119 135
f 119 118 135
f 135 118 136
f 118 137 136
f 136 137 138
f 137 139 138
f 139 140 138
f 138 140 141
f 140 142 141
f 141 142 143
f 142 144 143
f 143 144 145
f 144 146 145
f 145 146 147
f 146 148 147
f 148 149 147
f 147 149 150
f 149 151 150
f 150 151 152
f 151 153 152
f 154 155 156
f 155 157 156
f 156 157 153
f 157 158 153
f 153 158 152
f 159 160 161
f 127 126 161
f 126 162 161
f 161 162 159
f 160 163 161
f 163 164 161
f 161 164 165
f 165 166 161
f 166 167 161
f 161 167 168
f 168 169 161
f 169 170 161
f 161 170 171
f 170 172 171
f 171 172 173
f 172 174 173
f 173 174 175
f 174 176 175
f 175 176 154
f 176 177 154
f 154 177 155
f 178 179 180
f 181 182 180
f 182 183 180
f 180 183 178
f 183 184 178
f 185 186 187
f 186 188 187
f 187 188 189
f 190 191 192
f 193 190 194
f 190 192 194
f 194 192 195
f 196 197 198
f 199 196 200
f 196 198 200
f 200 198 201
f 202 203 204
f 203 205 204
f 204 205 206
f 204 207 202
f 207 208 202
f 202 208 209
f 208 210 209
f 209 210 211
f 210 212 211
f 211 212 213
f 212 214 213
f 213 214 215
f 214 216 215
f 215 216 217
f 216 218 217
f 218 219 217
f 217 219 220
f 220 219 221
f 219 222 221
f 221 222 223
f 222 224 223
f 224 225 223
f 223 225 226
f 225 227 226
f 226 227 228
f 227 229 228
f 228 229 230
f 229 231 230
f 230 231 232
f 231 233 232
f 233 201 232
f 232 201 198
f 234 235 236
f 235 237 236
f 236 237 238
f 237 239 238
f 239 240 238
f 238 240 241
f 240 242 241
f 241 242 243
f 242 244 243
f 243 244 245
f 244 246 245
f 246 247 245
f 245 247 248
f 247 249 248
f 248 249 250
f 249 251 250
f 250 251 252
f 251 253 252
f 252 253 254
f 253 255 254
f 255 206 254
f 254 206 205
f 256 257 258
f 258 259 260
f 256 258 261
f 261 258 262
f 258 260 262
f 262 260 263
f 264 265 266
f 265 267 266
f 266 267 268
f 269 270 271
f 271 272 273
f 274 275 269
f 269 271 274
f 271 273 274
f 274 273 276
f 277 278 279
f 278 280 279
f 279 280 281
f 282 283 284
f 283 285 284
f 284 285 286
f 285 287 286
f 288 289 290
f 289 291 290
f 290 291 292
f 290 292 293
f 290 293 294
f 293 295 294
f 294 295 296
f 295 297 296
f 296 297 298
f 297 299 298
f 299 300 298
f 298 300 301
f 300 302 301
f 301 302 303
f 302 304 303
f 303 304 305
f 304 306 305
f 305 306 307
f 306 308 307
f 307 308 309
f 308 310 309
f 310 311 309
f 309 311 312
f 311 313 312
f 312 313 314
f 313 315 314
f 314 315 316
f 315 317 316
f 316 317 318
f 317 319 318
f 319 320 318
f 318 320 321
f 320 322 321
f 321 322 323
f 322 324 323
f 323 324 325
f 324 326 325
f 325 326 327
f 327 326 328
f 327 328 329
f 328 330 329
f 329 330 331
f 330 332 331
f 331 332 333
f 332 334 333
f 333 334 335
f 334 336 335
f 335 336 337
f 336 338 337
f 338 339 337
f 337 339 340
f 339 341 340
f 340 341 342
f 341 343 342
f 342 343 344
f 343 345 344
f 344 345 346
f 345 347 346
f 346 347 348
f 347 349 348
f 348 349 350
f 349 351 350
f 350 351 352
f 351 353 352
f 352 353 354
f 353 355 354
f 355 356 354
f 354 356 357
f 356 358 357
f 357 358 359
f 359 358 360
f 361 359 362
f 359 360 362
f 362 360 363
f 364 365 366
f 365 367 366
f 366 367 368
f 369 370 371
f 370 372 371
f 371 372 364
f 372 373 364
f 364 373 365
f 374 375 376
f 375 377 376
f 367 376 368
f 376 377 368
f 368 377 369
f 377 378 369
f 369 378 370
f 378 379 370
f 370 379 380
f 381 382 383
f 382 384 383
f 383 384 385
f 386 387 388
f 388 389 390
f 386 388 391
f 391 388 392
f 388 390 392
f 392 390 393
f 394 395 396
f 395 397 396
f 396 397 398
f 399 400 401
f 402 399 403
f 399 401 403
f 403 401 404
f 401 405 404
f 406 407 408
f 408 409 410
f 406 408 411
f 408 410 411
f 411 410 412
f 413 414 415
f 416 417 418
f 419 413 418
f 413 415 418
f 418 415 416
f 420 421 422
f 421 423 422
f 422 423 424
f 425 426 427
f 428 429 425
f 427 430 431
f 425 427 428
f 427 431 428
f 428 431 432
f 433 434 435
f 434 436 435
f 435 436 437
f 436 438 437
f 439 440 441
f 440 442 441
f 441 442 443
f 442 444 443
f 445 446 447
f 447 448 449
f 445 447 450
f 447 449 450
f 450 449 451
f 452 453 454
f 455 452 456
f 452 454 456
f 456 454 457
f 454 458 457
f 459 460 461
f 460 462 461
f 461 462 463
f 464 465 466
f 466 467 468
f 464 466 469
f 466 468 469
f 469 468 470
f 471 472 473
f 474 471 475
f 471 473 475
f 475 473 476
f 477 478 479
f 478 480 479
f 479 480 481
f 482 483 484
f 485 482 486
f 482 484 486
f 486 484 487
f 484 488 487
f 489 490 491
f 492 489 493
f 489 491 493
f 493 491 494
f 491 495 494
f 496 497 498
f 497 499 498
f 498 499 500
f 501 502 503
f 504 501 505
f 501 503 505
f 505 503 506
f 503 507 506
f 508 509 510
f 510 511 512
f 508 510 513
f 510 512 513
f 513 512 514
f 515 516 517
f 516 518 517
f 519 520 521
f 520 522 521
f 521 522 523
f 524 517 525
f 517 518 525
f 525 518 522
f 518 526 522
f 522 526 523
f 526 527 523
f 528 529 530
f 531 528 532
f 528 530 532
f 532 530 533
f 530 534 533
f 535 536 537
f 536 538 537
f 537 538 539
f 540 541 542
f 543 540 544
f 540 542 544
f 544 542 545
f 542 546 545
f 547 548 549
f 549 550 551
f 547 549 552
f 549 551 552
f 552 551 553
f 554 555 556
f 555 557 556
f 556 557 558
f 559 560 561
f 562 559 563
f 559 561 563
f 563 561 564
f 561 565 564
f 566 567 568
f 566 568 569
f 568 570 571
f 569 568 572
f 568 571 572
f 572 571 573
f 574 575 576
f 575 577 576
f 576 577 578
f 577 579 578
f 580 581 582
f 581 583 582
f 582 583 584
f 584 585 582
f 585 586 582
f 582 586 587
f 588 589 590
f 591 592 590
f 592 593 590
f 590 593 588
f 593 594 588
f 588 594 595
f 596 597 598
f 597 599 598
f 598 599 600
f 599 601 600
f 602 603 604
f 603 605 604
f 604 605 606
f 607 608 609
f 608 603 609
f 609 603 610
f 603 602 610
f 610 602 611
f 602 612 611
f 611 612 613
f 612 614 613
f 615 606 616
f 606 605 616
f 616 605 617
f 605 618 617
f 617 618 619
f 620 621 622
f 621 623 622
f 622 623 624
f 625 626 627
f 626 628 627
f 627 628 620
f 628 629 620
f 620 629 621
f 630 631 632
f 631 633 632
f 634 635 636
f 635 633 636
f 636 633 625
f 633 637 625
f 625 637 626
f 637 638 626
f 626 638 639
f 640 641 642
f 641 643 642
f 642 643 644
f 645 646 647
f 647 648 649
f 645 647 650
f 650 647 651
f 647 649 651
f 651 649 652
f 653 654 655
f 655 656 657
f 653 655 658
f 655 657 658
f 658 657 659
f 660 661 662
f 663 664 665
f 666 660 665
f 660 662 665
f 665 662 663
f 667 668 669
f 668 670 669
f 669 670 671
f 672 673 674
f 675 676 672
f 674 677 678
f 672 674 675
f 674 678 675
f 675 678 679
f 680 681 682
f 681 683 682
f 682 683 684
f 683 685 684
f 686 687 688
f 687 689 688
f 688 689 690
f 689 691 690
f 692 693 694
f 694 695 696
f 692 694 697
f 694 696 697
f 697 696 698
f 699 700 701
f 701 702 703
f 703 704 701
f 704 705 701
f 701 705 699
f 706 707 708
f 707 709 708
f 708 709 710
f 709 711 710
f 712 713 714
f 713 715 714
f 714 715 716
f 717 718 719
f 718 720 719
f 719 720 721
f 720 722 721
f 723 724 725
f 725 726 727
f 727 728 725
f 728 729 725
f 725 729 723
f 730 731 732
f 731 733 732
f 732 733 734
f 733 735 734
f 736 737 738
f 737 739 738
f 738 739 740
f 741 742 743
f 744 741 745
f 741 743 745
f 745 743 746
f 743 747 746
f 748 749 750
f 751 752 753
f 754 748 753
f 748 750 753
f 753 750 751
f 750 755 751
f 756 757 758
f 757 759 758
f 758 759 760
f 759 761 760
f 762 763 764
f 763 765 764
f 764 765 766
f 767 768 769
f 768 770 769
f 769 770 771
f 770 772 771
f 773 774 775
f 776 777 778
f 778 779 776
f 779 773 776
f 776 773 780
f 773 775 780
f 781 782 783
f 783 784 781
f 784 785 781
f 781 785 780
f 785 786 780
f 780 786 776
f 787 788 789
f 790 787 791
f 787 789 791
f 791 789 792
f 789 793 792
f 794 795 796
f 797 794 798
f 794 796 798
f 798 796 799
f 796 800 799
f 801 802 803
f 802 804 803
f 803 804 805
f 806 807 808
f 809 806 810
f 806 808 810
f 810 808 811
f 808 812 811
f 813 814 815
f 815 816 817
f 813 815 818
f 815 817 818
f 818 817 819
f 820 821 822
f 823 820 823
f 820 822 823
f 823 822 824
f 825 826 827
f 826 828 827
f 827 828 829
f 828 830 829
f 831 832 833
f 834 835 836
f 837 834 833
f 834 836 833
f 833 836 831
f 836 838 831
f 839 840 841
f 842 843 844
f 845 839 844
f 839 841 844
f 844 841 842
f 846 847 848
f 847 849 848
f 848 849 850
f 849 851 850
f 852 853 854
f 855 856 854
f 856 857 854
f 854 857 852
f 857 858 852
f 852 858 859
f 860 861 862
f 863 864 865
f 866 860 865
f 860 862 865
f 865 862 863
f 867 868 869
f 868 870 869
f 869 870 871
f 870 872 871
f 873 874 875
f 874 876 875
f 875 876 877
f 878 879 880
f 879 881 880
f 880 881 882
f 881 883 882
f 882 883 884
f 885 878 886
f 878 880 886
f 886 880 876
f 880 887 876
f 876 887 877
f 883 888 889
f 889 890 883
f 890 891 883
f 883 891 884
f 888 892 889
f 892 893 889
f 889 893 894
f 895 896 897
f 898 895 899
f 895 897 899
f 899 897 900
f 897 901 900
f 902 903 904
f 905 906 907
f 908 902 907
f 902 904 907
f 907 904 905
f 904 909 905
f 910 911 912
f 913 914 915
f 916 910 915
f 910 912 915
f 915 912 913
f 917 918 919
f 918 920 919
f 919 920 921
f 920 922 921
f 923 924 925
f 926 927 923
f 925 928 929
f 923 925 926
f 925 929 926
f 926 929 930
f 931 932 933
f 934 931 935
f 931 933 935
f 935 933 936
f 933 937 936
f 938 939 940
f 939 941 940
f 940 941 942
f 941 943 942
f 944 945 946
f 947 944 948
f 944 946 948
f 948 946 949
f 946 950 949
f 951 952 953
f 954 955 956
f 957 951 956
f 951 953 956
f 956 953 954
f 953 958 954
f 959 960 961
f 960 962 961
f 961 962 963
f 962 964 963
f 965 966 967
f 968 965 969
f 965 967 969
f 969 967 970
f 967 971 970
f 972 973 974
f 972 974 975
f 976 977 978
f 979 976 974
f 976 978 974
f 974 978 975
f 978 980 975
f 981 982 983
f 982 984 983
f 983 984 985
f 984 986 985
f 987 988 989
f 988 990 989
f 989 990 991
f 990 992 991
f 993 994 995
f 996 997 995
f 997 998 995
f 995 998 993
f 998 999 993
f 993 999 1000
f 1001 1002 1003
f 1002 1004 1003
f 1003 1004 1005
f 1004 1006 1005
f 1007 1008 1009
f 1008 1010 1009
f 1009 1010 1011
f 1012 1013 1014
f 1015 1016 1017
f 1016 1012 1017
f 1017 1012 1010
f 1012 1014 1010
f 1010 1014 1011
f 1018 1019 1020
f 1019 1021 1020
f 1022 1023 1024
f 1023 1025 1024
f 1026 1027 1028
f 1027 1029 1028
f 1009 1028 1007
f 1028 1029 1007
f 1007 1029 1030
f 1029 1031 1030
f 1030 1031 1015
f 1031 1032 1015
f 1015 1032 1016
f 1032 1033 1016
f 1016 1033 1034
f 1033 1035 1034
f 1026 1028 1036
f 1028 1037 1036
f 1036 1037 1038
f 1039 1040 1041
f 1041 1042 1039
f 1042 1023 1039
f 1039 1023 1043
f 1023 1022 1043
f 1043 1022 1037
f 1022 1044 1037
f 1037 1044 1038
f 1045 1046 1047
f 1045 1047 1025
f 1048 1049 1047
f 1049 1021 1047
f 1047 1021 1025
f 1021 1019 1025
f 1025 1019 1024
f 1050 1051 1052
f 1051 1053 1052
f 1052 1053 1054
f 1053 1055 1054
f 1056 1057 1058
f 1058 1059 1060
f 1056 1058 1061
f 1061 1058 1062
f 1058 1060 1062
f 1062 1060 1063
f 1064 1065 1066
f 1067 1068 1064
f 1069 1067 1070
f 1067 1064 1070
f 1070 1064 1071
f 1064 1066 1071
f 1072 1073 1074
f 1075 1076 1077
f 1078 1072 1077
f 1072 1074 1077
f 1077 1074 1075
f 1079 1080 1081
f 1080 1082 1081
f 1081 1082 1083
f 1082 1084 1083
f 1085 1086 1087
f 1087 1088 1089
f 1090 1091 1085
f 1085 1087 1090
f 1087 1089 1090
f 1090 1089 1092
f 1093 1094 1095
f 1094 1096 1095
f 1096 1097 1095
f 1097 1098 1095
f 1095 1098 1099
f 1100 1101 1102
f 1101 1103 1102
f 1102 1103 1104
f 1103 1105 1104
f 1106 1107 1108
f 1109 1110 1106
f 1108 1111 1112
f 1106 1108 1109
f 1108 1112 1109
f 1109 1112 1113

