# https://github.com/mikedh/trimesh
v -0.04782321 -0.00100000 -0.01082349
v -0.04782321 0.00100000 -0.01082349
v -0.04783367 0.00000000 -0.01380000
v -0.04690000 0.00000000 -0.01380000
v -0.04783367 0.00000000 -0.01380000
v -0.04690000 0.00100000 -0.01082349
v -0.04782321 0.00100000 -0.01082349
v -0.04690000 -0.00100000 -0.01082349
v -0.04782321 -0.00100000 -0.01082349
v -0.04690000 0.00000000 -0.01380000
v -0.04783367 0.00000000 -0.01380000
v -0.04690000 0.00100000 -0.01082349
v -0.04782321 0.00100000 -0.01082349
v -0.04690000 -0.00100000 -0.01082349
v -0.04782321 -0.00100000 -0.01082349
v -0.04690000 0.00650000 -0.00550000
v -0.04690000 0.00650000 -0.01480000
v -0.04690000 0.00000000 -0.01380000
v -0.04690000 -0.00650000 -0.01480000
v -0.04690000 -0.00100000 -0.01082349
v -0.04690000 -0.00650000 -0.00550000
v -0.04690000 0.00100000 -0.01082349
v -0.04690000 -0.00650000 -0.00550000
v -0.04690000 -0.00650000 -0.01480000
v -0.04738998 -0.00650000 -0.00550000
v -0.04738998 -0.00650000 -0.01480000
v -0.04755394 0.00516550 -0.00550000
v -0.04738998 0.00650000 -0.00550000
v -0.04690000 0.00650000 -0.00550000
v -0.04774667 -0.00288367 -0.00550000
v -0.04690000 -0.00650000 -0.00550000
v -0.04738998 -0.00650000 -0.00550000
v -0.04690000 0.00650000 -0.01480000
v -0.04690000 0.00650000 -0.00550000
v -0.04738998 0.00650000 -0.01480000
v -0.04738998 0.00650000 -0.00550000
v -0.04738998 -0.00650000 -0.00550000
v -0.04738998 -0.00650000 -0.01480000
v -0.04658661 -0.01085115 -0.01480000
v -0.04765478 -0.00288322 0.00380000
v -0.04768783 0.00373236 0.00380000
v -0.04774667 -0.00288367 -0.00550000
v -0.04755394 0.00516550 -0.00550000
v -0.04591578 0.01303500 0.00380000
v -0.04738998 0.00650000 -0.00550000
v -0.04641318 0.01157053 0.00380000
v -0.04745733 0.00514979 0.00380000
v -0.01636044 0.04494876 0.00380000
v -0.01335438 0.04593171 0.00380000
v -0.01335438 0.04593170 -0.01480000
v -0.00546129 0.04752088 0.00380000
v -0.00546129 0.04752088 -0.01480000
v 0.00258654 0.04776369 0.00380000
v 0.00258654 0.04776369 -0.01480000
v 0.01056107 0.04665323 0.00380000
v 0.01056107 0.04665323 -0.01480000
v 0.01823639 0.04422097 0.00380000
v 0.01823639 0.04422097 -0.01480000
v 0.02539502 0.04053582 0.00380000
v 0.02539502 0.04053582 -0.01480000
v 0.03183415 0.03570219 0.00380000
v 0.03183415 0.03570219 -0.01480000
v 0.03737134 0.02985704 0.00380000
v 0.03737134 0.02985704 -0.01480000
v 0.04184971 0.02316596 0.00380000
v 0.04184971 0.02316596 -0.01480000
v 0.04514238 0.01581853 0.00380000
v 0.04514238 0.01581853 -0.01480000
v 0.04715605 0.00802292 0.00380000
v 0.04715605 0.00802292 -0.01480000
v 0.04783367 -0.00000000 0.00380000
v 0.04783367 -0.00000000 -0.01480000
v -0.02082498 0.04294294 0.00380000
v -0.02086910 0.04304115 -0.01480000
v -0.02274132 0.04208197 0.00380000
v -0.02779256 0.03893114 -0.01480000
v -0.02772474 0.03882731 0.00380000
v -0.02939010 0.03773967 0.00380000
v -0.03392858 0.03371812 -0.01480000
v -0.03384771 0.03363041 0.00380000
v -0.03522883 0.03235721 0.00380000
v -0.03910332 0.02754978 -0.01480000
v -0.03901298 0.02747970 0.00380000
v -0.04009663 0.02608295 0.00380000
v -0.04317017 0.02060089 -0.01480000
v -0.04307408 0.02054919 0.00380000
v -0.04385931 0.01908981 0.00380000
v -0.04601390 0.01306832 -0.01480000
v -0.04738998 0.00650000 -0.01480000
v -0.04764816 -0.00420869 0.00380000
v -0.04650222 -0.01083656 0.00380000
v -0.04629524 -0.01203374 0.00380000
v -0.04410664 -0.01851119 -0.01480000
v -0.04403197 -0.01848499 0.00380000
v -0.04366637 -0.01952712 0.00380000
v -0.04037702 -0.02564675 -0.01480000
v -0.04031364 -0.02561183 0.00380000
v -0.03983399 -0.02648231 0.00380000
v -0.03550342 -0.03205568 -0.01480000
v -0.03545219 -0.03201511 0.00380000
v -0.03490375 -0.03270762 0.00380000
v -0.02962393 -0.03755640 -0.01480000
v -0.02958499 -0.03751330 0.00380000
v -0.02901151 -0.03803146 0.00380000
v -0.02290511 -0.04199305 -0.01480000
v -0.02287789 -0.04195045 0.00380000
v -0.02231968 -0.04230711 0.00380000
v -0.01553733 -0.04523993 -0.01480000
v -0.01552059 -0.04520058 0.00380000
v -0.01501270 -0.04541673 0.00380000
v -0.00772935 -0.04720505 -0.01480000
v -0.00772123 -0.04717130 0.00380000
v -0.00729194 -0.04727460 0.00380000
v 0.00029763 -0.04783274 -0.01480000
v 0.00029947 -0.04780638 0.00380000
v 0.00062979 -0.04782952 0.00380000
v 0.00831617 -0.04710522 -0.01480000
v 0.00831446 -0.04708743 0.00380000
v 0.00853416 -0.04706621 0.00380000
v 0.01609910 -0.04504307 -0.01480000
v 0.01609675 -0.04503433 0.00380000
v 0.01620333 -0.04500569 0.00380000
v 0.02342590 -0.04170476 -0.01480000
v 0.02342590 -0.04170476 0.00380000
f 1 2 3
f 4 5 6
f 5 7 6
f 8 9 10
f 9 11 10
f 12 13 14
f 13 15 14
f 16 17 18
f 17 19 18
f 18 19 20
f 19 21 20
f 20 21 22
f 21 16 22
f 22 16 18
f 23 24 25
f 24 26 25
f 27 28 29
f 27 29 30
f 29 31 30
f 30 31 32
f 33 34 35
f 34 36 35
f 37 38 39
f 40 41 42
f 41 43 42
f 44 45 46
f 45 43 46
f 46 43 47
f 43 41 47
f 48 49 50
f 49 51 50
f 50 51 52
f 51 53 52
f 52 53 54
f 53 55 54
f 54 55 56
f 55 57 56
f 56 57 58
f 57 59 58
f 58 59 60
f 59 61 60
f 60 61 62
f 61 63 62
f 62 63 64
f 63 65 64
f 64 65 66
f 65 67 66
f 66 67 68
f 67 69 68
f 68 69 70
f 69 71 70
f 70 71 72
f 48 50 73
f 50 74 73
f 73 74 75
f 74 76 75
f 75 76 77
f 77 76 78
f 76 79 78
f 78 79 80
f 80 79 81
f 79 82 81
f 81 82 83
f 83 82 84
f 82 85 84
f 84 85 86
f 86 85 87
f 85 88 87
f 87 88 44
f 88 89 44
f 44 89 45
f 40 42 90
f 42 37 90
f 90 37 91
f 37 39 91
f 91 39 92
f 39 93 92
f 92 93 94
f 94 93 95
f 93 96 95
f 95 96 97
f 97 96 98
f 96 99 98
f 98 99 100
f 100 99 101
f 99 102 101
f 101 102 103
f 103 102 104
f 102 105 104
f 104 105 106
f 106 105 107
f 105 108 107
f 107 108 109
f 109 108 110
f 108 111 110
f 110 111 112
f 112 111 113
f 111 114 113
f 113 114 115
f 115 114 116
f 114 117 116
f 116 117 118
f 118 117 119
f 117 120 119
f 119 120 121
f 121 120 122
f 120 123 122
f 122 123 124

