# https://github.com/mikedh/trimesh
v 0.01166329 -0.07394732 0.01005561
v 0.00367527 -0.07265355 0.08058133
v 0.00341300 -0.07232650 0.08054564
v 0.01201742 -0.07438849 0.01667206
v 0.00476340 -0.07321360 0.08071486
v 0.00437234 -0.07310818 0.08066862
v 0.01276807 -0.07451007 0.01004718
v 0.01237152 -0.07440377 0.01004439
v 0.01225858 -0.07435685 0.01004386
v 0.00437195 -0.07310797 0.08066858
v 0.01199383 -0.07421276 0.01004440
v 0.00399983 -0.07291800 0.08062294
v 0.00399958 -0.07291780 0.08062291
v 0.00322465 -0.07195135 0.08051741
v 0.01119365 -0.07324205 0.01015968
v 0.00341296 -0.07232640 0.08054561
v 0.01134915 -0.07353589 0.01010510
v 0.01139312 -0.07361901 0.01008966
v 0.01718466 -0.07522541 0.01008573
v 0.01635571 -0.07509115 0.01670995
v 0.00872746 -0.07385563 0.07614731
v 0.00868507 -0.07384877 0.07640986
v 0.00817473 -0.07376612 0.07808120
v 0.00480377 -0.07322013 0.08098957
v 0.00478067 -0.07321640 0.08091021
v 0.00550238 -0.07333329 0.08126144
v 0.01302865 -0.07455228 0.04462870
v 0.01237901 -0.07444706 0.04953564
v 0.01020916 -0.07409562 0.06592518
v 0.00994644 -0.07405307 0.06790956
v 0.00737589 -0.07363673 0.07954918
v 0.00708409 -0.07358947 0.07987018
v 0.00475995 -0.07321305 0.08077594
v 0.00639336 -0.07347760 0.08063008
v 0.00476024 -0.07321309 0.08077996
v 0.00476609 -0.07321405 0.08086013
v 0.00912705 -0.07392036 0.07367202
v 0.00905631 -0.07390890 0.07411021
v 0.00556113 -0.07334282 0.08123550
v 0.00536573 -0.07331115 0.08130642
v 0.00524842 -0.07329216 0.08130862
v 0.00500468 -0.07325268 0.08122351
v 0.00492250 -0.07323938 0.08116285
v 0.00487107 -0.07323104 0.08110489
v 0.00482874 -0.07322419 0.08103238
v 0.00543341 -0.07332212 0.08129188
v 0.00523321 -0.07328969 0.08130890
v 0.00512051 -0.07327144 0.08128429
v 0.00503612 -0.07325777 0.08124672
v 0.01737795 -0.07498198 0.01682278
v 0.01757366 -0.07489888 0.01684325
v 0.01366618 -0.07423330 0.04969682
v 0.00621451 -0.07305478 0.08223297
v 0.00614906 -0.07312935 0.08214524
v 0.00791107 -0.07345198 0.08053654
v 0.01687298 -0.07509929 0.01676820
v 0.01712213 -0.07504853 0.01679526
v 0.01317127 -0.07442337 0.04963713
v 0.01712778 -0.07504738 0.01679587
v 0.01731264 -0.07500970 0.01681595
v 0.01342500 -0.07434504 0.04966813
v 0.01073041 -0.07411338 0.06599762
v 0.00753661 -0.07286374 0.08184199
v 0.00763580 -0.07266579 0.08191645
v 0.00660116 -0.07249823 0.08272043
v 0.00802167 -0.07272831 0.08161660
v 0.00919649 -0.07291858 0.08015467
v 0.00854029 -0.07281229 0.08097123
v 0.00844230 -0.07301043 0.08091591
v 0.01450187 -0.07377787 0.04774219
v 0.01425862 -0.07373846 0.04976270
v 0.01388861 -0.07409160 0.04972247
v 0.01012791 -0.07306942 0.07812291
v 0.00973129 -0.07321920 0.07874132
v 0.01054719 -0.07313734 0.07649196
v 0.01040540 -0.07332840 0.07647094
v 0.01065508 -0.07315481 0.07607226
v 0.01007965 -0.07306161 0.07831060
v 0.00985604 -0.07302539 0.07877749
v 0.00917674 -0.07312939 0.07986310
v 0.00930711 -0.07293650 0.07992369
v 0.00929382 -0.07293434 0.07995144
v 0.00811118 -0.07274279 0.08150521
v 0.01020881 -0.07349559 0.07643644
v 0.00954435 -0.07338797 0.07867527
v 0.00828150 -0.07318345 0.08080635
v 0.01216617 -0.07339956 0.06551139
v 0.01207250 -0.07338440 0.06616696
v 0.01170598 -0.07373809 0.06612419
v 0.01199134 -0.07337124 0.06673503
v 0.01054829 -0.07355059 0.07431137
v 0.01090293 -0.07319497 0.07435295
v 0.01066004 -0.07315561 0.07605301
v 0.00649183 -0.07268657 0.08259085
v 0.00641970 -0.07281083 0.08250535
v 0.00640227 -0.07284085 0.08248471
v 0.00739580 -0.07303998 0.08171203
v 0.00957295 -0.07392591 0.07418319
v 0.00924308 -0.07387249 0.07625226
v 0.00750675 -0.07359127 0.08022152
v 0.00863009 -0.07377320 0.07832267
v 0.00599983 -0.07324050 0.08192949
v 0.00583027 -0.07330678 0.08166839
v 0.00771049 -0.07353892 0.08038264
v 0.00887227 -0.07372709 0.07841983
v 0.00949945 -0.07382867 0.07630301
v 0.00983196 -0.07388253 0.07421852
v 0.01686411 -0.07510109 0.01676723
v 0.01291187 -0.07446670 0.04960467
v 0.01098948 -0.07407000 0.06603250
v 0.01124290 -0.07399161 0.06606581
v 0.01008532 -0.07380413 0.07425223
v 0.01761308 -0.07487220 0.01684719
v 0.01782889 -0.07472619 0.01686878
v 0.01783640 -0.07472111 0.01686953
v 0.01797444 -0.07462771 0.01688333
v 0.01821570 -0.07437941 0.01689407
v 0.00577411 -0.07332875 0.08158191
v 0.00574119 -0.07334162 0.08153122
v 0.00624568 -0.07301926 0.08227475
v 0.00810306 -0.07333229 0.08067898
v 0.00933553 -0.07353189 0.07859848
v 0.00910956 -0.07364608 0.07851262
v 0.00998878 -0.07363771 0.07639632
v 0.00975028 -0.07374987 0.07635147
v 0.01032617 -0.07369234 0.07428344
v 0.01148380 -0.07387983 0.06609662
v 0.01661510 -0.07510266 0.01673929
v 0.01681334 -0.07511145 0.01676172
v 0.00637653 -0.07287017 0.08245018
v 0.01838831 -0.07499826 0.01011870
v 0.01856108 -0.07489306 0.01013529
v 0.01857069 -0.07488570 0.01013665
v 0.01859853 -0.07486436 0.01014058
v 0.01833467 -0.07503093 0.01011354
v 0.01816497 -0.07510981 0.01010377
v 0.01815585 -0.07511406 0.01010324
v 0.01792486 -0.07517907 0.01009713
v 0.01770952 -0.07523970 0.01009143
v 0.01712213 -0.07504853 0.01679526
v 0.01768333 -0.07524235 0.01009109
v 0.01756889 -0.07525397 0.01008961
v 0.01743416 -0.07524395 0.01008825
v 0.01866448 -0.07481382 0.01014990
v 0.01894534 -0.07451462 0.01022134
v 0.01858234 -0.07444713 0.01355202
v 0.00436590 -0.07310704 0.08078305
v 0.00399096 -0.07291643 0.08078608
v 0.00341300 -0.07232650 0.08054563
v 0.00367527 -0.07265355 0.08058133
v 0.00366417 -0.07265161 0.08078882
v 0.00340000 -0.07232431 0.08079119
v 0.00620570 -0.07277874 0.08262178
v 0.00636232 -0.07245955 0.08284633
v 0.00603508 -0.07303563 0.08233574
v 0.00567378 -0.07331887 0.08163639
v 0.00522442 -0.07324611 0.08171505
v 0.00545394 -0.07328328 0.08170407
v 0.00543341 -0.07332212 0.08129188
v 0.00499925 -0.07320962 0.08166870
v 0.00479219 -0.07317609 0.08156779
v 0.00461587 -0.07314753 0.08141854
v 0.00448106 -0.07312569 0.08123005
v 0.00439601 -0.07311193 0.08101381
v 0.00635943 -0.07245906 0.08284784
v 0.00583279 -0.07237378 0.08300995
v 0.00573408 -0.07270235 0.08276696
v 0.00583005 -0.07237333 0.08301081
v 0.00527987 -0.07228422 0.08303714
v 0.00524172 -0.07262260 0.08279053
v 0.00527739 -0.07228382 0.08303725
v 0.00473726 -0.07219635 0.08292602
v 0.00475868 -0.07254438 0.08269107
v 0.00473520 -0.07219600 0.08292560
v 0.00423815 -0.07211551 0.08268341
v 0.00431448 -0.07247242 0.08247464
v 0.00423660 -0.07211525 0.08268267
v 0.00381306 -0.07204666 0.08232415
v 0.00393624 -0.07241117 0.08215445
v 0.00381203 -0.07204647 0.08232328
v 0.00348800 -0.07199399 0.08187017
v 0.00364706 -0.07236433 0.08175008
v 0.00348744 -0.07199392 0.08186938
v 0.00328284 -0.07196077 0.08134925
v 0.00346460 -0.07233477 0.08128622
v 0.00321012 -0.07194899 0.08079306
v 0.00321015 -0.07194899 0.08079325
v 0.00328263 -0.07196074 0.08134871
v 0.00371876 -0.07266047 0.08120713
v 0.00387294 -0.07268544 0.08159912
v 0.00411731 -0.07272502 0.08194082
v 0.00443694 -0.07277678 0.08221138
v 0.00481231 -0.07283757 0.08239428
v 0.00522048 -0.07290368 0.08247834
v 0.00563655 -0.07297107 0.08245842
v 0.00403387 -0.07292338 0.08111499
v 0.00415511 -0.07294303 0.08142318
v 0.00434725 -0.07297413 0.08169185
v 0.00459856 -0.07301484 0.08190458
v 0.00489370 -0.07306264 0.08204840
v 0.00521463 -0.07311462 0.08211448
v 0.00554177 -0.07316761 0.08209881
v 0.00585512 -0.07321836 0.08200238
v 0.02072650 -0.07174694 0.01411181
v 0.02074370 -0.07175396 0.01392896
v 0.02075471 -0.07176841 0.01374699
v 0.01896748 -0.07448594 0.01023241
v 0.01929607 -0.07406009 0.01039676
v 0.01938005 -0.07395127 0.01043876
v 0.01952666 -0.07375671 0.01054182
v 0.01960088 -0.07365448 0.01061841
v 0.01987770 -0.07327321 0.01090404
v 0.02005868 -0.07302392 0.01109078
v 0.02014181 -0.07290355 0.01121497
v 0.02019804 -0.07282210 0.01129898
v 0.02034546 -0.07259405 0.01161435
v 0.02052863 -0.07231070 0.01200617
v 0.02058470 -0.07220459 0.01225264
v 0.02064289 -0.07209444 0.01250846
v 0.02071171 -0.07196419 0.01281099
v 0.02072929 -0.07190970 0.01302693
v 0.02075826 -0.07181984 0.01338293
v 0.02075828 -0.07181945 0.01338568
v 0.01705295 -0.07115194 0.04512471
v 0.01667751 -0.07109114 0.04796405
v 0.01580323 -0.07094954 0.05457600
v 0.01416357 -0.07068396 0.06697628
v 0.01404901 -0.07066542 0.06784267
v 0.01305885 -0.07050505 0.07477201
v 0.01287985 -0.07047606 0.07602468
v 0.01280715 -0.07046428 0.07638009
v 0.01185350 -0.07030983 0.07968740
v 0.01207578 -0.07034582 0.07914750
v 0.01222198 -0.07036950 0.07868082
v 0.01012791 -0.07306942 0.07812291
v 0.01255197 -0.07042295 0.07762751
v 0.01262286 -0.07043442 0.07728096
v 0.01016445 -0.07003625 0.08236238
v 0.00811118 -0.07274279 0.08150521
v 0.00980173 -0.06997750 0.08272326
v 0.01183381 -0.07030664 0.07973523
v 0.01156639 -0.07026332 0.08029590
v 0.01126564 -0.07021461 0.08084294
v 0.00929382 -0.07293434 0.07995144
v 0.01126065 -0.07021379 0.08085083
v 0.01092859 -0.07016002 0.08137580
v 0.01056114 -0.07010051 0.08185022
v 0.00796218 -0.06967956 0.08420450
v 0.00864697 -0.06979049 0.08374731
v 0.00763580 -0.07266579 0.08191645
v 0.00879431 -0.06981434 0.08362950
v 0.00928629 -0.06989402 0.08323611
v 0.00198005 -0.06871067 0.08080648
v 0.00200567 -0.06871482 0.08031997
v 0.00660583 -0.06945988 0.08471667
v 0.00708164 -0.06953695 0.08460158
v 0.00753975 -0.06961114 0.08442778
v 0.00563049 -0.06930191 0.08476455
v 0.00467337 -0.06914689 0.08456850
v 0.00379301 -0.06900431 0.08414051
v 0.00304326 -0.06888288 0.08350673
v 0.00246996 -0.06879003 0.08270595
v 0.00210818 -0.06873143 0.08178714
v 0.00217369 -0.06874203 0.07883652
v 0.00385413 -0.06901420 0.06400000
v 0.00690093 -0.06950769 0.03710000
v 0.00747858 -0.06960123 0.03200000
v 0.00951575 -0.06993119 0.01401398
v 0.00507172 -0.06921141 0.05325000
v 0.00626099 -0.06940403 0.04275000
v 0.00645920 -0.06943615 0.04100000
v 0.00960763 -0.06999662 0.01338502
v 0.00970600 -0.07012082 0.01290698
v 0.01089025 -0.07251509 0.01039397
v 0.00982638 -0.07030719 0.01244590
v 0.01048753 -0.07160537 0.01090412
v 0.01012567 -0.07085438 0.01160205
v 0.01201742 0.07438849 0.01667206
v 0.01276728 0.07450994 0.01005416
v 0.01237344 0.07439440 0.01005145
v 0.01119287 0.07324192 0.01016654
v 0.00322466 0.07195135 0.08051741
v 0.01134534 0.07354492 0.01010754
v 0.00341296 0.07232640 0.08054561
v 0.01139922 0.07361326 0.01009988
v 0.00341301 0.07232650 0.08054564
v 0.00367527 0.07265354 0.08058133
v 0.01166251 0.07394719 0.01006247
v 0.01199306 0.07421263 0.01005126
v 0.00399959 0.07291780 0.08062291
v 0.00399984 0.07291800 0.08062294
v 0.01228294 0.07436785 0.01005083
v 0.00437196 0.07310797 0.08066858
v 0.00437234 0.07310818 0.08066862
v 0.00476340 0.07321360 0.08071486
v 0.00707785 0.07358847 0.07986795
v 0.00759296 0.07367189 0.07922667
v 0.00812590 0.07375820 0.07811100
v 0.00831196 0.07378834 0.07772149
v 0.00871581 0.07385376 0.07614299
v 0.00881767 0.07387024 0.07574479
v 0.00905114 0.07390805 0.07410962
v 0.01021947 0.07409729 0.06592655
v 0.00667206 0.07352273 0.08037311
v 0.00475996 0.07321305 0.08077594
v 0.00476025 0.07321309 0.08077996
v 0.01031294 0.07411242 0.06527191
v 0.01240329 0.07445098 0.04953894
v 0.01635571 0.07509114 0.01670995
v 0.01718379 0.07522528 0.01009270
v 0.00476610 0.07321405 0.08086013
v 0.00478068 0.07321640 0.08091021
v 0.00556113 0.07334281 0.08123550
v 0.00550238 0.07333329 0.08126144
v 0.00480377 0.07322013 0.08098957
v 0.00482875 0.07322419 0.08103238
v 0.00487107 0.07323104 0.08110489
v 0.00500469 0.07325268 0.08122351
v 0.00503613 0.07325777 0.08124672
v 0.00512051 0.07327144 0.08128429
v 0.00523321 0.07328969 0.08130890
v 0.00524842 0.07329216 0.08130862
v 0.00536574 0.07331115 0.08130642
v 0.00492251 0.07323938 0.08116285
v 0.00543342 0.07332212 0.08129188
v 0.00577482 0.07332006 0.08158094
v 0.00583078 0.07330744 0.08166962
v 0.00750675 0.07359127 0.08022152
v 0.00590533 0.07329062 0.08178775
v 0.00597033 0.07324663 0.08188290
v 0.00771049 0.07353892 0.08038264
v 0.01098948 0.07407000 0.06603250
v 0.01073041 0.07411338 0.06599762
v 0.00957296 0.07392591 0.07418319
v 0.00599694 0.07322863 0.08192186
v 0.00616525 0.07311471 0.08216825
v 0.00791107 0.07345198 0.08053654
v 0.01821570 0.07437940 0.01689407
v 0.01805180 0.07455958 0.01686789
v 0.01449038 0.07377600 0.04774420
v 0.01388861 0.07409159 0.04972247
v 0.00966751 0.07299486 0.07930014
v 0.00984126 0.07302301 0.07877800
v 0.00973129 0.07321920 0.07874132
v 0.01006645 0.07305947 0.07810126
v 0.01053312 0.07313507 0.07669884
v 0.01040540 0.07332840 0.07647094
v 0.01056480 0.07314019 0.07649766
v 0.01063220 0.07315111 0.07606952
v 0.01090250 0.07319490 0.07435266
v 0.01054829 0.07355059 0.07431137
v 0.01020881 0.07349559 0.07643644
v 0.00954435 0.07338797 0.07867527
v 0.00928547 0.07293299 0.07990615
v 0.00917675 0.07312939 0.07986310
v 0.00926885 0.07293029 0.07993252
v 0.00844231 0.07301043 0.08091591
v 0.00862406 0.07282586 0.08095533
v 0.00642001 0.07281163 0.08250627
v 0.00649201 0.07268708 0.08259138
v 0.00753661 0.07286374 0.08184199
v 0.00660117 0.07249823 0.08272043
v 0.00730348 0.07261197 0.08224052
v 0.00763290 0.07266532 0.08191993
v 0.00808744 0.07273894 0.08147757
v 0.01106126 0.07322060 0.07334424
v 0.01167098 0.07331935 0.06906499
v 0.01170598 0.07373809 0.06612419
v 0.01199466 0.07337178 0.06673716
v 0.01207391 0.07338462 0.06616717
v 0.01226299 0.07341524 0.06480728
v 0.01336174 0.07359320 0.05663718
v 0.01407146 0.07370814 0.05121336
v 0.01424681 0.07373654 0.04976123
v 0.01148380 0.07387983 0.06609662
v 0.01032617 0.07369234 0.07428344
v 0.00998879 0.07363771 0.07639632
v 0.00933553 0.07353189 0.07859848
v 0.00828151 0.07318344 0.08080635
v 0.00810306 0.07333229 0.08067898
v 0.00739580 0.07303998 0.08171203
v 0.00624590 0.07302098 0.08227584
v 0.00637623 0.07286949 0.08244973
v 0.00640773 0.07283290 0.08249173
v 0.01342500 0.07434503 0.04966813
v 0.01317127 0.07442337 0.04963713
v 0.00887227 0.07372709 0.07841983
v 0.00910956 0.07364608 0.07851262
v 0.00949945 0.07382867 0.07630301
v 0.00975028 0.07374987 0.07635147
v 0.00983197 0.07388253 0.07421852
v 0.01008532 0.07380413 0.07425223
v 0.01124290 0.07399161 0.06606581
v 0.00863009 0.07377320 0.07832267
v 0.00924309 0.07387249 0.07625226
v 0.01291187 0.07446670 0.04960467
v 0.01712917 0.07504946 0.01678827
v 0.01728454 0.07501967 0.01680282
v 0.01737761 0.07497854 0.01681081
v 0.01783681 0.07472055 0.01684987
v 0.01782973 0.07472584 0.01684928
v 0.01366618 0.07423330 0.04969682
v 0.00564375 0.07334964 0.08137323
v 0.01661528 0.07510350 0.01673770
v 0.01712340 0.07505057 0.01678773
v 0.01687333 0.07509854 0.01676432
v 0.01686436 0.07510025 0.01676349
v 0.01680122 0.07511236 0.01675757
v 0.01765731 0.07485495 0.01683483
v 0.01762110 0.07487094 0.01683172
v 0.01761617 0.07487313 0.01683129
v 0.01743336 0.07524218 0.01009521
v 0.01758788 0.07525263 0.01009677
v 0.01768259 0.07524312 0.01009794
v 0.01768530 0.07524285 0.01009798
v 0.01712340 0.07505057 0.01678773
v 0.01792681 0.07518772 0.01010281
v 0.01799580 0.07517197 0.01010419
v 0.01814528 0.07511792 0.01010966
v 0.01816328 0.07510815 0.01011107
v 0.01838267 0.07498922 0.01012825
v 0.01856027 0.07489295 0.01014215
v 0.01856365 0.07488994 0.01014277
v 0.01859523 0.07486178 0.01014859
v 0.01883470 0.07464827 0.01019275
v 0.01894459 0.07451449 0.01022820
v 0.00567379 0.07331887 0.08163639
v 0.00597033 0.07324663 0.08188290
v 0.00585513 0.07321836 0.08200238
v 0.00603509 0.07303562 0.08233574
v 0.00620570 0.07277874 0.08262178
v 0.00635984 0.07245913 0.08284764
v 0.00340001 0.07232431 0.08079119
v 0.00399096 0.07291643 0.08078608
v 0.00367527 0.07265354 0.08058133
v 0.00436590 0.07310704 0.08078305
v 0.00439601 0.07311193 0.08101381
v 0.00448107 0.07312569 0.08123005
v 0.00479219 0.07317609 0.08156779
v 0.00461587 0.07314753 0.08141854
v 0.00499926 0.07320962 0.08166870
v 0.00522443 0.07324610 0.08171505
v 0.00545394 0.07328328 0.08170407
v 0.00543342 0.07332212 0.08129188
v 0.00321013 0.07194899 0.08079306
v 0.00321013 0.07194899 0.08079309
v 0.00346460 0.07233477 0.08128622
v 0.00328264 0.07196073 0.08134871
v 0.00328267 0.07196074 0.08134880
v 0.00364706 0.07236433 0.08175008
v 0.00348744 0.07199392 0.08186938
v 0.00348752 0.07199392 0.08186950
v 0.00393625 0.07241117 0.08215445
v 0.00381204 0.07204647 0.08232328
v 0.00381219 0.07204650 0.08232339
v 0.00431449 0.07247242 0.08247464
v 0.00423661 0.07211525 0.08268267
v 0.00423682 0.07211528 0.08268277
v 0.00475869 0.07254438 0.08269107
v 0.00473521 0.07219600 0.08292560
v 0.00473550 0.07219606 0.08292566
v 0.00524172 0.07262260 0.08279053
v 0.00527740 0.07228382 0.08303725
v 0.00527774 0.07228389 0.08303724
v 0.00573408 0.07270235 0.08276696
v 0.00583006 0.07237332 0.08301081
v 0.00583044 0.07237339 0.08301069
v 0.00635943 0.07245906 0.08284784
v 0.00563655 0.07297107 0.08245842
v 0.00522049 0.07290368 0.08247834
v 0.00481231 0.07283757 0.08239428
v 0.00443695 0.07277677 0.08221138
v 0.00411732 0.07272502 0.08194082
v 0.00387295 0.07268544 0.08159912
v 0.00371877 0.07266046 0.08120713
v 0.00366418 0.07265161 0.08078882
v 0.00341301 0.07232650 0.08054563
v 0.00554177 0.07316761 0.08209881
v 0.00521464 0.07311462 0.08211448
v 0.00489370 0.07306264 0.08204840
v 0.00459856 0.07301484 0.08190458
v 0.00434725 0.07297413 0.08169185
v 0.00415511 0.07294303 0.08142318
v 0.00403388 0.07292338 0.08111499
v 0.01896277 0.07449073 0.01023865
v 0.00796111 0.06967939 0.08420527
v 0.00882219 0.06981887 0.08354895
v 0.00956531 0.06993921 0.08298256
v 0.00808744 0.07273894 0.08147757
v 0.00978693 0.06997512 0.08271355
v 0.01058187 0.07010385 0.08174868
v 0.01108413 0.07018521 0.08113904
v 0.00926885 0.07293029 0.07993252
v 0.01123158 0.07020909 0.08083678
v 0.01184916 0.07030912 0.07957083
v 0.01414243 0.07068054 0.06697487
v 0.01307793 0.07050814 0.07466928
v 0.01298881 0.07049370 0.07531346
v 0.01274495 0.07045420 0.07636586
v 0.01256338 0.07042479 0.07714949
v 0.01220876 0.07036737 0.07867990
v 0.01006645 0.07305947 0.07810126
v 0.01214089 0.07035636 0.07897280
v 0.00984126 0.07302301 0.07877800
v 0.01449038 0.07377600 0.04774420
v 0.01662893 0.07108327 0.04796148
v 0.01581992 0.07095224 0.05451074
v 0.01542899 0.07088893 0.05767549
v 0.01336174 0.07359320 0.05663718
v 0.01984944 0.07160488 0.02189030
v 0.02072574 0.07174681 0.01411867
v 0.02075397 0.07176834 0.01375342
v 0.02075879 0.07179017 0.01357244
v 0.02075752 0.07181932 0.01339254
v 0.02075750 0.07181974 0.01338969
v 0.02071968 0.07191973 0.01303794
v 0.02066843 0.07205520 0.01256136
v 0.02065447 0.07208057 0.01250689
v 0.02052781 0.07231066 0.01201287
v 0.02049551 0.07236383 0.01192287
v 0.02034510 0.07259359 0.01162022
v 0.02015721 0.07288059 0.01124218
v 0.01988060 0.07327090 0.01089599
v 0.01978552 0.07340506 0.01077699
v 0.01958992 0.07367079 0.01059918
v 0.01928564 0.07406861 0.01042426
v 0.00198005 0.06871067 0.08080619
v 0.00210797 0.06873140 0.08178628
v 0.00200568 0.06871482 0.08031997
v 0.00246927 0.06878990 0.08270465
v 0.00304187 0.06888266 0.08350521
v 0.00379081 0.06900396 0.08413906
v 0.00467033 0.06914640 0.08456747
v 0.00562671 0.06930130 0.08476426
v 0.00660152 0.06945919 0.08471743
v 0.00753522 0.06961042 0.08442984
v 0.00961293 0.07000304 0.01335836
v 0.00951498 0.06993106 0.01402084
v 0.00793923 0.06967585 0.02793303
v 0.00786849 0.06966439 0.02855759
v 0.00759190 0.06961959 0.03099956
v 0.00616948 0.06938920 0.04355803
v 0.00539736 0.06926416 0.05037500
v 0.00971234 0.07013084 0.01288353
v 0.01089581 0.07252980 0.01039467
v 0.00983344 0.07032007 0.01242596
v 0.01049452 0.07162213 0.01089875
v 0.01013325 0.07087068 0.01158952
f 1 2 3
f 4 5 6
f 7 4 8
f 4 6 8
f 8 6 9
f 6 10 9
f 9 10 11
f 10 12 11
f 11 12 1
f 12 13 1
f 1 13 2
f 14 15 16
f 15 17 16
f 16 17 3
f 17 18 3
f 3 18 1
f 7 19 4
f 19 20 4
f 21 22 5
f 22 23 5
f 24 25 26
f 20 27 4
f 27 28 4
f 4 28 5
f 28 29 5
f 5 29 30
f 23 31 5
f 31 32 5
f 5 32 33
f 32 34 33
f 33 34 35
f 34 36 35
f 30 37 5
f 37 38 5
f 5 38 21
f 36 34 25
f 34 39 25
f 25 39 26
f 40 41 42
f 43 44 26
f 44 45 26
f 26 45 24
f 43 26 42
f 26 46 42
f 42 46 40
f 41 47 42
f 47 48 42
f 42 48 49
f 50 51 52
f 53 54 55
f 56 57 58
f 59 60 61
f 62 29 28
f 63 64 65
f 64 63 66
f 67 68 69
f 70 71 72
f 73 74 75
f 74 76 75
f 75 76 77
f 73 78 74
f 78 79 74
f 74 79 80
f 79 81 80
f 80 81 82
f 69 68 63
f 68 83 63
f 63 83 66
f 77 76 84
f 76 74 84
f 84 74 85
f 74 80 85
f 85 80 86
f 87 88 89
f 88 90 89
f 89 90 91
f 90 92 91
f 91 92 84
f 92 93 84
f 84 93 77
f 65 94 63
f 94 95 63
f 63 95 96
f 82 67 80
f 67 69 80
f 80 69 86
f 69 63 86
f 86 63 97
f 63 96 97
f 98 99 21
f 34 32 100
f 32 31 100
f 100 31 101
f 31 23 101
f 101 23 99
f 23 22 99
f 99 22 21
f 21 38 98
f 38 37 98
f 98 37 30
f 102 103 104
f 103 100 104
f 104 100 105
f 100 101 105
f 105 101 106
f 101 99 106
f 106 99 107
f 99 98 107
f 107 98 62
f 98 30 62
f 62 30 29
f 108 56 109
f 56 58 109
f 109 58 110
f 58 111 110
f 110 111 112
f 113 114 72
f 114 115 72
f 72 115 70
f 115 116 70
f 70 116 117
f 51 113 52
f 113 72 52
f 52 72 89
f 72 71 89
f 89 71 87
f 103 118 100
f 118 119 100
f 100 119 34
f 119 39 34
f 120 53 121
f 53 55 121
f 121 55 122
f 55 123 122
f 122 123 124
f 123 125 124
f 124 125 126
f 125 112 126
f 126 112 127
f 112 111 127
f 127 111 61
f 111 58 61
f 61 58 59
f 58 57 59
f 54 102 55
f 102 104 55
f 55 104 123
f 104 105 123
f 123 105 125
f 105 106 125
f 125 106 112
f 106 107 112
f 112 107 110
f 107 62 110
f 110 62 109
f 62 28 109
f 109 28 27
f 27 20 128
f 27 128 109
f 128 129 109
f 109 129 108
f 60 50 61
f 50 52 61
f 61 52 127
f 52 89 127
f 127 89 126
f 89 91 126
f 126 91 124
f 91 84 124
f 124 84 122
f 84 85 122
f 122 85 121
f 85 86 121
f 121 86 120
f 86 97 120
f 120 97 130
f 97 96 130
f 131 132 113
f 132 133 113
f 113 133 114
f 133 134 114
f 114 134 115
f 131 113 135
f 113 51 135
f 135 51 136
f 51 50 136
f 136 50 137
f 50 60 137
f 137 60 138
f 60 59 138
f 138 59 139
f 59 140 139
f 139 140 141
f 140 56 141
f 56 108 141
f 141 108 142
f 108 129 142
f 142 129 143
f 129 128 143
f 128 20 143
f 143 20 19
f 144 145 146
f 134 144 115
f 144 146 115
f 115 146 116
f 146 117 116
f 6 5 33
f 12 10 147
f 10 6 147
f 148 13 12
f 149 150 151
f 150 13 151
f 152 16 149
f 94 65 153
f 65 154 153
f 54 53 155
f 53 120 155
f 130 96 153
f 96 95 153
f 153 95 94
f 119 118 156
f 118 103 156
f 47 41 157
f 41 40 157
f 157 40 158
f 40 159 158
f 158 159 156
f 159 26 156
f 156 26 119
f 26 39 119
f 47 157 48
f 157 160 48
f 48 160 49
f 160 161 49
f 49 161 42
f 161 162 42
f 42 162 43
f 163 164 25
f 25 24 163
f 24 45 163
f 163 45 162
f 45 44 162
f 162 44 43
f 6 33 147
f 33 35 147
f 147 35 164
f 35 36 164
f 164 36 25
f 154 165 153
f 165 166 153
f 153 166 167
f 166 168 167
f 168 169 167
f 167 169 170
f 169 171 170
f 171 172 170
f 170 172 173
f 172 174 173
f 174 175 173
f 173 175 176
f 175 177 176
f 177 178 176
f 176 178 179
f 178 180 179
f 180 181 179
f 179 181 182
f 181 183 182
f 183 184 182
f 182 184 185
f 14 16 186
f 16 152 186
f 186 152 187
f 152 185 187
f 187 185 188
f 185 184 188
f 149 151 152
f 151 189 152
f 152 189 185
f 189 190 185
f 185 190 182
f 190 191 182
f 182 191 179
f 191 192 179
f 179 192 176
f 192 193 176
f 176 193 173
f 193 194 173
f 173 194 170
f 194 195 170
f 170 195 167
f 195 155 167
f 167 155 153
f 155 120 153
f 153 120 130
f 13 148 151
f 148 196 151
f 151 196 189
f 196 197 189
f 189 197 190
f 197 198 190
f 190 198 191
f 198 199 191
f 191 199 192
f 199 200 192
f 192 200 193
f 200 201 193
f 193 201 194
f 201 202 194
f 194 202 195
f 202 203 195
f 195 203 155
f 203 102 155
f 155 102 54
f 12 147 148
f 147 164 148
f 148 164 196
f 164 163 196
f 196 163 197
f 163 162 197
f 197 162 198
f 162 161 198
f 198 161 199
f 161 160 199
f 199 160 200
f 160 157 200
f 200 157 201
f 157 158 201
f 201 158 202
f 158 156 202
f 202 156 203
f 156 103 203
f 203 103 102
f 70 117 204
f 204 117 205
f 117 146 205
f 205 146 206
f 145 207 146
f 207 208 146
f 146 208 209
f 209 210 146
f 210 211 146
f 146 211 212
f 212 213 146
f 213 214 146
f 146 214 215
f 215 216 146
f 216 217 146
f 146 217 218
f 218 219 146
f 219 220 146
f 146 220 221
f 221 222 146
f 222 223 146
f 146 223 206
f 204 224 70
f 224 225 70
f 70 225 71
f 225 226 71
f 71 226 87
f 226 227 87
f 87 227 88
f 88 227 90
f 227 228 90
f 90 228 92
f 228 229 92
f 229 230 92
f 92 230 93
f 230 231 93
f 93 231 77
f 231 75 77
f 232 79 233
f 79 78 233
f 233 78 234
f 78 235 234
f 234 235 236
f 235 75 236
f 236 75 237
f 75 231 237
f 68 238 239
f 238 240 239
f 239 240 66
f 232 241 79
f 241 242 79
f 79 242 81
f 242 243 81
f 81 243 244
f 243 245 244
f 244 245 67
f 245 246 67
f 67 246 68
f 246 247 68
f 68 247 238
f 248 65 249
f 65 250 249
f 249 250 251
f 66 240 250
f 240 252 250
f 250 252 251
f 253 254 14
f 255 166 256
f 166 165 256
f 256 165 257
f 165 154 257
f 257 154 248
f 154 65 248
f 258 259 172
f 172 171 258
f 171 169 258
f 258 169 255
f 169 168 255
f 255 168 166
f 260 261 178
f 178 177 260
f 177 175 260
f 260 175 259
f 175 174 259
f 259 174 172
f 262 263 184
f 184 183 262
f 183 181 262
f 262 181 261
f 181 180 261
f 261 180 178
f 14 186 253
f 186 187 253
f 253 187 263
f 187 188 263
f 263 188 184
f 254 264 14
f 264 265 14
f 266 267 15
f 267 268 15
f 265 269 14
f 269 270 14
f 14 270 15
f 270 271 15
f 15 271 266
f 268 272 15
f 272 273 15
f 15 273 274
f 273 275 274
f 274 275 276
f 275 277 276
f 278 279 280
f 281 282 283
f 282 284 283
f 283 284 285
f 284 286 285
f 286 287 285
f 285 287 288
f 287 289 288
f 287 290 289
f 290 291 289
f 289 291 292
f 291 293 292
f 292 293 280
f 293 294 280
f 280 294 278
f 294 295 278
f 295 296 297
f 297 298 295
f 298 299 295
f 295 299 300
f 300 301 295
f 301 302 295
f 295 302 303
f 296 295 304
f 295 305 304
f 304 305 306
f 303 307 295
f 307 308 295
f 295 308 278
f 308 309 278
f 278 309 279
f 309 310 279
f 306 311 304
f 311 312 304
f 304 312 313
f 312 314 313
f 312 315 314
f 315 316 314
f 314 316 317
f 318 319 320
f 320 321 318
f 321 322 318
f 318 322 323
f 317 324 314
f 324 318 314
f 314 318 325
f 318 323 325
f 326 327 328
f 329 330 331
f 332 333 334
f 335 336 337
f 338 339 340
f 339 341 340
f 342 343 344
f 343 345 344
f 345 346 347
f 346 348 347
f 347 348 349
f 350 351 349
f 351 352 349
f 349 352 347
f 352 353 347
f 342 344 354
f 344 355 354
f 354 355 356
f 355 357 356
f 356 357 358
f 359 360 361
f 360 362 361
f 362 363 361
f 363 364 361
f 361 364 357
f 364 365 357
f 357 365 358
f 350 366 351
f 366 367 351
f 351 367 368
f 367 369 368
f 369 370 368
f 370 371 368
f 368 371 372
f 372 373 341
f 373 374 341
f 341 374 340
f 372 341 368
f 341 375 368
f 368 375 351
f 375 376 351
f 351 376 352
f 376 377 352
f 352 377 353
f 377 378 353
f 353 378 379
f 378 380 379
f 379 380 381
f 380 382 381
f 382 383 381
f 381 383 384
f 345 347 344
f 347 353 344
f 344 353 355
f 353 379 355
f 355 379 357
f 379 381 357
f 357 381 361
f 381 384 361
f 361 384 359
f 385 386 332
f 330 335 331
f 335 337 331
f 331 337 387
f 337 388 387
f 387 388 389
f 388 390 389
f 389 390 391
f 390 392 391
f 391 392 393
f 328 394 298
f 395 300 394
f 300 299 394
f 394 299 298
f 332 386 333
f 386 396 333
f 333 396 308
f 308 307 333
f 307 303 333
f 333 303 334
f 303 302 334
f 334 302 395
f 302 301 395
f 395 301 300
f 397 386 398
f 386 385 398
f 398 385 399
f 400 401 402
f 298 297 328
f 297 296 328
f 328 296 304
f 304 313 328
f 313 403 328
f 328 403 326
f 336 382 337
f 382 380 337
f 337 380 388
f 380 378 388
f 388 378 390
f 378 377 390
f 390 377 392
f 377 376 392
f 392 376 393
f 376 375 393
f 393 375 402
f 375 341 402
f 402 341 400
f 341 339 400
f 404 309 308
f 397 405 386
f 405 406 386
f 386 406 396
f 406 407 396
f 396 407 308
f 407 408 308
f 308 408 404
f 401 409 402
f 409 410 402
f 402 410 411
f 411 399 402
f 399 385 402
f 402 385 393
f 385 332 393
f 393 332 391
f 332 334 391
f 391 334 389
f 334 395 389
f 389 395 387
f 395 394 387
f 387 394 331
f 394 328 331
f 331 328 329
f 328 327 329
f 310 309 404
f 310 404 412
f 404 408 412
f 412 408 413
f 408 407 413
f 413 407 414
f 407 406 414
f 414 406 415
f 406 416 415
f 415 416 417
f 416 397 417
f 397 398 417
f 417 398 418
f 398 399 418
f 418 399 419
f 419 399 420
f 399 411 420
f 420 411 421
f 411 410 421
f 410 409 421
f 421 409 422
f 409 423 422
f 423 409 424
f 409 401 424
f 424 401 425
f 338 426 339
f 426 425 339
f 339 425 400
f 425 401 400
f 327 326 427
f 403 313 314
f 327 427 329
f 335 428 429
f 428 329 429
f 383 382 430
f 382 336 430
f 430 336 335
f 383 431 384
f 431 359 384
f 359 431 360
f 431 432 360
f 360 432 362
f 433 284 282
f 434 290 435
f 436 293 291
f 293 436 294
f 436 305 294
f 294 305 295
f 437 311 436
f 311 306 436
f 436 306 305
f 438 315 437
f 315 312 437
f 437 312 311
f 319 318 439
f 318 324 439
f 439 324 440
f 324 317 440
f 440 317 438
f 317 316 438
f 438 316 315
f 319 439 320
f 439 441 320
f 320 441 321
f 441 442 321
f 321 442 322
f 442 443 322
f 322 443 323
f 326 403 427
f 403 314 427
f 427 314 443
f 314 444 443
f 443 444 323
f 282 445 433
f 445 446 433
f 433 446 447
f 446 448 447
f 448 449 447
f 447 449 450
f 449 451 450
f 451 452 450
f 450 452 453
f 452 454 453
f 454 455 453
f 453 455 456
f 455 457 456
f 457 458 456
f 456 458 459
f 458 460 459
f 460 461 459
f 459 461 462
f 461 463 462
f 463 464 462
f 462 464 465
f 464 466 465
f 466 467 465
f 465 467 431
f 467 468 431
f 431 468 432
f 383 430 431
f 430 469 431
f 431 469 465
f 469 470 465
f 465 470 462
f 470 471 462
f 462 471 459
f 471 472 459
f 459 472 456
f 472 473 456
f 456 473 453
f 473 474 453
f 453 474 450
f 474 475 450
f 450 475 447
f 475 476 447
f 447 476 433
f 476 477 433
f 433 477 284
f 335 429 430
f 429 478 430
f 430 478 469
f 478 479 469
f 469 479 470
f 479 480 470
f 470 480 471
f 480 481 471
f 471 481 472
f 481 482 472
f 472 482 473
f 482 483 473
f 473 483 474
f 483 484 474
f 474 484 475
f 484 434 475
f 475 434 476
f 434 435 476
f 476 435 477
f 329 427 429
f 427 443 429
f 429 443 478
f 443 442 478
f 478 442 479
f 442 441 479
f 479 441 480
f 441 439 480
f 480 439 481
f 439 440 481
f 481 440 482
f 440 438 482
f 482 438 483
f 438 437 483
f 483 437 484
f 437 436 484
f 484 436 434
f 436 291 434
f 434 291 290
f 485 426 338
f 362 486 363
f 486 487 363
f 363 487 364
f 487 488 364
f 364 488 489
f 488 490 489
f 489 490 358
f 490 491 358
f 491 492 358
f 358 492 493
f 492 494 493
f 493 494 354
f 494 495 354
f 370 369 496
f 369 367 496
f 496 367 497
f 367 366 497
f 366 350 497
f 497 350 498
f 350 349 498
f 498 349 499
f 349 348 499
f 499 348 500
f 348 346 500
f 500 346 501
f 346 502 501
f 501 502 503
f 502 504 503
f 503 504 495
f 504 342 495
f 495 342 354
f 338 505 506
f 505 374 506
f 506 374 507
f 374 373 507
f 507 373 508
f 373 509 508
f 508 509 496
f 509 371 496
f 496 371 370
f 506 510 338
f 510 511 338
f 338 511 512
f 512 513 338
f 513 514 338
f 338 514 515
f 515 516 338
f 516 517 338
f 338 517 518
f 518 519 338
f 519 520 338
f 338 520 521
f 521 522 338
f 522 523 338
f 338 523 524
f 524 525 338
f 525 526 338
f 338 526 485
f 527 528 449
f 449 448 527
f 448 446 527
f 527 446 529
f 446 445 529
f 529 445 282
f 530 531 455
f 455 454 530
f 454 452 530
f 530 452 528
f 452 451 528
f 528 451 449
f 532 533 461
f 461 460 532
f 460 458 532
f 532 458 531
f 458 457 531
f 531 457 455
f 534 535 467
f 467 466 534
f 466 464 534
f 534 464 533
f 464 463 533
f 533 463 461
f 486 362 536
f 362 432 536
f 536 432 535
f 432 468 535
f 535 468 467
f 537 538 281
f 538 539 281
f 281 539 540
f 540 541 281
f 541 542 281
f 281 542 282
f 542 543 282
f 282 543 529
f 537 281 544
f 281 545 544
f 544 545 546
f 545 547 546
f 546 547 548

