# https://github.com/mikedh/trimesh
v 0.08924141 0.07745291 -0.01063056
v 0.08921049 0.07731649 -0.00948212
v 0.08922121 0.07728215 -0.00948568
v 0.08931711 0.07742943 -0.01180000
v 0.08927394 0.07756683 -0.01178223
v 0.08930054 0.07734010 -0.01113158
v 0.08928985 0.07728237 -0.01065057
v 0.08926424 0.07714426 -0.00950000
v 0.08851249 0.07823403 -0.01170999
v 0.08848623 0.07809274 -0.01056872
v 0.08860772 0.07805415 -0.01057070
v 0.08878046 0.07798052 -0.01057584
v 0.08865760 0.07818755 -0.01171268
v 0.08863292 0.07819545 -0.01171222
v 0.08903986 0.07794945 -0.01173563
v 0.08896071 0.07802860 -0.01172678
v 0.08893241 0.07787993 -0.01058480
v 0.08879729 0.07812989 -0.01171703
v 0.08875416 0.07815663 -0.01171446
v 0.08911386 0.07787545 -0.01174391
v 0.08904464 0.07777468 -0.01059525
v 0.08913848 0.07783549 -0.01174877
v 0.08915752 0.07762431 -0.01061127
v 0.08926320 0.07760105 -0.01177780
v 0.08924270 0.07766632 -0.01176935
v 0.08917878 0.07777006 -0.01175673
v 0.08845997 0.07795145 -0.00942749
v 0.08858043 0.07791281 -0.00942929
v 0.08860512 0.07790488 -0.00942965
v 0.08887437 0.07776658 -0.00943938
v 0.08874483 0.07784709 -0.00943316
v 0.08870166 0.07787392 -0.00943109
v 0.08890754 0.07774596 -0.00944098
v 0.08890815 0.07774559 -0.00944101
v 0.08898736 0.07766609 -0.00944815
v 0.08904107 0.07761219 -0.00945299
v 0.08906142 0.07759175 -0.00945483
v 0.08908595 0.07755176 -0.00945873
v 0.08912620 0.07748610 -0.00946515
v 0.08919007 0.07738193 -0.00947532
v 0.08836568 0.07796233 -0.00936958
v 0.08835386 0.07796579 -0.00938074
v 0.08823655 0.07796435 -0.00928294
v 0.08764743 0.07785379 -0.00945483
v 0.08761023 0.07782527 -0.00945873
v 0.08761584 0.07781250 -0.00932795
v 0.08754912 0.07777839 -0.00946515
v 0.08745215 0.07770402 -0.00947532
v 0.08749625 0.07771772 -0.00932326
v 0.08740964 0.07765026 -0.00948212
v 0.08738733 0.07762204 -0.00948568
v 0.08739183 0.07760631 -0.00932327
v 0.08874627 0.07775595 -0.00910437
v 0.08865314 0.07784099 -0.00919022
v 0.08853598 0.07785254 -0.00910098
v 0.08821304 0.07774369 -0.00882543
v 0.08835276 0.07771602 -0.00880998
v 0.08836158 0.07776338 -0.00886912
v 0.08849316 0.07769178 -0.00882553
v 0.08886068 0.07712908 -0.00871179
v 0.08885180 0.07726922 -0.00874054
v 0.08868497 0.07728836 -0.00863718
v 0.08921138 0.07726913 -0.00932380
v 0.08924512 0.07712821 -0.00932840
v 0.08925711 0.07713406 -0.00939910
v 0.08916616 0.07725933 -0.00916447
v 0.08919169 0.07711898 -0.00916086
v 0.08924107 0.07712622 -0.00930449
v 0.08898804 0.07725850 -0.00886787
v 0.08911196 0.07711354 -0.00898375
v 0.08909221 0.07725552 -0.00901095
v 0.08916321 0.07711479 -0.00907800
v 0.08890336 0.07712442 -0.00874034
v 0.08896574 0.07711944 -0.00879800
v 0.08900405 0.07711789 -0.00884666
v 0.08849312 0.07731619 -0.00856950
v 0.08859575 0.07716083 -0.00855965
v 0.08870398 0.07714617 -0.00860700
v 0.08826023 0.07721675 -0.00850478
v 0.08829455 0.07721005 -0.00850188
v 0.08828515 0.07735211 -0.00854647
v 0.08837443 0.07719592 -0.00850774
v 0.08847990 0.07717919 -0.00853248
v 0.08821850 0.07722489 -0.00850831
v 0.08807817 0.07739308 -0.00856934
v 0.08805584 0.07725661 -0.00852205
v 0.08795103 0.07727930 -0.00855067
v 0.08788923 0.07743579 -0.00863683
v 0.08784125 0.07730567 -0.00860345
v 0.08774898 0.07732783 -0.00864782
v 0.08772687 0.07747766 -0.00874004
v 0.08766826 0.07734933 -0.00870514
v 0.08766579 0.07735007 -0.00870761
v 0.08759611 0.07751641 -0.00886737
v 0.08750362 0.07739877 -0.00887097
v 0.08744633 0.07741880 -0.00895346
v 0.08749804 0.07755092 -0.00901048
v 0.08742607 0.07742752 -0.00899705
v 0.08743049 0.07758094 -0.00916372
v 0.08734726 0.07746148 -0.00916662
v 0.08732068 0.07747756 -0.00926425
v 0.08731444 0.07748603 -0.00932836
v 0.08729774 0.07750873 -0.00950000
v 0.08907614 0.07754190 -0.00932837
v 0.08915382 0.07741056 -0.00932375
v 0.08858337 0.07777201 -0.00898035
v 0.08862282 0.07767295 -0.00887127
v 0.08873572 0.07766001 -0.00894121
v 0.08855101 0.07790608 -0.00928303
v 0.08839223 0.07792716 -0.00920985
v 0.08838280 0.07787696 -0.00906616
v 0.08886406 0.07759488 -0.00899312
v 0.08882808 0.07765273 -0.00902753
v 0.08848067 0.07778691 -0.00894412
v 0.08836954 0.07780610 -0.00893180
v 0.08872282 0.07784131 -0.00930629
v 0.08884262 0.07775640 -0.00926481
v 0.08894915 0.07765328 -0.00922912
v 0.08899656 0.07759549 -0.00921375
v 0.08844181 0.07794951 -0.00938097
v 0.08843736 0.07794974 -0.00937575
v 0.08842718 0.07795073 -0.00936786
v 0.08841604 0.07795220 -0.00936259
v 0.08840474 0.07795400 -0.00936003
v 0.08777427 0.07787097 -0.00922861
v 0.08784572 0.07794251 -0.00944100
v 0.08774794 0.07788825 -0.00933723
v 0.08774325 0.07789666 -0.00944815
v 0.08788474 0.07795000 -0.00943938
v 0.08791069 0.07792906 -0.00926441
v 0.08802536 0.07797697 -0.00943355
v 0.08805298 0.07796543 -0.00930600
v 0.08803453 0.07797872 -0.00943317
v 0.08782022 0.07785057 -0.00912439
v 0.08812137 0.07781415 -0.00892398
v 0.08808536 0.07777254 -0.00887104
v 0.08797548 0.07780087 -0.00894088
v 0.08788682 0.07782714 -0.00902720
v 0.08800026 0.07789419 -0.00910412
v 0.08818567 0.07798263 -0.00942965
v 0.08808452 0.07798831 -0.00943109
v 0.08811776 0.07794020 -0.00919005
v 0.08815781 0.07785086 -0.00898017
v 0.08823111 0.07790903 -0.00910085
v 0.08835363 0.07796586 -0.00938096
v 0.08834456 0.07796913 -0.00939500
v 0.08833949 0.07797177 -0.00940987
v 0.08821156 0.07798117 -0.00942929
v 0.08833787 0.07797408 -0.00942749
v 0.08904516 0.07739814 -0.00903843
v 0.08898024 0.07753096 -0.00907663
v 0.08895022 0.07740086 -0.00890800
v 0.08889651 0.07753335 -0.00896162
v 0.08882609 0.07741063 -0.00879196
v 0.08878711 0.07754197 -0.00885936
v 0.08867412 0.07742806 -0.00869780
v 0.08865324 0.07755732 -0.00877643
v 0.08849940 0.07745342 -0.00863616
v 0.08849943 0.07757965 -0.00872216
v 0.08831006 0.07748612 -0.00861520
v 0.08833277 0.07760843 -0.00870371
v 0.08812160 0.07752342 -0.00863602
v 0.08816691 0.07764126 -0.00872204
v 0.08794955 0.07756231 -0.00869748
v 0.08801542 0.07767550 -0.00877615
v 0.08780166 0.07760044 -0.00879150
v 0.08788515 0.07770909 -0.00885896
v 0.08768250 0.07763577 -0.00890754
v 0.08778014 0.07774021 -0.00896123
v 0.08759309 0.07766722 -0.00903800
v 0.08770131 0.07776795 -0.00907626
v 0.08753151 0.07769458 -0.00917774
v 0.08764696 0.07779208 -0.00919953
v 0.08780166 0.07760044 -0.00879150
v 0.08845933 0.07795059 -0.00941885
v 0.08858043 0.07791281 -0.00942929
v 0.08845522 0.07794946 -0.00940229
v 0.08844748 0.07794922 -0.00938762
v 0.08903973 0.07753401 -0.00920013
v 0.08911258 0.07740162 -0.00917842
v 0.08839756 0.07795533 -0.00936003
v 0.08839038 0.07795666 -0.00936002
v 0.08837754 0.07795940 -0.00936316
v 0.08742968 0.07778870 -0.01063056
v 0.08746267 0.07793459 -0.01177782
v 0.08744033 0.07790653 -0.01178225
v 0.08731194 0.07758535 -0.01017005
v 0.08732334 0.07764683 -0.01065054
v 0.08735059 0.07779390 -0.01180000
v 0.08836400 0.07811539 -0.01056872
v 0.08823672 0.07812291 -0.01057070
v 0.08804908 0.07811607 -0.01057584
v 0.08787118 0.07807662 -0.01058480
v 0.08772868 0.07801859 -0.01059525
v 0.08756940 0.07791864 -0.01061127
v 0.08814039 0.07827130 -0.01171433
v 0.08823797 0.07826560 -0.01171264
v 0.08826385 0.07826409 -0.01171219
v 0.08839011 0.07825672 -0.01170999
v 0.08808696 0.07826122 -0.01171708
v 0.08789804 0.07822556 -0.01172678
v 0.08779578 0.07818003 -0.01173563
v 0.08770018 0.07813746 -0.01174391
v 0.08766282 0.07810903 -0.01174876
v 0.08760241 0.07806309 -0.01175661
v 0.08760165 0.07806251 -0.01175671
v 0.08754200 0.07801713 -0.01176446
v 0.08750754 0.07799092 -0.01176894
v 0.08921447 0.07772987 -0.01190323
v 0.08927292 0.07759231 -0.01193420
v 0.08828987 0.07827526 -0.01204524
v 0.08817406 0.07828343 -0.01195174
v 0.08829169 0.07828347 -0.01185458
v 0.08789137 0.07818388 -0.01218419
v 0.08794524 0.07821497 -0.01214001
v 0.08803451 0.07821103 -0.01222853
v 0.08749196 0.07794398 -0.01208583
v 0.08737453 0.07781710 -0.01199413
v 0.08745041 0.07793010 -0.01193426
v 0.08736883 0.07781358 -0.01196201
v 0.08735914 0.07780761 -0.01190750
v 0.08765687 0.07795467 -0.01237546
v 0.08750673 0.07783886 -0.01231899
v 0.08755964 0.07795255 -0.01223405
v 0.08745446 0.07783498 -0.01222374
v 0.08741874 0.07782698 -0.01212113
v 0.08790694 0.07781701 -0.01268622
v 0.08813705 0.07784690 -0.01273525
v 0.08792186 0.07781564 -0.01269597
v 0.08801140 0.07780463 -0.01273515
v 0.08833530 0.07775370 -0.01279899
v 0.08831736 0.07775682 -0.01279760
v 0.08837047 0.07780780 -0.01276452
v 0.08823643 0.07777092 -0.01279131
v 0.08812137 0.07778816 -0.01276259
v 0.08860181 0.07776075 -0.01273525
v 0.08856366 0.07770827 -0.01277721
v 0.08835936 0.07774891 -0.01279670
v 0.08880543 0.07764991 -0.01268221
v 0.08866304 0.07768596 -0.01274991
v 0.08859697 0.07770079 -0.01276806
v 0.08894913 0.07761090 -0.01259534
v 0.08887004 0.07763357 -0.01265150
v 0.08896442 0.07773089 -0.01250573
v 0.08880292 0.07777658 -0.01261630
v 0.08897718 0.07760168 -0.01256708
v 0.08908861 0.07768931 -0.01237544
v 0.08911310 0.07755696 -0.01243003
v 0.08917160 0.07753411 -0.01234571
v 0.08917888 0.07765242 -0.01223396
v 0.08920269 0.07751872 -0.01227812
v 0.08923928 0.07762011 -0.01208569
v 0.08926899 0.07748588 -0.01213394
v 0.08929515 0.07746717 -0.01203658
v 0.08930212 0.07745517 -0.01196135
v 0.08805767 0.07826049 -0.01204763
v 0.08821850 0.07824916 -0.01217739
v 0.08814782 0.07820070 -0.01230341
v 0.08828348 0.07818291 -0.01235502
v 0.08858558 0.07812692 -0.01235502
v 0.08843520 0.07815750 -0.01237404
v 0.08844582 0.07821499 -0.01223329
v 0.08832589 0.07823508 -0.01221826
v 0.08845241 0.07825084 -0.01208525
v 0.08845486 0.07826443 -0.01193339
v 0.08776846 0.07817593 -0.01196838
v 0.08783287 0.07820771 -0.01194270
v 0.08796805 0.07825471 -0.01189028
v 0.08810901 0.07827922 -0.01183748
v 0.08841267 0.07826017 -0.01176372
v 0.08842303 0.07825947 -0.01177226
v 0.08843407 0.07825822 -0.01177786
v 0.08844706 0.07825624 -0.01178085
v 0.08890600 0.07808086 -0.01189021
v 0.08901542 0.07798852 -0.01194261
v 0.08897421 0.07801055 -0.01204371
v 0.08882416 0.07811843 -0.01204761
v 0.08871917 0.07809478 -0.01230325
v 0.08867044 0.07816539 -0.01217727
v 0.08882848 0.07806386 -0.01222842
v 0.08891278 0.07803565 -0.01213999
v 0.08878312 0.07815428 -0.01183743
v 0.08872371 0.07818154 -0.01195172
v 0.08861301 0.07821537 -0.01204516
v 0.08861391 0.07822373 -0.01185456
v 0.08848503 0.07824774 -0.01177058
v 0.08849721 0.07824374 -0.01175836
v 0.08850544 0.07824033 -0.01174509
v 0.08851084 0.07823706 -0.01172908
v 0.08856470 0.07819082 -0.01221826
v 0.08913573 0.07785664 -0.01187129
v 0.08910862 0.07787905 -0.01199342
v 0.08860502 0.07782418 -0.01269300
v 0.08838187 0.07786957 -0.01272123
v 0.08815674 0.07790727 -0.01269300
v 0.08795579 0.07793362 -0.01261655
v 0.08772128 0.07783412 -0.01256480
v 0.08778840 0.07794888 -0.01250590
v 0.08765253 0.07783794 -0.01250218
v 0.08759283 0.07783832 -0.01242718
v 0.08755424 0.07803758 -0.01190329
v 0.08759216 0.07805024 -0.01204162
v 0.08764779 0.07809691 -0.01201799
v 0.08765391 0.07805805 -0.01217685
v 0.08776120 0.07814579 -0.01211292
v 0.08774257 0.07805999 -0.01230581
v 0.08783944 0.07814749 -0.01222671
v 0.08786245 0.07805471 -0.01242471
v 0.08794513 0.07814283 -0.01233152
v 0.08801491 0.07804081 -0.01252550
v 0.08807943 0.07813059 -0.01242029
v 0.08819787 0.07801682 -0.01259510
v 0.08824047 0.07810948 -0.01248156
v 0.08840277 0.07798250 -0.01262080
v 0.08842071 0.07807929 -0.01250416
v 0.08860586 0.07794120 -0.01259510
v 0.08859936 0.07804296 -0.01248156
v 0.08878604 0.07789786 -0.01252527
v 0.08875793 0.07800481 -0.01242010
v 0.08893316 0.07785623 -0.01242454
v 0.08888752 0.07796815 -0.01233138
v 0.08904634 0.07781835 -0.01230579
v 0.08898730 0.07793474 -0.01222669
v 0.08912867 0.07778471 -0.01217676
v 0.08905996 0.07790508 -0.01211285
v 0.08918375 0.07775524 -0.01204149
v 0.08839365 0.07825923 -0.01173230
v 0.08840100 0.07826021 -0.01174872
v 0.08840826 0.07826019 -0.01175806
v 0.08839026 0.07825719 -0.01171355
v 0.08789804 0.07822555 -0.01172678
v 0.08770666 0.07813890 -0.01199353
v 0.08845309 0.07825511 -0.01178075
v 0.08846120 0.07825359 -0.01178060
v 0.08847343 0.07825084 -0.01177728
v 0.08896071 0.07802859 -0.01172678
v 0.08924141 0.07745292 0.01063060
v 0.08926320 0.07760105 0.01177779
v 0.08927394 0.07756684 0.01178222
v 0.08926424 0.07714426 0.00950000
v 0.08922121 0.07728215 0.00948568
v 0.08927845 0.07722088 0.01017005
v 0.08928985 0.07728237 0.01065059
v 0.08931711 0.07742943 0.01180000
v 0.08858043 0.07791281 0.00942928
v 0.08845997 0.07795145 0.00942749
v 0.08860772 0.07805416 0.01057074
v 0.08848623 0.07809275 0.01056876
v 0.08860512 0.07790489 0.00942965
v 0.08878046 0.07798052 0.01057589
v 0.08870160 0.07787394 0.00943108
v 0.08893241 0.07787994 0.01058484
v 0.08887437 0.07776658 0.00943938
v 0.08874482 0.07784708 0.00943316
v 0.08904465 0.07777469 0.01059529
v 0.08898736 0.07766609 0.00944814
v 0.08890810 0.07774561 0.00944100
v 0.08915752 0.07762432 0.01061131
v 0.08908595 0.07755176 0.00945873
v 0.08906145 0.07759172 0.00945483
v 0.08921049 0.07731649 0.00948211
v 0.08919008 0.07738192 0.00947532
v 0.08912620 0.07748610 0.00946514
v 0.08875416 0.07815663 0.01171445
v 0.08865760 0.07818755 0.01171267
v 0.08863292 0.07819545 0.01171222
v 0.08851249 0.07823403 0.01170999
v 0.08879728 0.07812989 0.01171703
v 0.08892682 0.07804960 0.01172475
v 0.08896000 0.07802904 0.01172673
v 0.08896072 0.07802859 0.01172677
v 0.08903986 0.07794945 0.01173563
v 0.08911386 0.07787546 0.01174390
v 0.08913848 0.07783549 0.01174877
v 0.08917827 0.07777088 0.01175663
v 0.08917878 0.07777006 0.01175673
v 0.08921809 0.07770625 0.01176449
v 0.08924270 0.07766632 0.01176935
v 0.08842056 0.07825968 0.01177058
v 0.08840783 0.07826031 0.01175839
v 0.08829166 0.07828347 0.01185468
v 0.08906413 0.07793575 0.01196805
v 0.08910857 0.07787903 0.01199317
v 0.08760180 0.07806233 0.01175673
v 0.08750496 0.07798839 0.01176935
v 0.08755389 0.07803762 0.01190308
v 0.08746242 0.07793479 0.01177779
v 0.08744012 0.07790671 0.01178222
v 0.08745002 0.07793015 0.01193403
v 0.08861284 0.07821543 0.01204537
v 0.08872397 0.07818148 0.01195158
v 0.08861406 0.07822370 0.01185448
v 0.08923923 0.07762008 0.01208539
v 0.08930299 0.07745983 0.01199518
v 0.08927283 0.07759232 0.01193413
v 0.08930721 0.07745430 0.01196187
v 0.08931411 0.07744525 0.01190724
v 0.08908931 0.07768913 0.01237506
v 0.08918754 0.07752737 0.01231916
v 0.08917927 0.07765229 0.01223349
v 0.08923485 0.07750508 0.01222422
v 0.08926567 0.07748461 0.01212065
v 0.08859540 0.07770039 0.01276317
v 0.08870302 0.07767658 0.01273610
v 0.08860181 0.07776084 0.01273580
v 0.08879182 0.07765446 0.01269637
v 0.08880630 0.07765038 0.01268655
v 0.08848105 0.07772569 0.01279193
v 0.08836935 0.07780809 0.01276506
v 0.08838354 0.07774485 0.01279952
v 0.08813612 0.07784714 0.01273578
v 0.08815336 0.07778441 0.01277785
v 0.08831725 0.07775624 0.01279328
v 0.08790609 0.07781668 0.01268267
v 0.08805424 0.07779898 0.01275112
v 0.08811912 0.07778945 0.01276862
v 0.08784225 0.07782431 0.01265318
v 0.08795396 0.07793397 0.01261662
v 0.08775779 0.07783173 0.01259539
v 0.08778727 0.07794914 0.01250627
v 0.08772899 0.07783311 0.01256769
v 0.08765677 0.07795476 0.01237595
v 0.08758655 0.07783999 0.01243069
v 0.08752427 0.07783960 0.01234696
v 0.08755912 0.07795262 0.01223389
v 0.08748901 0.07783631 0.01227802
v 0.08749110 0.07794406 0.01208529
v 0.08741549 0.07782947 0.01213426
v 0.08738440 0.07782135 0.01203685
v 0.08737360 0.07781259 0.01196117
v 0.08735059 0.07779390 0.01180000
v 0.08882841 0.07806388 0.01222850
v 0.08895238 0.07798719 0.01218390
v 0.08891320 0.07803553 0.01213974
v 0.08901537 0.07798851 0.01194239
v 0.08890597 0.07808084 0.01189004
v 0.08882448 0.07811834 0.01204741
v 0.08843445 0.07815769 0.01237440
v 0.08858555 0.07812698 0.01235538
v 0.08856464 0.07819087 0.01221855
v 0.08867016 0.07816548 0.01217757
v 0.08878310 0.07815426 0.01183730
v 0.08848277 0.07824840 0.01177227
v 0.08847188 0.07825122 0.01177793
v 0.08845467 0.07826449 0.01193351
v 0.08849270 0.07824534 0.01176371
v 0.08845467 0.07826449 0.01193351
v 0.08845200 0.07825095 0.01208546
v 0.08844521 0.07821514 0.01223358
v 0.08828284 0.07818307 0.01235537
v 0.08796757 0.07825476 0.01188999
v 0.08783227 0.07820777 0.01194233
v 0.08787867 0.07821360 0.01204366
v 0.08805757 0.07826055 0.01204788
v 0.08814653 0.07820095 0.01230346
v 0.08821748 0.07824936 0.01217745
v 0.08803371 0.07821121 0.01222878
v 0.08794513 0.07821504 0.01214034
v 0.08808691 0.07826155 0.01171703
v 0.08810868 0.07827925 0.01183727
v 0.08813676 0.07827106 0.01171445
v 0.08817399 0.07828347 0.01195192
v 0.08828915 0.07827541 0.01204529
v 0.08823797 0.07826533 0.01171267
v 0.08840783 0.07826031 0.01175839
v 0.08840781 0.07826031 0.01175837
v 0.08839896 0.07826007 0.01174517
v 0.08839274 0.07825895 0.01172911
v 0.08826385 0.07826386 0.01171222
v 0.08839011 0.07825672 0.01170999
v 0.08807773 0.07825981 0.01171750
v 0.08832537 0.07823521 0.01221853
v 0.08766286 0.07810897 0.01174877
v 0.08767284 0.07812776 0.01187115
v 0.08770018 0.07813746 0.01174390
v 0.08770598 0.07813897 0.01199310
v 0.08779578 0.07818003 0.01173563
v 0.08815591 0.07790750 0.01269351
v 0.08838087 0.07786984 0.01272175
v 0.08860508 0.07782425 0.01269353
v 0.08880250 0.07777674 0.01261688
v 0.08898568 0.07759980 0.01256497
v 0.08896441 0.07773091 0.01250585
v 0.08905079 0.07757886 0.01250271
v 0.08910739 0.07755755 0.01242674
v 0.08921440 0.07772988 0.01190317
v 0.08918373 0.07775521 0.01204121
v 0.08914851 0.07781871 0.01201760
v 0.08912903 0.07778459 0.01217633
v 0.08906025 0.07790496 0.01211246
v 0.08904699 0.07781817 0.01230545
v 0.08898785 0.07793460 0.01222639
v 0.08893316 0.07785625 0.01242466
v 0.08888749 0.07796817 0.01233148
v 0.08878567 0.07789800 0.01252579
v 0.08875758 0.07800495 0.01242056
v 0.08860595 0.07794126 0.01259559
v 0.08859939 0.07804302 0.01248199
v 0.08840188 0.07798274 0.01262127
v 0.08841988 0.07807950 0.01250457
v 0.08819714 0.07801702 0.01259557
v 0.08823978 0.07810966 0.01248197
v 0.08801328 0.07804113 0.01252556
v 0.08807796 0.07813088 0.01242036
v 0.08786145 0.07805493 0.01242504
v 0.08794421 0.07814305 0.01233181
v 0.08774248 0.07806007 0.01230626
v 0.08783935 0.07814757 0.01222710
v 0.08765343 0.07805812 0.01217670
v 0.08776077 0.07814585 0.01211279
v 0.08759138 0.07805032 0.01204113
v 0.08851010 0.07823764 0.01173223
v 0.08850360 0.07824119 0.01174870
v 0.08849682 0.07824377 0.01175803
v 0.08851252 0.07823451 0.01171345
v 0.08892682 0.07804960 0.01172475
v 0.08896072 0.07802859 0.01172677
v 0.08896000 0.07802904 0.01172673
v 0.08871882 0.07809490 0.01230363
v 0.08845901 0.07825403 0.01178091
v 0.08844482 0.07825662 0.01178063
v 0.08843246 0.07825843 0.01177728
v 0.08803371 0.07821121 0.01222878
v 0.08789804 0.07822555 0.01172677
v 0.08742968 0.07778871 0.01063060
v 0.08740989 0.07765005 0.00948213
v 0.08738753 0.07762187 0.00948569
v 0.08733404 0.07770457 0.01113158
v 0.08732334 0.07764684 0.01065061
v 0.08729774 0.07750873 0.00950000
v 0.08823672 0.07812292 0.01057074
v 0.08836400 0.07811540 0.01056876
v 0.08804908 0.07811608 0.01057589
v 0.08787118 0.07807662 0.01058484
v 0.08772868 0.07801860 0.01059529
v 0.08789804 0.07822556 0.01172677
v 0.08756940 0.07791865 0.01061131
v 0.08833787 0.07797408 0.00942749
v 0.08821156 0.07798140 0.00942926
v 0.08818567 0.07798291 0.00942962
v 0.08808813 0.07798856 0.00943098
v 0.08803458 0.07797838 0.00943320
v 0.08784572 0.07794251 0.00944100
v 0.08774325 0.07789666 0.00944814
v 0.08767379 0.07786559 0.00945299
v 0.08764743 0.07785379 0.00945483
v 0.08761017 0.07782534 0.00945872
v 0.08754898 0.07777857 0.00946513
v 0.08745473 0.07770655 0.00947499
v 0.08842981 0.07795044 0.00936962
v 0.08844205 0.07794944 0.00938075
v 0.08855106 0.07790606 0.00928294
v 0.08907612 0.07754185 0.00932790
v 0.08912620 0.07748610 0.00946514
v 0.08915380 0.07741051 0.00932321
v 0.08921135 0.07726908 0.00932321
v 0.08884261 0.07775634 0.00926434
v 0.08874651 0.07775588 0.00910412
v 0.08865330 0.07784095 0.00919005
v 0.08872281 0.07784128 0.00930595
v 0.08800048 0.07789418 0.00910433
v 0.08811790 0.07794020 0.00919019
v 0.08823137 0.07790900 0.00910099
v 0.08849379 0.07769164 0.00882539
v 0.08835340 0.07771590 0.00880997
v 0.08836216 0.07776327 0.00886911
v 0.08821364 0.07774359 0.00882556
v 0.08766888 0.07734996 0.00871176
v 0.08772739 0.07747762 0.00874053
v 0.08788994 0.07743571 0.00863721
v 0.08739186 0.07760636 0.00932377
v 0.08730983 0.07748688 0.00932837
v 0.08730078 0.07749662 0.00939882
v 0.08743056 0.07758099 0.00916439
v 0.08735641 0.07745912 0.00916077
v 0.08731287 0.07748361 0.00930466
v 0.08759644 0.07751641 0.00886781
v 0.08742879 0.07742550 0.00898381
v 0.08749820 0.07755094 0.00901085
v 0.08738148 0.07744502 0.00907794
v 0.08762757 0.07736086 0.00874017
v 0.08756724 0.07737865 0.00879811
v 0.08753110 0.07739088 0.00884658
v 0.08807899 0.07739295 0.00856953
v 0.08792741 0.07728470 0.00855972
v 0.08782135 0.07730976 0.00860697
v 0.08822648 0.07722267 0.00850187
v 0.08821837 0.07722425 0.00850247
v 0.08828602 0.07735195 0.00854646
v 0.08814673 0.07723812 0.00850775
v 0.08804221 0.07726033 0.00853252
v 0.08826075 0.07721664 0.00850475
v 0.08849399 0.07731601 0.00856929
v 0.08846596 0.07718060 0.00852201
v 0.08857211 0.07716419 0.00855069
v 0.08868577 0.07728816 0.00863681
v 0.08868391 0.07714949 0.00860343
v 0.08877814 0.07713710 0.00864789
v 0.08885242 0.07726906 0.00874008
v 0.08886107 0.07712825 0.00870511
v 0.08886371 0.07712805 0.00870766
v 0.08898842 0.07725837 0.00886739
v 0.08903262 0.07711539 0.00887102
v 0.08909327 0.07711356 0.00895349
v 0.08909231 0.07725543 0.00901041
v 0.08911526 0.07711444 0.00899697
v 0.08916611 0.07725923 0.00916360
v 0.08920108 0.07711790 0.00916663
v 0.08923167 0.07712339 0.00926433
v 0.08924052 0.07712905 0.00932830
v 0.08761586 0.07781254 0.00932835
v 0.08749627 0.07771777 0.00932372
v 0.08815822 0.07785081 0.00898037
v 0.08808588 0.07777247 0.00887130
v 0.08797588 0.07780083 0.00894120
v 0.08823661 0.07796434 0.00928301
v 0.08839235 0.07792714 0.00920984
v 0.08838312 0.07787690 0.00906615
v 0.08783277 0.07778601 0.00899306
v 0.08788710 0.07782712 0.00902748
v 0.08825943 0.07782792 0.00894414
v 0.08837005 0.07780601 0.00893179
v 0.08805301 0.07796546 0.00930626
v 0.08791074 0.07792910 0.00926476
v 0.08777434 0.07787101 0.00922906
v 0.08770936 0.07783405 0.00921368
v 0.08835836 0.07796439 0.00937578
v 0.08836821 0.07796166 0.00936789
v 0.08837912 0.07795904 0.00936263
v 0.08839030 0.07795668 0.00936007
v 0.08860469 0.07772457 0.00892397
v 0.08862339 0.07767282 0.00887103
v 0.08873618 0.07765988 0.00894090
v 0.08882837 0.07765264 0.00902721
v 0.08889893 0.07765063 0.00912434
v 0.08894913 0.07765321 0.00922853
v 0.08897995 0.07765990 0.00933719
v 0.08858382 0.07777191 0.00898016
v 0.08853627 0.07785247 0.00910084
v 0.08844234 0.07794941 0.00938101
v 0.08845196 0.07794924 0.00939502
v 0.08845763 0.07794988 0.00940986
v 0.08759324 0.07766723 0.00903834
v 0.08770144 0.07776795 0.00907656
v 0.08768278 0.07763576 0.00890793
v 0.08778042 0.07774020 0.00896157
v 0.08780211 0.07760041 0.00879195
v 0.08788559 0.07770906 0.00885935
v 0.08795016 0.07756224 0.00869783
v 0.08801600 0.07767543 0.00877646
v 0.08812231 0.07752331 0.00863619
v 0.08816758 0.07764115 0.00872219
v 0.08831081 0.07748597 0.00861518
v 0.08833348 0.07760829 0.00870370
v 0.08850017 0.07745325 0.00863597
v 0.08850013 0.07757950 0.00872200
v 0.08867480 0.07742790 0.00869746
v 0.08865388 0.07755717 0.00877614
v 0.08882663 0.07741049 0.00879154
v 0.08878761 0.07754183 0.00885899
v 0.08895054 0.07740075 0.00890756
v 0.08889682 0.07753325 0.00896124
v 0.08904523 0.07739807 0.00903794
v 0.08898033 0.07753089 0.00907621
v 0.08911255 0.07740154 0.00917763
v 0.08903970 0.07753394 0.00919944
v 0.08833816 0.07797303 0.00941880
v 0.08834158 0.07797052 0.00940228
v 0.08834869 0.07796753 0.00938765
v 0.08835413 0.07796576 0.00938097
v 0.08767379 0.07786559 0.00945299
v 0.08764702 0.07779213 0.00920007
v 0.08753157 0.07769464 0.00917835
v 0.08839751 0.07795534 0.00936006
v 0.08840471 0.07795401 0.00936005
v 0.08841767 0.07795196 0.00936320
v 0.09996043 0.07600464 -0.00050324
v 0.09996018 0.07599897 -0.00051766
v 0.09881002 0.07606036 -0.00051864
v 0.09766855 0.07624475 -0.00006209
v 0.09881688 0.07617807 -0.00006216
v 0.09881611 0.07616503 -0.00016399
v 0.09881396 0.07612825 -0.00034862
v 0.09766715 0.07622534 -0.00021330
v 0.09766761 0.07623180 -0.00016294
v 0.09766087 0.07613809 -0.00050325
v 0.09766488 0.07619384 -0.00036119
v 0.09766621 0.07621244 -0.00031380
v 0.09765983 0.07612358 -0.00054024
v 0.09765523 0.07605959 -0.00063264
v 0.09880452 0.07596591 -0.00066904
v 0.09765094 0.07599975 -0.00071905
v 0.09764843 0.07596480 -0.00075042
v 0.09879708 0.07583789 -0.00080743
v 0.09764432 0.07590753 -0.00080182
v 0.09763776 0.07581623 -0.00088376
v 0.09878848 0.07568988 -0.00091745
v 0.09763387 0.07576195 -0.00091232
v 0.09763112 0.07572348 -0.00093256
v 0.09877909 0.07552827 -0.00100000
v 0.09762192 0.07559526 -0.00100000
v 0.09996521 0.07611140 -0.00006223
v 0.09996463 0.07609844 -0.00016306
v 0.09996433 0.07609197 -0.00021339
v 0.09996375 0.07607905 -0.00031396
v 0.09996292 0.07606046 -0.00036124
v 0.09995978 0.07599004 -0.00054040
v 0.09995694 0.07592610 -0.00063263
v 0.09995427 0.07586631 -0.00071887
v 0.09995271 0.07583119 -0.00075036
v 0.09995019 0.07577443 -0.00080127
v 0.09994610 0.07568256 -0.00088367
v 0.09994766 0.07571765 -0.00085220
v 0.09995015 0.07577388 -0.00080177
v 0.09993626 0.07546128 -0.00100000
v 0.09994197 0.07558964 -0.00093252
v 0.09994366 0.07562814 -0.00091228
v 0.10018401 0.07587483 -0.00065916
v 0.10020001 0.07582337 -0.00071322
v 0.09995051 0.07578166 0.00079478
v 0.09994610 0.07568256 0.00088367
v 0.10008810 0.07571456 0.00084445
v 0.10029511 0.07605027 -0.00016462
v 0.10020061 0.07605444 -0.00027965
v 0.10010901 0.07609326 -0.00016394
v 0.10024871 0.07557964 -0.00088892
v 0.10013541 0.07545248 -0.00098032
v 0.10009591 0.07558640 -0.00092692
v 0.10009961 0.07545406 -0.00098579
v 0.10004361 0.07545654 -0.00099435
v 0.10054141 0.07556672 -0.00072847
v 0.10045851 0.07543822 -0.00085598
v 0.10039841 0.07557303 -0.00082389
v 0.10036541 0.07544232 -0.00090514
v 0.10026001 0.07544698 -0.00093960
v 0.10083101 0.07542180 -0.00045845
v 0.10089220 0.07548298 -0.00023792
v 0.10084061 0.07542138 -0.00044406
v 0.10088091 0.07541960 -0.00035215
v 0.10094491 0.07541678 -0.00002570
v 0.10094441 0.07541680 -0.00003180
v 0.10092181 0.07548167 -0.00000091
v 0.10093721 0.07541712 -0.00012525
v 0.10090810 0.07541841 -0.00024268
v 0.10089261 0.07548296 0.00023576
v 0.10092311 0.07541774 0.00020808
v 0.10094260 0.07541689 -0.00000112
v 0.10094491 0.07541678 -0.00002570
v 0.10082711 0.07542197 0.00045710
v 0.10089611 0.07541893 0.00030836
v 0.10091401 0.07541815 0.00024193
v 0.10073931 0.07542584 0.00060565
v 0.10079721 0.07542329 0.00052169
v 0.10067341 0.07556090 0.00059844
v 0.10078481 0.07555599 0.00043146
v 0.10071111 0.07542708 0.00063455
v 0.10054171 0.07556671 0.00072816
v 0.10057311 0.07543317 0.00077595
v 0.10048821 0.07543691 0.00083744
v 0.10039841 0.07557303 0.00082379
v 0.10041861 0.07543997 0.00087152
v 0.10024851 0.07557965 0.00088907
v 0.10027381 0.07544637 0.00094246
v 0.10009581 0.07558640 0.00092701
v 0.09994197 0.07558964 0.00093252
v 0.09993711 0.07548049 0.00098990
v 0.10017531 0.07545072 0.00097165
v 0.10009891 0.07545410 0.00098071
v 0.09993626 0.07546128 0.00100000
v 0.10045551 0.07590901 -0.00040390
v 0.10040211 0.07586519 -0.00053958
v 0.10036601 0.07591295 -0.00049225
v 0.10058341 0.07590336 0.00015326
v 0.10060241 0.07590251 -0.00000058
v 0.10047461 0.07598567 -0.00000045
v 0.10045931 0.07598634 -0.00012222
v 0.10033551 0.07604848 -0.00000034
v 0.10018861 0.07608975 -0.00000022
v 0.10016661 0.07592178 -0.00060160
v 0.10012801 0.07600099 -0.00047716
v 0.10028701 0.07599394 -0.00038996
v 0.10058311 0.07590337 -0.00015463
v 0.10041811 0.07598815 -0.00023021
v 0.10008521 0.07605956 -0.00034294
v 0.10001941 0.07610900 -0.00004071
v 0.10002801 0.07610861 -0.00003041
v 0.10003371 0.07610836 -0.00001921
v 0.10003671 0.07610823 -0.00000608
v 0.10012791 0.07600099 0.00047726
v 0.10016650 0.07592179 0.00060172
v 0.10026871 0.07591726 0.00055718
v 0.10028721 0.07599394 0.00038984
v 0.10053101 0.07590567 0.00029103
v 0.10041801 0.07598816 0.00023020
v 0.10045561 0.07590900 0.00040404
v 0.10036621 0.07591295 0.00049208
v 0.09996292 0.07606046 0.00036124
v 0.10008511 0.07605956 0.00034300
v 0.09996375 0.07607905 0.00031395
v 0.10020081 0.07605444 0.00027955
v 0.10029501 0.07605027 0.00016458
v 0.10010901 0.07609326 0.00016387
v 0.09996433 0.07609197 0.00021338
v 0.10002631 0.07610869 0.00003277
v 0.10001401 0.07610923 0.00004544
v 0.10000071 0.07610982 0.00005414
v 0.09998449 0.07611054 0.00006005
v 0.09996442 0.07609422 0.00019591
v 0.09996521 0.07611140 0.00006223
v 0.09996264 0.07605407 0.00037750
v 0.10045951 0.07598633 0.00012116
v 0.09995271 0.07583119 0.00075036
v 0.10007681 0.07582883 0.00074393
v 0.09995427 0.07586630 0.00071888
v 0.10019991 0.07582338 0.00071334
v 0.09995694 0.07592610 0.00063262
v 0.10086251 0.07555256 0.00022736
v 0.10089071 0.07555133 -0.00000092
v 0.10086211 0.07555258 -0.00022952
v 0.10078501 0.07555598 -0.00043159
v 0.10070831 0.07542720 -0.00064353
v 0.10067331 0.07556090 -0.00059831
v 0.10064491 0.07543000 -0.00071172
v 0.10056931 0.07543333 -0.00077022
v 0.10008821 0.07571455 -0.00084437
v 0.10022761 0.07570838 -0.00080971
v 0.10021461 0.07576778 -0.00076349
v 0.10036420 0.07570235 -0.00075038
v 0.10032061 0.07581805 -0.00066082
v 0.10049461 0.07569659 -0.00066337
v 0.10043571 0.07581296 -0.00058403
v 0.10061481 0.07569129 -0.00054474
v 0.10054161 0.07580828 -0.00047944
v 0.10071651 0.07568680 -0.00039288
v 0.10063121 0.07580433 -0.00034566
v 0.10078671 0.07568370 -0.00020891
v 0.10069301 0.07580161 -0.00018374
v 0.10081281 0.07568255 -0.00000085
v 0.10071601 0.07580059 -0.00000072
v 0.10078711 0.07568369 0.00020691
v 0.10069341 0.07580159 0.00018204
v 0.10071641 0.07568681 0.00039273
v 0.10063111 0.07580434 0.00034558
v 0.10061491 0.07569128 0.00054484
v 0.10054171 0.07580828 0.00047956
v 0.10049491 0.07569657 0.00066307
v 0.10043591 0.07581295 0.00058379
v 0.10036420 0.07570235 0.00075028
v 0.10032061 0.07581805 0.00066075
v 0.10022741 0.07570839 0.00080984
v 0.09998768 0.07611040 -0.00005922
v 0.10000431 0.07610967 -0.00005218
v 0.10001371 0.07610925 -0.00004504
v 0.09996872 0.07611125 -0.00006217
v 0.09996463 0.07609844 -0.00016306
v 0.09996433 0.07609197 -0.00021339
v 0.10053111 0.07590567 -0.00029105
v 0.10003661 0.07610823 -0.00000008
v 0.10003651 0.07610824 0.00000832
v 0.10003310 0.07610839 0.00002082
v 0.09995015 0.07577388 -0.00080177
v 0.09995978 0.07599004 0.00054039
v 0.09877979 0.07554077 0.00099214
v 0.09877907 0.07552828 0.00100000
v 0.09881685 0.07617807 0.00006216
v 0.09881585 0.07616108 0.00019688
v 0.09881337 0.07611846 0.00037964
v 0.09880913 0.07604561 0.00054652
v 0.09880487 0.07597225 0.00066065
v 0.09879751 0.07584566 0.00080040
v 0.09878895 0.07569838 0.00091221
v 0.09766628 0.07621336 0.00031028
v 0.09766717 0.07622561 0.00021334
v 0.09766733 0.07622782 0.00019585
v 0.09766855 0.07624475 0.00006208
v 0.09766486 0.07619352 0.00036107
v 0.09765983 0.07612358 0.00054024
v 0.09765523 0.07605959 0.00063264
v 0.09765212 0.07601622 0.00069527
v 0.09765094 0.07599975 0.00071905
v 0.09764844 0.07596485 0.00075049
v 0.09762192 0.07559526 0.00100000
v 0.09762330 0.07561443 0.00098987
v 0.09763110 0.07572334 0.00093233
v 0.09763798 0.07581919 0.00088168
v 0.09764489 0.07591545 0.00079499
v 0.09761045 0.07624891 -0.00003262
v 0.09762165 0.07624810 -0.00004489
v 0.09752143 0.07624352 -0.00015999
v 0.09751818 0.07597726 -0.00074262
v 0.09749268 0.07586505 -0.00084295
v 0.09746930 0.07573863 -0.00092532
v 0.09748646 0.07615436 -0.00047400
v 0.09732539 0.07616592 -0.00037954
v 0.09742193 0.07621581 -0.00027239
v 0.09753846 0.07620745 -0.00034070
v 0.09732547 0.07616591 0.00037987
v 0.09742199 0.07621580 0.00027261
v 0.09733221 0.07622225 0.00015556
v 0.09703091 0.07610936 -0.00014146
v 0.09701539 0.07611047 0.00000119
v 0.09708234 0.07614705 0.00000107
v 0.09703106 0.07610935 0.00014360
v 0.09683055 0.07565193 0.00060760
v 0.09688373 0.07578058 0.00057309
v 0.09677987 0.07578803 0.00040603
v 0.09746944 0.07573861 0.00092552
v 0.09744987 0.07560757 0.00098430
v 0.09751977 0.07560256 0.00099486
v 0.09731004 0.07575003 0.00088332
v 0.09728228 0.07561956 0.00093401
v 0.09742228 0.07560955 0.00098013
v 0.09701194 0.07577140 0.00070874
v 0.09710397 0.07563234 0.00085673
v 0.09715602 0.07576107 0.00081158
v 0.09719594 0.07562575 0.00090557
v 0.09685852 0.07564993 0.00064929
v 0.09691658 0.07564577 0.00071156
v 0.09696647 0.07564219 0.00075022
v 0.09671191 0.07579290 0.00021270
v 0.09667746 0.07566291 0.00034108
v 0.09672516 0.07565950 0.00045050
v 0.09662238 0.07566685 0.00000219
v 0.09661963 0.07566704 0.00003423
v 0.09668873 0.07579457 0.00000175
v 0.09662558 0.07566662 0.00011785
v 0.09665049 0.07566484 0.00022497
v 0.09662529 0.07566664 -0.00003180
v 0.09671171 0.07579292 -0.00020957
v 0.09664046 0.07566556 -0.00020867
v 0.09666933 0.07566349 -0.00031541
v 0.09677974 0.07578804 -0.00040388
v 0.09672205 0.07565970 -0.00042710
v 0.09676783 0.07565642 -0.00052409
v 0.09688375 0.07578058 -0.00057202
v 0.09682419 0.07565238 -0.00060571
v 0.09682703 0.07565218 -0.00060865
v 0.09701181 0.07577140 -0.00070820
v 0.09699091 0.07564044 -0.00077738
v 0.09707422 0.07563447 -0.00083779
v 0.09715555 0.07576110 -0.00081103
v 0.09711789 0.07563134 -0.00085924
v 0.09730959 0.07575006 -0.00088280
v 0.09728747 0.07561920 -0.00094254
v 0.09738539 0.07561219 -0.00097166
v 0.09745024 0.07560754 -0.00097943
v 0.09749281 0.07586504 0.00084313
v 0.09751830 0.07597725 0.00074278
v 0.09720071 0.07617487 0.00021716
v 0.09707699 0.07610605 0.00027426
v 0.09714725 0.07610101 0.00038732
v 0.09752148 0.07624351 0.00016011
v 0.09744788 0.07624880 0.00000036
v 0.09729722 0.07622476 0.00000066
v 0.09719117 0.07605156 0.00052527
v 0.09723417 0.07609477 0.00047929
v 0.09716433 0.07617748 0.00011366
v 0.09715192 0.07617837 0.00000094
v 0.09753864 0.07620743 0.00034090
v 0.09748671 0.07615435 0.00047429
v 0.09743677 0.07608024 0.00059794
v 0.09741292 0.07603566 0.00065512
v 0.09761668 0.07624846 0.00004023
v 0.09760875 0.07624903 0.00003004
v 0.09760344 0.07624942 0.00001883
v 0.09760087 0.07624961 0.00000740
v 0.09713761 0.07614309 -0.00024502
v 0.09707690 0.07610606 -0.00027277
v 0.09714727 0.07610101 -0.00038656
v 0.09723407 0.07609478 -0.00047888
v 0.09733170 0.07608778 -0.00054873
v 0.09743646 0.07608026 -0.00059757
v 0.09754519 0.07607247 -0.00062654
v 0.09720064 0.07617488 -0.00021598
v 0.09733217 0.07622225 -0.00015474
v 0.09762188 0.07624809 -0.00004514
v 0.09763594 0.07624708 -0.00005462
v 0.09765082 0.07624601 -0.00006008
v 0.09720697 0.07588552 0.00073923
v 0.09726610 0.07599533 0.00065111
v 0.09707562 0.07589494 0.00064548
v 0.09715028 0.07600363 0.00056843
v 0.09695878 0.07590332 0.00052188
v 0.09704731 0.07601102 0.00045950
v 0.09686417 0.07591010 0.00036971
v 0.09696399 0.07601700 0.00032546
v 0.09680228 0.07591455 0.00019365
v 0.09690950 0.07602091 0.00017045
v 0.09678117 0.07591606 0.00000158
v 0.09689091 0.07602224 0.00000140
v 0.09680210 0.07591455 -0.00019082
v 0.09690934 0.07602092 -0.00016793
v 0.09686406 0.07591011 -0.00036777
v 0.09696389 0.07601700 -0.00032372
v 0.09695881 0.07590332 -0.00052092
v 0.09704733 0.07601102 -0.00045863
v 0.09707550 0.07589495 -0.00064501
v 0.09715017 0.07600364 -0.00056799
v 0.09720655 0.07588555 -0.00073874
v 0.09726572 0.07599536 -0.00065065
v 0.09734701 0.07587548 -0.00080418
v 0.09738963 0.07598648 -0.00070840
v 0.09695881 0.07590332 -0.00052092
v 0.09734701 0.07587548 -0.00080418
v 0.09765990 0.07624536 0.00006163
v 0.09764329 0.07624655 0.00005780
v 0.09762861 0.07624761 0.00005027
v 0.09762191 0.07624809 0.00004463
v 0.09739000 0.07598645 0.00070881
v 0.09734742 0.07587545 0.00080464
v 0.09760087 0.07624961 0.00000007
v 0.09760085 0.07624961 -0.00000726
v 0.09760400 0.07624937 -0.00002040
v 0.07693739 0.08037934 -0.00006223
v 0.07803334 0.08003007 -0.00006216
v 0.07802939 0.08001762 -0.00016399
v 0.07801821 0.07998252 -0.00034862
v 0.07693124 0.08036090 -0.00021339
v 0.07693329 0.08036705 -0.00016306
v 0.07687871 0.08020339 -0.00063263
v 0.07689896 0.08026411 -0.00054039
v 0.07799756 0.07991772 -0.00051864
v 0.07692128 0.08033098 -0.00036124
v 0.07692715 0.08034863 -0.00031396
v 0.07685976 0.08014662 -0.00071888
v 0.07796885 0.07982758 -0.00066904
v 0.07684865 0.08011328 -0.00075036
v 0.07792992 0.07970539 -0.00080743
v 0.07683047 0.08005886 -0.00080177
v 0.07792992 0.07970539 -0.00080743
v 0.07680154 0.07997215 -0.00088367
v 0.07788489 0.07956414 -0.00091745
v 0.07678431 0.07992048 -0.00091228
v 0.07677211 0.07988391 -0.00093252
v 0.07783575 0.07940988 -0.00100000
v 0.07673144 0.07976204 -0.00100000
v 0.07911989 0.07964979 -0.00031386
v 0.07912368 0.07966228 -0.00021239
v 0.07912553 0.07966837 -0.00016294
v 0.07912929 0.07968079 -0.00006209
v 0.07911467 0.07963260 -0.00035950
v 0.07909853 0.07957944 -0.00050071
v 0.07909659 0.07957305 -0.00051767
v 0.07909401 0.07956454 -0.00054028
v 0.07907598 0.07950516 -0.00062965
v 0.07906341 0.07946380 -0.00069191
v 0.07905794 0.07944579 -0.00071903
v 0.07904873 0.07941548 -0.00074739
v 0.07903106 0.07935730 -0.00080182
v 0.07900447 0.07926972 -0.00088375
v 0.07894008 0.07905773 -0.00100000
v 0.07897908 0.07918614 -0.00092959
v 0.07898864 0.07921764 -0.00091232
v 0.07918506 0.07966385 0.00003263
v 0.07917437 0.07966710 0.00004482
v 0.07926620 0.07962706 0.00015932
v 0.07903334 0.07936477 0.00079483
v 0.07900446 0.07926971 0.00088376
v 0.07915883 0.07926739 0.00083995
v 0.07926709 0.07953236 -0.00047180
v 0.07923742 0.07959990 -0.00033912
v 0.07934882 0.07956607 -0.00027085
v 0.07967504 0.07932838 0.00014218
v 0.07968954 0.07932397 0.00000011
v 0.07964016 0.07938163 0.00000009
v 0.07967441 0.07932858 -0.00014194
v 0.07970098 0.07882650 -0.00060641
v 0.07969642 0.07897181 -0.00056995
v 0.07980313 0.07879547 -0.00044582
v 0.07979536 0.07894175 -0.00040343
v 0.07986021 0.07892205 -0.00021052
v 0.07984801 0.07878184 -0.00033711
v 0.07980939 0.07879357 -0.00043066
v 0.07988267 0.07891522 0.00000021
v 0.07990021 0.07876598 -0.00000008
v 0.07990272 0.07876521 -0.00003180
v 0.07990282 0.07876518 -0.00003298
v 0.07989746 0.07876681 -0.00011161
v 0.07987295 0.07877426 -0.00022338
v 0.07988343 0.07877110 0.00021075
v 0.07986117 0.07892177 0.00021098
v 0.07987967 0.07877223 0.00022515
v 0.07985403 0.07878002 0.00032326
v 0.07979645 0.07894142 0.00040400
v 0.07980559 0.07879474 0.00042866
v 0.07975947 0.07880875 0.00052895
v 0.07969730 0.07897154 0.00057071
v 0.07970967 0.07882389 0.00060384
v 0.07957519 0.07900864 0.00070621
v 0.07957258 0.07886553 0.00075178
v 0.07954892 0.07887273 0.00077732
v 0.07943786 0.07905037 0.00080908
v 0.07946429 0.07889844 0.00084132
v 0.07928991 0.07909533 0.00088072
v 0.07927022 0.07895740 0.00093979
v 0.07926265 0.07895970 0.00094362
v 0.07913582 0.07914215 0.00092261
v 0.07917129 0.07898747 0.00097154
v 0.07928901 0.07909560 -0.00088012
v 0.07926764 0.07895818 -0.00093362
v 0.07913496 0.07899850 -0.00097951
v 0.07967643 0.07883396 -0.00064501
v 0.07961855 0.07885154 -0.00071015
v 0.07957409 0.07900897 -0.00070526
v 0.07957067 0.07886610 -0.00074896
v 0.07943655 0.07905077 -0.00080815
v 0.07943850 0.07890625 -0.00085612
v 0.07935170 0.07893263 -0.00090454
v 0.07917457 0.07938026 -0.00073949
v 0.07950578 0.07933208 -0.00052201
v 0.07929398 0.07939642 -0.00065191
v 0.07948098 0.07938732 -0.00047623
v 0.07928749 0.07944610 -0.00059490
v 0.07942107 0.07948558 -0.00037737
v 0.07915855 0.07926748 -0.00083978
v 0.07913552 0.07914225 -0.00092241
v 0.07910564 0.07900741 -0.00098260
v 0.07953983 0.07944951 -0.00021542
v 0.07963064 0.07934187 -0.00027211
v 0.07956379 0.07936217 -0.00038463
v 0.07933619 0.07960581 -0.00000001
v 0.07946775 0.07952995 0.00000003
v 0.07943429 0.07954011 -0.00015433
v 0.07957449 0.07943899 -0.00011234
v 0.07958649 0.07943534 0.00000007
v 0.07926600 0.07962713 -0.00015917
v 0.07917454 0.07966704 -0.00004470
v 0.07918481 0.07966393 -0.00003295
v 0.07919102 0.07966204 -0.00002095
v 0.07919423 0.07966107 -0.00000751
v 0.07923774 0.07959982 0.00033929
v 0.07911467 0.07963260 0.00035950
v 0.07911261 0.07962583 0.00037745
v 0.07926755 0.07953221 0.00047208
v 0.07928808 0.07944593 0.00059528
v 0.07938855 0.07941540 0.00054660
v 0.07958789 0.07939750 0.00024469
v 0.07963137 0.07934165 0.00027244
v 0.07956437 0.07936199 0.00038509
v 0.07948170 0.07938711 0.00047682
v 0.07942163 0.07948542 0.00037782
v 0.07912368 0.07966229 0.00021239
v 0.07911989 0.07964980 0.00031380
v 0.07934920 0.07956595 0.00027115
v 0.07954040 0.07944934 0.00021566
v 0.07943470 0.07954000 0.00015449
v 0.07917419 0.07966716 0.00004502
v 0.07916057 0.07967129 0.00005458
v 0.07914621 0.07967565 0.00006008
v 0.07912430 0.07966433 0.00019581
v 0.07912929 0.07968079 0.00006208
v 0.07913582 0.07914215 0.00092261
v 0.07897908 0.07918614 0.00092958
v 0.07894566 0.07907614 0.00098990
v 0.07910557 0.07900743 0.00097963
v 0.07894008 0.07905773 0.00100000
v 0.07904873 0.07941548 0.00074738
v 0.07917480 0.07938019 0.00073964
v 0.07905793 0.07944576 0.00071905
v 0.07929868 0.07934255 0.00070593
v 0.07907598 0.07950515 0.00062965
v 0.07943293 0.07918411 -0.00073566
v 0.07941653 0.07930674 -0.00064763
v 0.07955822 0.07914604 -0.00064193
v 0.07952698 0.07927319 -0.00056502
v 0.07966964 0.07911220 -0.00051871
v 0.07962511 0.07924338 -0.00045648
v 0.07975972 0.07908483 -0.00036711
v 0.07970441 0.07921929 -0.00032302
v 0.07981875 0.07906690 -0.00019155
v 0.07975635 0.07920351 -0.00016852
v 0.07983918 0.07906069 0.00000019
v 0.07977434 0.07919805 0.00000015
v 0.07981959 0.07906664 0.00019197
v 0.07975711 0.07920329 0.00016886
v 0.07976072 0.07908453 0.00036764
v 0.07970528 0.07921903 0.00032345
v 0.07967044 0.07911195 0.00051940
v 0.07962581 0.07924317 0.00045706
v 0.07955922 0.07914574 0.00064279
v 0.07952784 0.07927293 0.00056576
v 0.07943410 0.07918375 0.00073650
v 0.07941756 0.07930643 0.00064836
v 0.07929928 0.07922472 0.00080177
v 0.07903334 0.07936477 0.00079483
v 0.07914482 0.07967607 -0.00006042
v 0.07916048 0.07967132 -0.00005466
v 0.07917435 0.07966710 -0.00004485
v 0.07917454 0.07966704 -0.00004470
v 0.07929797 0.07934276 -0.00070547
v 0.07929845 0.07922497 -0.00080124
v 0.07919424 0.07966107 -0.00000005
v 0.07919424 0.07966106 0.00000742
v 0.07919122 0.07966198 0.00002051
v 0.07967441 0.07932858 -0.00014194
v 0.07909401 0.07956455 0.00054024
v 0.07783953 0.07942182 0.00099214
v 0.07783574 0.07940989 0.00100000
v 0.07802817 0.08001386 0.00019688
v 0.07803331 0.08003008 0.00006216
v 0.07801520 0.07997318 0.00037964
v 0.07799306 0.07990365 0.00054652
v 0.07797075 0.07983363 0.00066065
v 0.07793226 0.07971281 0.00080040
v 0.07788746 0.07957224 0.00091221
v 0.07693739 0.08037934 0.00006223
v 0.07693203 0.08036326 0.00019595
v 0.07693133 0.08036116 0.00021343
v 0.07689896 0.08026411 0.00054039
v 0.07692117 0.08033068 0.00036112
v 0.07692744 0.08034949 0.00031043
v 0.07687871 0.08020339 0.00063262
v 0.07685976 0.08014662 0.00071888
v 0.07684866 0.08011332 0.00075043
v 0.07683298 0.08006638 0.00079494
v 0.07683071 0.08005951 0.00080144
v 0.07681274 0.08000569 0.00085247
v 0.07673144 0.07976204 0.00100000
v 0.07673752 0.07978026 0.00098987
v 0.07677206 0.07988378 0.00093229
v 0.07680250 0.07997497 0.00088158
v 0.07668043 0.08005290 -0.00084448
v 0.07662729 0.07993604 -0.00092704
v 0.07660763 0.08044046 0.00016471
v 0.07669746 0.08041046 0.00027994
v 0.07679684 0.08041389 0.00016411
v 0.07644182 0.08030589 0.00054015
v 0.07649258 0.08033756 0.00049277
v 0.07640751 0.08036598 0.00040436
v 0.07662738 0.07993601 0.00092691
v 0.07648272 0.07998432 0.00088902
v 0.07654342 0.07982484 0.00098050
v 0.07657653 0.07981378 0.00098584
v 0.07662842 0.07979645 0.00099420
v 0.07620498 0.08007710 0.00072924
v 0.07623466 0.07992798 0.00085542
v 0.07634083 0.08003172 0.00082432
v 0.07632435 0.07989801 0.00090525
v 0.07642467 0.07986450 0.00093971
v 0.07580900 0.08007022 0.00024275
v 0.07583458 0.08006167 0.00035161
v 0.07584694 0.08012481 0.00023800
v 0.07587283 0.08004888 0.00044347
v 0.07588235 0.08004570 0.00045865
v 0.07578118 0.08007951 0.00012444
v 0.07581872 0.08013425 0.00000121
v 0.07577395 0.08008193 0.00002506
v 0.07584646 0.08012498 -0.00023571
v 0.07579477 0.08007497 -0.00020881
v 0.07577900 0.08008023 -0.00003180
v 0.07588566 0.08004459 -0.00045700
v 0.07582038 0.08006642 -0.00030880
v 0.07580324 0.08007214 -0.00024188
v 0.07591431 0.08003502 -0.00052205
v 0.07597322 0.08015454 -0.00043138
v 0.07596946 0.08001660 -0.00060619
v 0.07607899 0.08011919 -0.00059849
v 0.07599583 0.08000778 -0.00063463
v 0.07620392 0.08007745 -0.00072813
v 0.07612719 0.07996389 -0.00077623
v 0.07620759 0.07993703 -0.00083757
v 0.07634002 0.08003199 -0.00082381
v 0.07627344 0.07991503 -0.00087154
v 0.07648235 0.07998445 -0.00088914
v 0.07641118 0.07986901 -0.00094260
v 0.07650454 0.07983783 -0.00097172
v 0.07657699 0.07981363 -0.00098075
v 0.07659526 0.08038490 0.00039037
v 0.07647059 0.08042654 0.00023034
v 0.07633561 0.08038999 0.00029120
v 0.07628606 0.08040655 0.00015468
v 0.07628575 0.08040666 -0.00015323
v 0.07626771 0.08041268 0.00000077
v 0.07641685 0.08044449 0.00000060
v 0.07643136 0.08043964 0.00012226
v 0.07656917 0.08045331 0.00000045
v 0.07672111 0.08043918 0.00000028
v 0.07664877 0.08023677 0.00065924
v 0.07668181 0.08027437 0.00060167
v 0.07674615 0.08033451 0.00047722
v 0.07680703 0.08037387 0.00034298
v 0.07688596 0.08039652 0.00004076
v 0.07687777 0.08039926 0.00003046
v 0.07687234 0.08040107 0.00001925
v 0.07686947 0.08040203 0.00000610
v 0.07674595 0.08033457 -0.00047729
v 0.07668155 0.08027445 -0.00060176
v 0.07658449 0.08030686 -0.00055719
v 0.07659470 0.08038508 -0.00038982
v 0.07633549 0.08039003 -0.00029097
v 0.07647049 0.08042657 -0.00023016
v 0.07640709 0.08036612 -0.00040407
v 0.07649187 0.08033779 -0.00049206
v 0.07680687 0.08037393 -0.00034303
v 0.07669706 0.08041059 -0.00027954
v 0.07692715 0.08034863 -0.00031395
v 0.07660756 0.08044049 -0.00016455
v 0.07679662 0.08041397 -0.00016386
v 0.07687934 0.08039873 -0.00003277
v 0.07689103 0.08039483 -0.00004544
v 0.07690372 0.08039059 -0.00005414
v 0.07691909 0.08038546 -0.00006005
v 0.07643111 0.08043973 -0.00012113
v 0.07673194 0.08015554 -0.00074396
v 0.07661510 0.08019457 -0.00071340
v 0.07589952 0.08017916 -0.00022731
v 0.07587275 0.08018811 0.00000120
v 0.07589998 0.08017901 0.00022959
v 0.07597336 0.08015449 0.00043181
v 0.07599831 0.08000695 0.00064337
v 0.07607960 0.08011898 0.00059899
v 0.07605845 0.07998686 0.00071167
v 0.07613119 0.07996256 0.00077101
v 0.07680250 0.07997497 0.00088158
v 0.07668052 0.08005287 0.00084437
v 0.07654850 0.08009697 0.00080980
v 0.07658191 0.08014776 0.00076358
v 0.07641904 0.08014022 0.00075078
v 0.07650110 0.08023264 0.00066116
v 0.07629515 0.08018160 0.00066406
v 0.07639178 0.08026915 0.00058464
v 0.07618088 0.08021977 0.00054536
v 0.07629104 0.08030280 0.00047998
v 0.07608410 0.08025211 0.00039309
v 0.07620579 0.08033129 0.00034585
v 0.07601728 0.08027442 0.00020898
v 0.07614699 0.08035093 0.00018380
v 0.07599248 0.08028271 0.00000111
v 0.07612520 0.08035822 0.00000095
v 0.07601686 0.08027458 -0.00020687
v 0.07614661 0.08035105 -0.00018200
v 0.07608395 0.08025215 -0.00039265
v 0.07620568 0.08033132 -0.00034551
v 0.07618032 0.08021996 -0.00054488
v 0.07629056 0.08030297 -0.00047959
v 0.07629419 0.08018192 -0.00066304
v 0.07639094 0.08026943 -0.00058376
v 0.07641830 0.08014046 -0.00075030
v 0.07650043 0.08023285 -0.00066076
v 0.07654816 0.08009708 -0.00080990
v 0.07691611 0.08038645 0.00005924
v 0.07690033 0.08039173 0.00005221
v 0.07689139 0.08039471 0.00004509
v 0.07693413 0.08038044 0.00006217
v 0.07693203 0.08036326 0.00019595
v 0.07661539 0.08019446 0.00071330
v 0.07686957 0.08040199 0.00000010
v 0.07686973 0.08040194 -0.00000832
v 0.07687292 0.08040087 -0.00002082
v 0.08892425 0.07667332 0.00181021
v 0.08829088 0.07676891 0.00042508
v 0.08873383 0.07670599 0.00175844
v 0.08693555 0.07716838 0.00482963
v 0.08820798 0.07693255 0.00500000
v 0.08805355 0.07681325 0.00048558
v 0.08819629 0.07678693 0.00052447
v 0.08577301 0.07727130 -0.00001080
v 0.08550371 0.07732891 0.00006541
v 0.08585625 0.07725267 0.00013685
v 0.08609185 0.07720974 0.00110464
v 0.08610669 0.07720053 -0.00001080
v 0.08593253 0.07725400 0.00171935
v 0.08395036 0.07772165 0.00250000
v 0.08473165 0.07757685 0.00353553
v 0.08574984 0.07738814 0.00433013
v 0.08536799 0.07736189 -0.00072917
v 0.08621603 0.07718534 -0.00122917
v 0.08709173 0.07701584 -0.00175723
v 0.08760292 0.07692264 -0.00205723
v 0.08677582 0.07706091 0.00013685
v 0.08681483 0.07705440 -0.00001079
v 0.08670431 0.07707612 -0.00036315
v 0.08723542 0.07698426 -0.00160182
v 0.08345923 0.07781268 0.00129410
v 0.08534324 0.07736693 0.00068012
v 0.08329171 0.07784373 -0.00000000
v 0.08329311 0.07784347 -0.00001080
v 0.08345923 0.07781268 -0.00129410
v 0.08395036 0.07772165 -0.00250000
v 0.08709173 0.07701584 -0.00175723
v 0.08473165 0.07757685 -0.00353553
v 0.08819598 0.07678534 -0.00001080
v 0.08822275 0.07692981 -0.00499803
v 0.08820798 0.07693255 -0.00500000
v 0.08731099 0.07699379 -0.00257685
v 0.08693555 0.07716838 -0.00482963
v 0.08574984 0.07738814 -0.00433013
v 0.08795496 0.07683145 -0.00001079
v 0.08890017 0.07666078 -0.00001080
v 0.08951861 0.07655245 -0.00045303
v 0.08948041 0.07669672 -0.00482963
v 0.09168431 0.07628825 -0.00353553
v 0.09066611 0.07647695 -0.00433013
v 0.09065182 0.07637219 -0.00087036
v 0.08968349 0.07652410 -0.00030467
v 0.08940248 0.07657607 -0.00001084
v 0.09044637 0.07639986 -0.00009762
v 0.08929577 0.07663385 0.00273824
v 0.09066611 0.07647695 0.00433013
v 0.09168431 0.07628825 0.00353553
v 0.09295673 0.07605242 0.00129410
v 0.09312424 0.07602136 -0.00000000
v 0.09312286 0.07602163 -0.00001080
v 0.09295673 0.07605242 -0.00129410
v 0.09246560 0.07614344 -0.00250000
v 0.08948041 0.07669672 0.00482963
v 0.08853358 0.07676177 0.00253119
v 0.08822275 0.07692981 0.00499802
v 0.08841446 0.07674586 0.00033652
v 0.08829088 0.07676891 0.00042508
v 0.08819852 0.07678652 0.00052508
v 0.09246560 0.07614344 0.00250000
v 0.08819629 0.07678692 0.00052016
v 0.08799865 0.07682216 0.00008583
v 0.08840691 0.07795860 -0.00940412
v 0.08848279 0.07824456 -0.01174537
v 0.08839918 0.07825845 -0.01173403
v 0.08834586 0.07796994 -0.00940412
v 0.08844346 0.07825022 0.01173401
v 0.08840781 0.07826031 0.01175837
v 0.08840783 0.07826031 0.01175839
v 0.08844346 0.07825022 0.01173401
v 0.08840781 0.07826031 0.01175837
v 0.08838997 0.07796174 0.00940412
v 0.09764509 0.07624641 0.00000860
v 0.10000091 0.07610980 0.00003107
v 0.09998945 0.07611032 -0.00005363
v 0.07691439 0.08038703 0.00005366
v 0.07915182 0.07967394 0.00005345
v 0.07917419 0.07966716 0.00004502
v 0.07690349 0.08039066 -0.00003107
f 1 2 3
f 4 5 6
f 5 1 6
f 6 1 7
f 1 3 7
f 7 3 8
f 9 10 11
f 12 13 11
f 13 14 11
f 11 14 9
f 15 16 17
f 16 18 17
f 17 18 12
f 18 19 12
f 12 19 13
f 20 21 22
f 21 23 22
f 5 24 1
f 24 25 1
f 1 25 23
f 25 26 23
f 23 26 22
f 10 27 28
f 10 28 11
f 28 29 11
f 11 29 12
f 30 17 31
f 17 12 31
f 31 12 32
f 12 29 32
f 30 33 17
f 33 21 17
f 17 21 15
f 21 20 15
f 33 34 21
f 34 35 21
f 21 35 36
f 36 37 21
f 37 38 21
f 21 38 23
f 38 39 23
f 23 39 1
f 39 40 1
f 1 40 2
f 41 42 43
f 44 45 46
f 47 48 49
f 50 51 52
f 53 54 55
f 56 57 58
f 57 59 58
f 60 61 62
f 63 64 65
f 66 67 68
f 69 70 71
f 70 72 71
f 60 73 61
f 73 74 61
f 61 74 69
f 74 75 69
f 69 75 70
f 76 77 62
f 77 78 62
f 62 78 60
f 79 80 81
f 80 82 81
f 81 82 76
f 82 83 76
f 76 83 77
f 79 81 84
f 81 85 84
f 84 85 86
f 86 85 87
f 85 88 87
f 87 88 89
f 89 88 90
f 88 91 90
f 90 91 92
f 92 91 93
f 91 94 93
f 93 94 95
f 95 94 96
f 94 97 96
f 96 97 98
f 97 99 98
f 98 99 100
f 100 99 101
f 99 52 101
f 101 52 102
f 52 51 102
f 102 51 103
f 104 38 37
f 38 104 39
f 104 105 39
f 39 105 40
f 40 105 2
f 105 63 2
f 2 63 3
f 63 65 3
f 3 65 8
f 106 107 108
f 54 109 55
f 109 110 55
f 55 110 111
f 112 113 108
f 113 53 108
f 108 53 106
f 53 55 106
f 106 55 114
f 55 111 114
f 114 111 115
f 116 54 117
f 54 53 117
f 117 53 118
f 53 113 118
f 118 113 119
f 113 112 119
f 29 109 32
f 109 54 32
f 32 54 31
f 54 116 31
f 31 116 30
f 116 117 30
f 30 117 33
f 117 118 33
f 33 118 34
f 118 35 34
f 120 121 109
f 121 122 109
f 109 122 110
f 122 123 110
f 110 123 124
f 125 126 127
f 126 128 127
f 129 130 131
f 130 132 131
f 131 132 133
f 134 130 125
f 130 129 125
f 125 129 126
f 135 136 56
f 136 135 137
f 137 135 138
f 135 139 138
f 138 139 134
f 140 141 142
f 134 139 130
f 139 142 130
f 130 142 132
f 142 141 132
f 132 141 133
f 56 58 135
f 58 143 135
f 135 143 139
f 143 144 139
f 139 144 142
f 144 43 142
f 142 43 140
f 42 145 43
f 145 146 43
f 43 146 140
f 146 147 140
f 140 147 148
f 147 149 148
f 150 151 152
f 151 153 152
f 152 153 154
f 153 155 154
f 154 155 156
f 155 157 156
f 156 157 158
f 157 159 158
f 158 159 160
f 159 161 160
f 160 161 162
f 161 163 162
f 162 163 164
f 163 165 164
f 164 165 166
f 165 167 166
f 166 167 168
f 167 169 168
f 168 169 170
f 169 171 170
f 170 171 172
f 171 173 172
f 172 173 49
f 173 46 49
f 49 46 47
f 46 45 47
f 71 150 69
f 150 152 69
f 69 152 61
f 152 154 61
f 61 154 62
f 154 156 62
f 62 156 76
f 156 158 76
f 76 158 81
f 158 160 81
f 81 160 85
f 160 162 85
f 85 162 88
f 162 164 88
f 88 164 91
f 164 174 91
f 91 174 94
f 174 168 94
f 94 168 97
f 168 170 97
f 97 170 99
f 170 172 99
f 99 172 52
f 172 49 52
f 52 49 50
f 49 48 50
f 28 27 175
f 176 175 29
f 175 177 29
f 29 177 109
f 177 178 109
f 109 178 120
f 35 118 36
f 118 119 36
f 36 119 37
f 119 179 37
f 37 179 104
f 179 180 104
f 104 180 105
f 180 66 105
f 105 66 63
f 66 68 63
f 63 68 64
f 124 181 110
f 181 182 110
f 110 182 183
f 107 106 59
f 106 114 59
f 59 114 58
f 114 115 58
f 58 115 143
f 115 111 143
f 143 111 144
f 111 110 144
f 144 110 43
f 110 183 43
f 43 183 41
f 128 44 127
f 44 46 127
f 127 46 125
f 46 173 125
f 125 173 134
f 173 171 134
f 134 171 138
f 171 169 138
f 138 169 137
f 169 167 137
f 137 167 136
f 167 165 136
f 136 165 56
f 165 163 56
f 56 163 57
f 163 161 57
f 57 161 59
f 161 159 59
f 59 159 107
f 159 157 107
f 107 157 108
f 157 155 108
f 108 155 112
f 155 153 112
f 112 153 119
f 153 151 119
f 119 151 179
f 151 150 179
f 179 150 180
f 150 71 180
f 180 71 66
f 71 72 66
f 66 72 67
f 184 185 186
f 103 51 187
f 51 184 187
f 187 184 188
f 184 186 188
f 188 186 189
f 149 190 191
f 129 131 192
f 131 133 192
f 133 141 192
f 141 140 192
f 192 140 191
f 140 148 191
f 191 148 149
f 126 193 128
f 193 194 128
f 195 45 194
f 45 44 194
f 194 44 128
f 51 50 184
f 50 48 184
f 184 48 195
f 48 47 195
f 195 47 45
f 196 192 197
f 192 191 197
f 197 191 198
f 191 190 198
f 198 190 199
f 196 200 192
f 200 193 192
f 192 193 129
f 193 126 129
f 200 201 193
f 201 202 193
f 193 202 194
f 202 203 194
f 194 203 195
f 203 204 195
f 195 204 205
f 205 206 195
f 206 207 195
f 195 207 184
f 207 208 184
f 184 208 185
f 26 25 209
f 24 5 210
f 211 212 213
f 214 215 216
f 217 218 219
f 218 220 219
f 219 220 221
f 222 223 224
f 223 225 224
f 224 225 217
f 225 226 217
f 217 226 218
f 227 228 229
f 228 230 229
f 231 232 233
f 232 234 233
f 233 234 228
f 234 235 228
f 228 235 230
f 236 237 233
f 237 238 233
f 233 238 231
f 239 240 236
f 240 241 236
f 236 241 237
f 242 243 244
f 243 245 244
f 242 244 246
f 244 247 246
f 246 247 248
f 248 247 249
f 247 250 249
f 249 250 251
f 250 252 251
f 251 252 253
f 253 252 254
f 252 210 254
f 254 210 255
f 210 5 255
f 255 5 4
f 185 219 186
f 219 221 186
f 186 221 189
f 215 256 216
f 256 257 216
f 216 257 258
f 257 259 258
f 260 261 262
f 261 263 262
f 262 263 264
f 263 211 264
f 264 211 265
f 211 213 265
f 214 266 215
f 266 267 215
f 215 267 256
f 267 268 256
f 261 259 263
f 259 257 263
f 263 257 211
f 257 256 211
f 211 256 212
f 256 268 212
f 212 268 269
f 213 270 271
f 213 271 265
f 271 272 265
f 265 272 273
f 274 275 276
f 274 276 277
f 278 279 280
f 279 277 280
f 280 277 281
f 277 276 281
f 282 283 19
f 284 285 283
f 285 13 283
f 283 13 19
f 286 287 285
f 287 288 285
f 285 288 13
f 288 289 13
f 13 289 14
f 289 9 14
f 282 274 283
f 274 277 283
f 283 277 284
f 277 279 284
f 284 279 290
f 279 278 290
f 290 278 260
f 22 291 20
f 291 292 20
f 20 292 15
f 243 239 245
f 239 236 245
f 245 236 293
f 236 233 293
f 293 233 294
f 233 228 294
f 294 228 295
f 228 227 295
f 295 227 296
f 227 297 296
f 296 297 298
f 297 299 298
f 298 299 222
f 299 300 222
f 222 300 223
f 208 207 301
f 207 206 301
f 301 206 302
f 206 303 302
f 302 303 304
f 303 305 304
f 304 305 306
f 305 307 306
f 306 307 308
f 307 309 308
f 308 309 310
f 309 311 310
f 310 311 312
f 311 313 312
f 312 313 314
f 313 315 314
f 314 315 316
f 315 317 316
f 316 317 318
f 317 319 318
f 318 319 320
f 319 321 320
f 320 321 322
f 321 323 322
f 322 323 324
f 323 325 324
f 324 325 326
f 325 292 326
f 326 292 209
f 292 291 209
f 209 291 26
f 291 22 26
f 185 208 219
f 208 301 219
f 219 301 217
f 301 302 217
f 217 302 224
f 302 304 224
f 224 304 222
f 304 306 222
f 222 306 298
f 306 308 298
f 298 308 296
f 308 310 296
f 296 310 295
f 310 312 295
f 295 312 294
f 312 314 294
f 294 314 293
f 314 316 293
f 293 316 245
f 316 318 245
f 245 318 244
f 318 320 244
f 244 320 247
f 320 322 247
f 247 322 250
f 322 324 250
f 250 324 252
f 324 326 252
f 252 326 210
f 326 209 210
f 210 209 24
f 209 25 24
f 327 328 213
f 328 329 213
f 213 329 270
f 199 330 198
f 330 197 198
f 330 327 197
f 327 213 197
f 197 213 196
f 213 212 196
f 196 212 200
f 212 269 200
f 200 269 331
f 269 268 331
f 331 268 202
f 268 267 202
f 202 267 203
f 267 266 203
f 203 266 204
f 266 332 204
f 204 332 205
f 273 333 265
f 333 334 265
f 265 334 335
f 260 262 290
f 262 264 290
f 290 264 284
f 264 265 284
f 284 265 285
f 265 335 285
f 285 335 286
f 206 205 303
f 205 332 303
f 303 332 305
f 332 266 305
f 305 266 307
f 266 214 307
f 307 214 309
f 214 216 309
f 309 216 311
f 216 258 311
f 311 258 313
f 258 259 313
f 313 259 315
f 259 261 315
f 315 261 317
f 261 260 317
f 317 260 319
f 260 278 319
f 319 278 321
f 278 280 321
f 321 280 323
f 280 281 323
f 323 281 325
f 281 276 325
f 325 276 292
f 276 275 292
f 292 275 15
f 275 274 15
f 15 274 336
f 274 282 336
f 336 282 18
f 282 19 18
f 337 338 339
f 340 341 342
f 341 337 342
f 342 337 343
f 337 339 343
f 343 339 344
f 345 346 347
f 346 348 347
f 345 347 349
f 347 350 349
f 349 350 351
f 352 353 350
f 353 354 350
f 350 354 351
f 355 356 352
f 356 357 352
f 352 357 353
f 358 359 355
f 359 360 355
f 355 360 356
f 341 361 337
f 361 362 337
f 337 362 358
f 362 363 358
f 358 363 359
f 364 350 365
f 350 347 365
f 365 347 366
f 347 348 366
f 366 348 367
f 364 368 350
f 368 369 350
f 350 369 352
f 369 370 352
f 352 370 355
f 370 371 355
f 371 372 355
f 372 373 355
f 355 373 358
f 373 374 358
f 358 374 375
f 375 376 358
f 376 377 358
f 358 377 337
f 377 378 337
f 337 378 338
f 379 380 381
f 382 383 374
f 384 385 386
f 387 388 389
f 390 391 392
f 374 383 375
f 393 394 395
f 394 396 395
f 395 396 397
f 398 399 400
f 399 401 400
f 400 401 393
f 401 402 393
f 393 402 394
f 403 404 405
f 404 406 405
f 405 406 407
f 403 405 408
f 405 409 408
f 408 409 410
f 411 412 409
f 412 413 409
f 409 413 410
f 414 415 411
f 415 416 411
f 411 416 412
f 417 418 419
f 418 420 419
f 419 420 421
f 420 422 421
f 421 422 423
f 423 422 424
f 422 425 424
f 424 425 426
f 425 427 426
f 426 427 428
f 428 427 429
f 427 389 429
f 429 389 430
f 389 388 430
f 430 388 431
f 432 433 434
f 433 382 434
f 338 395 339
f 395 397 339
f 339 397 344
f 435 436 437
f 438 439 440
f 439 441 440
f 440 441 390
f 441 437 390
f 390 437 391
f 437 436 391
f 391 436 442
f 443 444 445
f 446 443 392
f 443 447 392
f 392 447 390
f 447 448 390
f 390 448 440
f 448 449 440
f 440 449 438
f 449 450 438
f 451 452 453
f 451 453 454
f 455 456 457
f 456 454 457
f 457 454 458
f 454 453 458
f 459 460 461
f 460 462 461
f 463 381 462
f 381 464 462
f 462 464 461
f 465 466 381
f 466 467 381
f 381 467 464
f 467 468 464
f 464 468 469
f 468 470 469
f 459 471 460
f 471 451 460
f 460 451 462
f 451 454 462
f 462 454 463
f 454 456 463
f 463 456 472
f 456 455 472
f 472 455 450
f 473 474 475
f 474 476 475
f 475 476 477
f 417 414 418
f 414 411 418
f 418 411 478
f 411 409 478
f 478 409 479
f 409 405 479
f 479 405 480
f 405 407 480
f 480 407 481
f 407 482 481
f 481 482 483
f 482 484 483
f 483 484 398
f 484 485 398
f 398 485 399
f 378 377 486
f 377 376 486
f 486 376 487
f 376 488 487
f 487 488 489
f 488 490 489
f 489 490 491
f 490 492 491
f 491 492 493
f 492 494 493
f 493 494 495
f 494 496 495
f 495 496 497
f 496 498 497
f 497 498 499
f 498 500 499
f 499 500 501
f 500 502 501
f 501 502 503
f 502 504 503
f 503 504 505
f 504 506 505
f 505 506 507
f 506 508 507
f 507 508 509
f 508 510 509
f 509 510 511
f 510 476 511
f 511 476 386
f 476 474 386
f 386 474 384
f 474 473 384
f 338 378 395
f 378 486 395
f 395 486 393
f 486 487 393
f 393 487 400
f 487 489 400
f 400 489 398
f 489 491 398
f 398 491 483
f 491 493 483
f 483 493 481
f 493 495 481
f 481 495 480
f 495 497 480
f 480 497 479
f 497 499 479
f 479 499 478
f 499 501 478
f 478 501 418
f 501 503 418
f 418 503 420
f 503 505 420
f 420 505 422
f 505 507 422
f 422 507 425
f 507 509 425
f 425 509 427
f 509 511 427
f 427 511 389
f 511 386 389
f 389 386 387
f 386 385 387
f 512 513 392
f 513 514 392
f 392 514 446
f 367 515 366
f 515 365 366
f 515 512 365
f 512 392 365
f 365 392 364
f 392 391 364
f 364 391 368
f 391 442 368
f 368 442 516
f 442 436 516
f 516 436 370
f 436 435 370
f 373 372 435
f 372 517 435
f 435 517 518
f 439 519 441
f 519 432 441
f 441 432 437
f 432 434 437
f 437 434 435
f 434 382 435
f 435 382 373
f 382 374 373
f 444 520 447
f 520 521 447
f 447 521 522
f 450 449 472
f 449 448 472
f 472 448 463
f 448 447 463
f 463 447 381
f 447 522 381
f 381 522 379
f 376 375 488
f 375 383 488
f 488 383 490
f 383 382 490
f 490 382 492
f 382 433 492
f 492 433 494
f 433 432 494
f 494 432 496
f 432 519 496
f 496 519 498
f 519 439 498
f 498 439 500
f 439 438 500
f 500 438 502
f 438 450 502
f 502 450 504
f 450 455 504
f 504 455 506
f 455 523 506
f 506 523 508
f 523 458 508
f 508 458 510
f 458 453 510
f 510 453 476
f 453 452 476
f 476 452 477
f 452 451 477
f 477 451 524
f 451 471 524
f 525 526 527
f 431 388 528
f 388 525 528
f 528 525 529
f 525 527 529
f 529 527 530
f 469 470 531
f 470 532 531
f 469 531 464
f 531 533 464
f 464 533 461
f 534 471 533
f 471 459 533
f 533 459 461
f 535 477 534
f 477 536 534
f 534 536 471
f 537 473 535
f 473 475 535
f 535 475 477
f 388 387 525
f 387 385 525
f 525 385 537
f 385 384 537
f 537 384 473
f 532 538 539
f 532 539 531
f 539 540 531
f 531 540 533
f 540 541 533
f 541 542 533
f 533 542 534
f 542 543 534
f 534 543 535
f 543 544 535
f 535 544 545
f 545 546 535
f 546 547 535
f 535 547 537
f 547 548 537
f 537 548 525
f 548 549 525
f 525 549 526
f 550 551 552
f 360 359 553
f 554 362 555
f 361 341 556
f 557 558 559
f 351 354 560
f 354 353 560
f 561 562 563
f 564 565 566
f 565 567 566
f 568 569 570
f 571 572 573
f 574 575 576
f 577 578 579
f 578 580 579
f 568 581 569
f 581 582 569
f 569 582 577
f 582 583 577
f 577 583 578
f 584 585 570
f 585 586 570
f 570 586 568
f 587 588 589
f 588 590 589
f 589 590 584
f 590 591 584
f 584 591 585
f 587 589 592
f 589 593 592
f 592 593 594
f 594 593 595
f 593 596 595
f 595 596 597
f 597 596 598
f 596 599 598
f 598 599 600
f 600 599 601
f 599 602 601
f 601 602 603
f 603 602 604
f 602 605 604
f 604 605 606
f 605 607 606
f 606 607 608
f 608 607 609
f 607 556 609
f 609 556 610
f 556 341 610
f 610 341 340
f 611 547 546
f 547 611 548
f 611 612 548
f 548 612 549
f 549 612 526
f 612 571 526
f 526 571 527
f 571 573 527
f 527 573 530
f 613 614 615
f 562 616 563
f 616 617 563
f 563 617 618
f 619 620 615
f 620 561 615
f 615 561 613
f 561 563 613
f 613 563 621
f 563 618 621
f 621 618 622
f 623 562 624
f 562 561 624
f 624 561 625
f 561 620 625
f 625 620 626
f 620 619 626
f 627 628 616
f 616 628 617
f 628 629 617
f 617 629 630
f 631 632 564
f 632 631 633
f 633 631 634
f 631 558 634
f 634 558 635
f 558 557 635
f 635 557 636
f 349 351 559
f 351 560 559
f 559 560 557
f 560 353 557
f 557 353 636
f 353 357 636
f 636 357 637
f 357 356 637
f 564 566 631
f 566 638 631
f 631 638 558
f 638 639 558
f 558 639 559
f 639 552 559
f 559 552 349
f 551 640 552
f 640 641 552
f 552 641 349
f 641 642 349
f 349 642 345
f 642 346 345
f 643 644 645
f 644 646 645
f 645 646 647
f 646 648 647
f 647 648 649
f 648 650 649
f 649 650 651
f 650 652 651
f 651 652 653
f 652 654 653
f 653 654 655
f 654 656 655
f 655 656 657
f 656 658 657
f 657 658 659
f 658 660 659
f 659 660 661
f 660 662 661
f 661 662 663
f 662 664 663
f 663 664 665
f 664 666 665
f 665 666 555
f 666 553 555
f 555 553 363
f 553 359 363
f 579 643 577
f 643 645 577
f 577 645 569
f 645 647 569
f 569 647 570
f 647 649 570
f 570 649 584
f 649 651 584
f 584 651 589
f 651 653 589
f 589 653 593
f 653 655 593
f 593 655 596
f 655 657 596
f 596 657 599
f 657 659 599
f 599 659 602
f 659 661 602
f 602 661 605
f 661 663 605
f 605 663 607
f 663 665 607
f 607 665 556
f 665 555 556
f 556 555 361
f 555 362 361
f 538 667 539
f 667 540 539
f 668 669 616
f 669 670 616
f 616 670 627
f 667 668 540
f 668 616 540
f 540 616 541
f 616 562 541
f 541 562 542
f 562 623 542
f 542 623 543
f 623 624 543
f 543 624 544
f 624 625 544
f 544 625 671
f 625 626 671
f 671 626 546
f 626 672 546
f 546 672 611
f 672 673 611
f 611 673 612
f 673 574 612
f 612 574 571
f 574 576 571
f 571 576 572
f 630 674 617
f 674 675 617
f 617 675 676
f 614 613 567
f 613 621 567
f 567 621 566
f 621 622 566
f 566 622 638
f 622 618 638
f 638 618 639
f 618 617 639
f 639 617 552
f 617 676 552
f 552 676 550
f 356 360 637
f 360 553 637
f 637 553 636
f 553 666 636
f 636 666 635
f 666 664 635
f 635 664 634
f 664 662 634
f 634 662 633
f 662 660 633
f 633 660 632
f 660 658 632
f 632 658 564
f 658 656 564
f 564 656 565
f 656 654 565
f 565 654 567
f 654 652 567
f 567 652 614
f 652 650 614
f 614 650 615
f 650 648 615
f 615 648 619
f 648 646 619
f 619 646 626
f 646 644 626
f 626 644 672
f 644 643 672
f 672 643 673
f 643 579 673
f 673 579 574
f 579 580 574
f 574 580 575
f 677 678 679
f 680 681 682
f 683 684 682
f 684 685 682
f 682 685 680
f 686 687 683
f 687 688 683
f 683 688 684
f 689 679 690
f 679 691 690
f 690 691 692
f 692 691 693
f 691 694 693
f 693 694 695
f 695 694 696
f 694 697 696
f 696 697 698
f 698 697 699
f 697 700 699
f 699 700 701
f 681 702 703
f 681 703 682
f 703 704 682
f 682 704 683
f 704 705 683
f 683 705 706
f 706 677 683
f 677 679 683
f 683 679 686
f 679 689 686
f 678 707 679
f 707 708 679
f 679 708 691
f 708 709 691
f 691 709 694
f 709 710 694
f 694 710 711
f 712 697 713
f 697 694 713
f 713 694 714
f 694 711 714
f 715 700 716
f 700 697 716
f 716 697 717
f 697 712 717
f 718 719 710
f 720 721 722
f 723 724 725
f 710 719 711
f 726 727 728
f 727 729 728
f 728 729 730
f 731 732 733
f 732 734 733
f 733 734 726
f 734 735 726
f 726 735 727
f 736 737 738
f 737 739 738
f 740 741 742
f 741 743 742
f 742 743 737
f 743 744 737
f 737 744 739
f 745 746 742
f 746 747 742
f 742 747 748
f 749 750 745
f 750 751 745
f 745 751 746
f 752 753 754
f 753 755 754
f 752 754 756
f 754 757 756
f 756 757 758
f 758 757 759
f 757 760 759
f 759 760 761
f 760 762 761
f 761 762 763
f 764 765 766
f 763 762 767
f 762 764 767
f 767 764 768
f 764 766 768
f 768 766 769
f 770 771 772
f 771 718 772
f 717 728 716
f 728 730 716
f 716 730 715
f 773 774 775
f 774 776 775
f 775 776 777
f 776 723 777
f 777 723 778
f 723 725 778
f 779 780 781
f 774 782 776
f 782 783 776
f 776 783 723
f 783 781 723
f 723 781 724
f 781 780 724
f 724 780 784
f 785 786 725
f 725 786 778
f 786 787 778
f 778 787 788
f 789 790 791
f 789 791 792
f 793 794 795
f 794 792 795
f 795 792 796
f 792 791 796
f 797 798 799
f 798 800 799
f 801 802 800
f 802 803 800
f 800 803 799
f 804 805 802
f 805 806 802
f 802 806 803
f 806 807 803
f 803 807 808
f 807 809 808
f 797 810 798
f 810 789 798
f 798 789 800
f 789 792 800
f 800 792 801
f 792 794 801
f 801 794 811
f 794 793 811
f 811 793 773
f 812 813 814
f 813 815 814
f 814 815 816
f 753 749 755
f 749 745 755
f 755 745 817
f 745 742 817
f 817 742 818
f 742 737 818
f 818 737 819
f 737 736 819
f 819 736 820
f 736 821 820
f 820 821 822
f 821 823 822
f 822 823 731
f 823 824 731
f 731 824 732
f 712 713 825
f 713 714 825
f 825 714 826
f 714 827 826
f 826 827 828
f 827 829 828
f 828 829 830
f 829 831 830
f 830 831 832
f 831 833 832
f 832 833 834
f 833 835 834
f 834 835 836
f 835 837 836
f 836 837 838
f 837 839 838
f 838 839 840
f 839 841 840
f 840 841 842
f 841 843 842
f 842 843 844
f 843 845 844
f 844 845 846
f 845 847 846
f 846 847 848
f 847 849 848
f 848 849 850
f 849 815 850
f 850 815 722
f 815 813 722
f 722 813 720
f 813 812 720
f 717 712 728
f 712 825 728
f 728 825 726
f 825 826 726
f 726 826 733
f 826 828 733
f 733 828 731
f 828 830 731
f 731 830 822
f 830 832 822
f 822 832 820
f 832 834 820
f 820 834 819
f 834 836 819
f 819 836 818
f 836 838 818
f 818 838 817
f 838 840 817
f 817 840 755
f 840 842 755
f 755 842 754
f 842 844 754
f 754 844 757
f 844 846 757
f 757 846 760
f 846 848 760
f 760 848 762
f 848 850 762
f 762 850 764
f 850 722 764
f 764 722 765
f 722 721 765
f 851 852 725
f 852 853 725
f 725 853 785
f 702 854 855
f 854 856 855
f 854 851 704
f 851 725 704
f 704 725 705
f 725 724 705
f 705 724 706
f 724 784 706
f 706 784 677
f 784 780 677
f 709 708 779
f 708 707 779
f 779 707 780
f 707 678 780
f 780 678 677
f 782 857 783
f 857 770 783
f 783 770 781
f 770 772 781
f 781 772 779
f 772 718 779
f 779 718 709
f 718 710 709
f 788 858 778
f 858 859 778
f 778 859 860
f 773 775 811
f 775 777 811
f 811 777 801
f 777 778 801
f 801 778 802
f 778 860 802
f 802 860 804
f 861 711 827
f 711 719 827
f 827 719 829
f 719 718 829
f 829 718 831
f 718 771 831
f 831 771 833
f 771 770 833
f 833 770 835
f 770 857 835
f 835 857 837
f 857 782 837
f 837 782 839
f 782 774 839
f 839 774 841
f 774 773 841
f 841 773 843
f 773 793 843
f 843 793 845
f 793 795 845
f 845 795 847
f 795 796 847
f 847 796 849
f 796 791 849
f 849 791 815
f 791 790 815
f 815 790 816
f 790 789 816
f 816 789 862
f 789 810 862
f 863 864 769
f 809 865 866
f 867 810 797
f 797 799 867
f 799 803 867
f 867 803 866
f 803 808 866
f 866 808 809
f 862 868 816
f 868 869 816
f 816 869 814
f 869 812 814
f 720 870 871
f 769 766 863
f 766 765 863
f 863 765 871
f 765 721 871
f 871 721 720
f 872 867 873
f 867 866 873
f 873 866 874
f 866 865 874
f 874 865 875
f 872 876 867
f 876 868 867
f 867 868 810
f 868 862 810
f 876 877 868
f 877 878 868
f 868 878 869
f 878 879 869
f 869 879 880
f 880 881 869
f 881 870 869
f 869 870 812
f 870 720 812
f 882 864 883
f 864 863 883
f 883 863 884
f 863 871 884
f 884 871 885
f 871 870 885
f 885 870 886
f 870 881 886
f 887 888 889
f 692 693 890
f 695 696 891
f 698 699 892
f 893 894 895
f 688 687 896
f 687 686 896
f 897 898 899
f 900 901 902
f 901 903 902
f 904 905 906
f 907 908 883
f 908 909 883
f 883 909 882
f 910 911 912
f 913 914 915
f 914 916 915
f 904 917 905
f 917 918 905
f 905 918 913
f 918 919 913
f 913 919 914
f 920 921 906
f 921 922 906
f 906 922 904
f 923 924 925
f 924 926 925
f 925 926 920
f 926 927 920
f 920 927 921
f 923 925 928
f 925 929 928
f 928 929 930
f 930 929 931
f 929 932 931
f 931 932 933
f 933 932 934
f 932 935 934
f 934 935 936
f 936 935 937
f 935 938 937
f 937 938 939
f 939 938 940
f 938 941 940
f 940 941 942
f 941 943 942
f 942 943 944
f 944 943 945
f 943 892 945
f 945 892 946
f 892 699 946
f 946 699 701
f 883 884 907
f 884 885 907
f 907 885 947
f 885 886 947
f 947 886 948
f 886 881 948
f 948 881 880
f 949 950 951
f 898 952 899
f 952 953 899
f 899 953 954
f 955 956 951
f 956 897 951
f 951 897 949
f 897 899 949
f 949 899 957
f 899 954 957
f 957 954 958
f 959 898 960
f 898 897 960
f 960 897 961
f 897 956 961
f 961 956 962
f 956 955 962
f 963 964 952
f 952 964 953
f 964 965 953
f 953 965 966
f 967 968 900
f 968 967 969
f 969 967 970
f 967 894 970
f 970 894 971
f 894 893 971
f 971 893 972
f 684 688 895
f 688 896 895
f 895 896 893
f 896 686 893
f 893 686 972
f 686 689 972
f 972 689 973
f 689 690 973
f 900 902 967
f 902 974 967
f 967 974 894
f 974 975 894
f 894 975 895
f 975 889 895
f 895 889 684
f 888 976 889
f 976 977 889
f 889 977 684
f 977 978 684
f 684 978 685
f 978 680 685
f 979 980 981
f 980 982 981
f 981 982 983
f 982 984 983
f 983 984 985
f 984 986 985
f 985 986 987
f 986 988 987
f 987 988 989
f 988 990 989
f 989 990 991
f 990 992 991
f 991 992 993
f 992 994 993
f 993 994 995
f 994 996 995
f 995 996 997
f 996 998 997
f 997 998 999
f 998 1000 999
f 999 1000 1001
f 1000 1002 1001
f 1001 1002 891
f 1002 890 891
f 891 890 695
f 890 693 695
f 915 979 913
f 979 981 913
f 913 981 905
f 981 983 905
f 905 983 906
f 983 985 906
f 906 985 920
f 985 987 920
f 920 987 925
f 987 989 925
f 925 989 929
f 989 991 929
f 929 991 932
f 991 993 932
f 932 993 935
f 993 1003 935
f 935 1003 938
f 1003 997 938
f 938 997 941
f 997 999 941
f 941 999 943
f 999 1004 943
f 943 1004 892
f 1004 891 892
f 892 891 698
f 891 696 698
f 875 1005 874
f 1005 873 874
f 1006 1007 952
f 1007 1008 952
f 952 1008 963
f 1005 1006 873
f 1006 952 873
f 873 952 872
f 952 898 872
f 872 898 876
f 898 959 876
f 876 959 877
f 959 960 877
f 877 960 878
f 960 961 878
f 878 961 879
f 961 962 879
f 879 962 880
f 962 1009 880
f 880 1009 948
f 1009 1010 948
f 948 1010 947
f 1010 910 947
f 947 910 907
f 910 912 907
f 907 912 908
f 966 1011 953
f 1011 1012 953
f 953 1012 1013
f 950 949 903
f 949 957 903
f 903 957 902
f 957 958 902
f 902 958 974
f 958 954 974
f 974 954 975
f 954 953 975
f 975 953 889
f 953 1013 889
f 889 1013 887
f 690 692 973
f 692 890 973
f 973 890 972
f 890 1002 972
f 972 1002 971
f 1002 1000 971
f 971 1000 970
f 1000 998 970
f 970 998 969
f 998 996 969
f 969 996 968
f 996 994 968
f 968 994 900
f 994 992 900
f 900 992 901
f 992 990 901
f 901 990 903
f 990 988 903
f 903 988 950
f 988 986 950
f 950 986 951
f 986 984 951
f 951 984 955
f 984 982 955
f 955 982 962
f 982 980 962
f 962 980 1009
f 980 979 1009
f 1009 979 1010
f 979 915 1010
f 1010 915 910
f 915 916 910
f 910 916 911
f 1014 1015 1016
f 1017 1018 1016
f 1018 1019 1016
f 1016 1019 1014
f 1020 1021 1022
f 1021 1023 1022
f 1022 1023 1017
f 1023 1024 1017
f 1017 1024 1018
f 1025 1026 1027
f 1026 1028 1027
f 1027 1028 1029
f 1029 1030 1031
f 1030 1032 1031
f 1031 1032 1033
f 1033 1032 1034
f 1032 1035 1034
f 1034 1035 1036
f 1037 1017 1038
f 1017 1016 1038
f 1038 1016 1039
f 1016 1015 1039
f 1039 1015 1040
f 1037 1041 1017
f 1041 1042 1017
f 1017 1042 1022
f 1042 1043 1022
f 1022 1043 1044
f 1045 1046 1026
f 1044 1045 1022
f 1045 1026 1022
f 1022 1026 1020
f 1026 1025 1020
f 1046 1047 1026
f 1047 1048 1026
f 1026 1048 1028
f 1048 1049 1028
f 1028 1049 1032
f 1049 1050 1032
f 1051 1035 1052
f 1035 1032 1052
f 1052 1032 1053
f 1032 1050 1053
f 1054 1055 1056
f 1057 1058 1059
f 1060 1061 1062
f 1063 1064 1065
f 1064 1066 1065
f 1067 1068 1069
f 1068 1070 1069
f 1071 1072 1070
f 1072 1073 1070
f 1070 1073 1069
f 1074 1075 1076
f 1076 1077 1074
f 1077 1078 1074
f 1074 1078 1071
f 1078 1079 1071
f 1071 1079 1072
f 1075 1074 1080
f 1074 1081 1080
f 1080 1081 1082
f 1082 1081 1083
f 1081 1084 1083
f 1083 1084 1085
f 1085 1084 1086
f 1084 1087 1086
f 1086 1087 1088
f 1087 1089 1088
f 1088 1089 1090
f 1090 1089 1091
f 1089 1092 1091
f 1091 1092 1093
f 1092 1094 1093
f 1093 1094 1095
f 1095 1094 1096
f 1094 1097 1096
f 1096 1097 1098
f 1099 1100 1101
f 1067 1102 1068
f 1102 1103 1068
f 1068 1103 1104
f 1103 1105 1104
f 1104 1105 1106
f 1105 1107 1106
f 1106 1107 1108
f 1109 1048 1047
f 1110 1111 1112
f 1111 1113 1112
f 1112 1113 1114
f 1048 1109 1049
f 1109 1115 1049
f 1049 1115 1050
f 1050 1115 1053
f 1115 1116 1053
f 1053 1116 1052
f 1116 1117 1052
f 1052 1117 1051
f 1118 1119 1120
f 1121 1122 1123
f 1110 1112 1120
f 1112 1114 1120
f 1120 1114 1118
f 1114 1123 1118
f 1118 1123 1124
f 1123 1122 1124
f 1124 1122 1125
f 1045 1044 1113
f 1044 1060 1113
f 1113 1060 1114
f 1060 1062 1114
f 1114 1062 1123
f 1062 1126 1123
f 1123 1126 1121
f 1127 1128 1126
f 1126 1128 1121
f 1128 1129 1121
f 1121 1129 1130
f 1131 1132 1133
f 1131 1133 1134
f 1134 1135 1136
f 1137 1138 1063
f 1138 1137 1139
f 1139 1137 1140
f 1137 1141 1140
f 1140 1141 1136
f 1142 1143 1144
f 1136 1141 1134
f 1141 1144 1134
f 1134 1144 1131
f 1144 1143 1131
f 1131 1143 1132
f 1063 1065 1137
f 1065 1145 1137
f 1137 1145 1141
f 1145 1146 1141
f 1141 1146 1144
f 1146 1056 1144
f 1144 1056 1142
f 1055 1147 1056
f 1147 1148 1056
f 1056 1148 1142
f 1148 1149 1142
f 1142 1149 1150
f 1149 1151 1150
f 1152 1153 1154
f 1098 1097 1155
f 1097 1154 1155
f 1155 1154 1156
f 1157 1158 1159
f 1158 1160 1159
f 1159 1160 1161
f 1162 1163 1164
f 1163 1165 1164
f 1164 1165 1166
f 1165 1167 1166
f 1166 1167 1168
f 1167 1169 1168
f 1168 1169 1170
f 1169 1171 1170
f 1170 1171 1172
f 1171 1173 1172
f 1172 1173 1174
f 1173 1175 1174
f 1174 1175 1176
f 1175 1177 1176
f 1176 1177 1178
f 1177 1179 1178
f 1178 1179 1180
f 1179 1181 1180
f 1180 1181 1182
f 1181 1183 1182
f 1182 1183 1184
f 1183 1160 1184
f 1184 1160 1059
f 1160 1158 1059
f 1059 1158 1185
f 1158 1157 1185
f 1106 1162 1104
f 1162 1164 1104
f 1104 1164 1068
f 1164 1166 1068
f 1068 1166 1070
f 1166 1168 1070
f 1070 1168 1071
f 1168 1170 1071
f 1071 1170 1074
f 1170 1172 1074
f 1074 1172 1081
f 1172 1174 1081
f 1081 1174 1084
f 1174 1176 1084
f 1084 1176 1087
f 1176 1178 1087
f 1087 1178 1089
f 1178 1180 1089
f 1089 1180 1092
f 1180 1182 1092
f 1092 1182 1094
f 1182 1184 1094
f 1094 1184 1097
f 1184 1059 1097
f 1097 1059 1153
f 1059 1058 1153
f 1186 1187 1126
f 1187 1188 1126
f 1126 1188 1189
f 1044 1043 1060
f 1043 1042 1060
f 1060 1042 1061
f 1042 1041 1061
f 1061 1041 1062
f 1041 1037 1062
f 1062 1037 1126
f 1037 1038 1126
f 1126 1038 1186
f 1038 1039 1186
f 1186 1039 1040
f 1045 1113 1046
f 1113 1111 1046
f 1046 1111 1047
f 1111 1190 1047
f 1047 1190 1109
f 1190 1191 1109
f 1109 1191 1115
f 1191 1099 1115
f 1115 1099 1116
f 1099 1101 1116
f 1116 1101 1117
f 1130 1192 1121
f 1192 1193 1121
f 1121 1193 1194
f 1119 1118 1195
f 1118 1124 1195
f 1195 1124 1065
f 1124 1125 1065
f 1065 1125 1145
f 1125 1122 1145
f 1145 1122 1146
f 1122 1121 1146
f 1146 1121 1056
f 1121 1194 1056
f 1056 1194 1054
f 1133 1196 1134
f 1196 1161 1134
f 1134 1161 1135
f 1161 1160 1135
f 1135 1160 1136
f 1160 1183 1136
f 1136 1183 1140
f 1183 1181 1140
f 1140 1181 1139
f 1181 1179 1139
f 1139 1179 1138
f 1179 1177 1138
f 1138 1177 1063
f 1177 1175 1063
f 1063 1175 1064
f 1175 1173 1064
f 1064 1173 1195
f 1173 1171 1195
f 1195 1171 1119
f 1171 1169 1119
f 1119 1169 1120
f 1169 1167 1120
f 1120 1167 1110
f 1167 1165 1110
f 1110 1165 1111
f 1165 1163 1111
f 1111 1163 1190
f 1163 1162 1190
f 1190 1162 1191
f 1162 1106 1191
f 1191 1106 1099
f 1106 1108 1099
f 1099 1108 1100
f 1197 1198 1156
f 1150 1151 1199
f 1151 1200 1199
f 1150 1199 1142
f 1199 1201 1142
f 1142 1201 1143
f 1161 1196 1202
f 1196 1133 1202
f 1202 1133 1201
f 1133 1132 1201
f 1201 1132 1143
f 1159 1203 1157
f 1203 1204 1157
f 1157 1204 1185
f 1058 1205 1153
f 1205 1197 1153
f 1153 1197 1154
f 1197 1156 1154
f 1200 1206 1207
f 1200 1207 1199
f 1207 1208 1199
f 1199 1208 1201
f 1209 1202 1210
f 1202 1201 1210
f 1210 1201 1211
f 1201 1208 1211
f 1209 1212 1202
f 1212 1203 1202
f 1202 1203 1161
f 1203 1159 1161
f 1212 1213 1203
f 1213 1214 1203
f 1203 1214 1204
f 1214 1215 1204
f 1204 1215 1216
f 1216 1217 1204
f 1217 1205 1204
f 1204 1205 1185
f 1205 1058 1185
f 1218 1198 1219
f 1198 1197 1219
f 1219 1197 1220
f 1197 1205 1220
f 1220 1205 1221
f 1205 1217 1221
f 1029 1031 1222
f 1033 1034 1223
f 1224 1225 1226
f 1227 1228 1229
f 1219 1220 1230
f 1231 1232 1230
f 1232 1233 1230
f 1230 1233 1219
f 1233 1234 1219
f 1219 1234 1218
f 1235 1236 1237
f 1236 1238 1237
f 1237 1238 1231
f 1238 1239 1231
f 1231 1239 1232
f 1240 1241 1242
f 1241 1243 1242
f 1242 1243 1244
f 1240 1242 1245
f 1242 1246 1245
f 1245 1246 1247
f 1248 1249 1246
f 1249 1250 1246
f 1246 1250 1247
f 1251 1252 1248
f 1252 1253 1248
f 1248 1253 1249
f 1254 1255 1256
f 1255 1257 1256
f 1256 1257 1258
f 1257 1259 1258
f 1258 1259 1260
f 1260 1259 1261
f 1259 1262 1261
f 1261 1262 1263
f 1262 1264 1263
f 1263 1264 1265
f 1265 1264 1266
f 1264 1223 1266
f 1266 1223 1267
f 1223 1034 1267
f 1267 1034 1036
f 1228 1268 1229
f 1268 1269 1229
f 1229 1269 1270
f 1269 1271 1270
f 1272 1273 1274
f 1273 1275 1274
f 1274 1275 1276
f 1275 1224 1276
f 1276 1224 1277
f 1224 1226 1277
f 1227 1278 1228
f 1278 1279 1228
f 1228 1279 1268
f 1279 1280 1268
f 1273 1271 1275
f 1271 1269 1275
f 1275 1269 1224
f 1269 1268 1224
f 1224 1268 1225
f 1268 1280 1225
f 1225 1280 1281
f 1282 1283 1226
f 1226 1283 1277
f 1283 1284 1277
f 1277 1284 1285
f 1286 1287 1288
f 1286 1288 1289
f 1290 1291 1292
f 1291 1289 1292
f 1292 1289 1293
f 1289 1288 1293
f 1294 1295 1296
f 1297 1298 1295
f 1298 1018 1295
f 1295 1018 1296
f 1299 1300 1298
f 1300 1301 1298
f 1298 1301 1018
f 1301 1302 1018
f 1018 1302 1019
f 1302 1014 1019
f 1294 1286 1295
f 1286 1289 1295
f 1295 1289 1297
f 1289 1291 1297
f 1297 1291 1303
f 1291 1290 1303
f 1303 1290 1272
f 1027 1304 1025
f 1304 1305 1025
f 1025 1305 1020
f 1254 1251 1255
f 1251 1248 1255
f 1255 1248 1306
f 1248 1246 1306
f 1306 1246 1307
f 1246 1242 1307
f 1307 1242 1308
f 1242 1244 1308
f 1308 1244 1309
f 1244 1310 1309
f 1309 1310 1311
f 1310 1312 1311
f 1311 1312 1235
f 1312 1313 1235
f 1235 1313 1236
f 1314 1217 1315
f 1217 1216 1315
f 1315 1216 1316
f 1216 1317 1316
f 1316 1317 1318
f 1317 1319 1318
f 1318 1319 1320
f 1319 1321 1320
f 1320 1321 1322
f 1321 1323 1322
f 1322 1323 1324
f 1323 1325 1324
f 1324 1325 1326
f 1325 1327 1326
f 1326 1327 1328
f 1327 1329 1328
f 1328 1329 1330
f 1329 1331 1330
f 1330 1331 1332
f 1331 1333 1332
f 1332 1333 1334
f 1333 1335 1334
f 1334 1335 1336
f 1335 1337 1336
f 1336 1337 1338
f 1337 1339 1338
f 1338 1339 1340
f 1339 1305 1340
f 1340 1305 1222
f 1305 1304 1222
f 1222 1304 1029
f 1304 1027 1029
f 1220 1221 1230
f 1221 1315 1230
f 1230 1315 1231
f 1315 1316 1231
f 1231 1316 1237
f 1316 1318 1237
f 1237 1318 1235
f 1318 1320 1235
f 1235 1320 1311
f 1320 1322 1311
f 1311 1322 1309
f 1322 1324 1309
f 1309 1324 1308
f 1324 1326 1308
f 1308 1326 1307
f 1326 1328 1307
f 1307 1328 1306
f 1328 1330 1306
f 1306 1330 1255
f 1330 1332 1255
f 1255 1332 1257
f 1332 1334 1257
f 1257 1334 1259
f 1334 1336 1259
f 1259 1336 1262
f 1336 1338 1262
f 1262 1338 1264
f 1338 1340 1264
f 1264 1340 1223
f 1340 1222 1223
f 1223 1222 1033
f 1222 1031 1033
f 1341 1342 1226
f 1342 1343 1226
f 1226 1343 1282
f 1206 1344 1345
f 1344 1208 1345
f 1344 1341 1208
f 1341 1226 1208
f 1208 1226 1211
f 1226 1225 1211
f 1211 1225 1210
f 1225 1281 1210
f 1210 1281 1209
f 1281 1280 1209
f 1209 1280 1212
f 1280 1279 1212
f 1212 1279 1213
f 1279 1278 1213
f 1213 1278 1214
f 1278 1346 1214
f 1214 1346 1215
f 1285 1347 1277
f 1347 1348 1277
f 1277 1348 1349
f 1272 1274 1303
f 1274 1276 1303
f 1303 1276 1297
f 1276 1277 1297
f 1297 1277 1298
f 1277 1349 1298
f 1298 1349 1299
f 1216 1215 1317
f 1215 1346 1317
f 1317 1346 1319
f 1346 1278 1319
f 1319 1278 1321
f 1278 1227 1321
f 1321 1227 1323
f 1227 1229 1323
f 1323 1229 1325
f 1229 1270 1325
f 1325 1270 1327
f 1270 1271 1327
f 1327 1271 1329
f 1271 1273 1329
f 1329 1273 1331
f 1273 1272 1331
f 1331 1272 1333
f 1272 1290 1333
f 1333 1290 1335
f 1290 1292 1335
f 1335 1292 1337
f 1292 1293 1337
f 1337 1293 1339
f 1293 1288 1339
f 1339 1288 1305
f 1288 1287 1305
f 1305 1287 1020
f 1287 1286 1020
f 1020 1286 1021
f 1286 1294 1021
f 1021 1294 1023
f 1294 1296 1023
f 1350 1351 1352
f 1353 1354 1355
f 1354 1356 1355
f 1357 1358 1359
f 1358 1360 1359
f 1359 1360 1361
f 1362 1363 1364
f 1364 1365 1362
f 1365 1353 1362
f 1362 1353 1360
f 1366 1367 1368
f 1367 1369 1368
f 1353 1355 1360
f 1355 1370 1360
f 1360 1370 1361
f 1370 1371 1361
f 1361 1371 1372
f 1371 1373 1372
f 1372 1373 1367
f 1363 1362 1374
f 1362 1375 1374
f 1374 1375 1376
f 1375 1358 1376
f 1376 1358 1377
f 1358 1357 1377
f 1377 1357 1378
f 1357 1366 1378
f 1378 1366 1379
f 1366 1380 1379
f 1379 1380 1381
f 1382 1383 1369
f 1383 1384 1369
f 1369 1384 1385
f 1384 1386 1385
f 1385 1386 1380
f 1386 1387 1380
f 1380 1387 1381
f 1367 1373 1369
f 1373 1388 1369
f 1369 1388 1382
f 1389 1390 1391
f 1392 1393 1394
f 1393 1391 1394
f 1394 1391 1395
f 1391 1390 1395
f 1390 1396 1395
f 1395 1396 1397
f 1398 1399 1400
f 1401 1402 1396
f 1402 1403 1396
f 1396 1403 1397
f 1403 1404 1397
f 1397 1404 1394
f 1404 1405 1394
f 1394 1405 1392
f 1399 1398 1406
f 1398 1407 1406
f 1406 1407 1408
f 1391 1383 1389
f 1383 1382 1389
f 1389 1382 1409
f 1382 1410 1409
f 1354 1408 1356
f 1408 1407 1356
f 1356 1407 1411
f 1352 1398 1350
f 1398 1400 1350
f 1350 1400 1396
f 1400 1412 1396
f 1396 1412 1401
f 1407 1352 1411
f 1352 1351 1411
f 1411 1351 1413
f 1351 1382 1413
f 1413 1382 1414
f 1382 1388 1414
f 1415 27 10
f 10 9 1416
f 335 1416 286
f 1416 287 286
f 9 289 1416
f 289 288 1416
f 1416 288 287
f 42 333 273
f 273 272 42
f 272 271 42
f 42 271 270
f 328 327 1417
f 327 330 1417
f 1417 330 199
f 199 190 1417
f 190 329 1417
f 1417 329 328
f 270 329 42
f 329 190 42
f 42 190 1418
f 190 149 1418
f 1418 149 147
f 147 146 1418
f 146 145 1418
f 1418 145 42
f 121 120 1415
f 120 178 1415
f 178 177 1415
f 177 175 1415
f 1415 175 27
f 335 334 1416
f 334 333 1416
f 1416 333 10
f 333 42 10
f 10 42 1415
f 42 41 1415
f 1415 41 183
f 183 182 1415
f 182 181 1415
f 1415 181 124
f 124 123 1415
f 123 122 1415
f 1415 122 121
f 446 514 1419
f 1420 1421 1422
f 1423 1419 467
f 521 520 1419
f 380 379 1419
f 379 522 1419
f 1419 522 521
f 520 444 1419
f 444 443 1419
f 1419 443 446
f 532 470 1419
f 470 468 1419
f 1419 468 467
f 1424 348 346
f 346 642 1424
f 642 641 1424
f 1424 641 640
f 515 367 1419
f 367 348 1419
f 1419 348 532
f 348 1424 532
f 532 1424 538
f 514 513 1419
f 513 512 1419
f 1419 512 515
f 627 670 1424
f 670 669 1424
f 669 668 1424
f 668 667 1424
f 1424 667 538
f 640 551 1424
f 551 550 1424
f 1424 550 676
f 676 675 1424
f 675 674 1424
f 1424 674 630
f 630 629 1424
f 629 628 1424
f 1424 628 627
f 1425 875 865
f 681 680 1425
f 680 978 1425
f 978 977 1425
f 977 976 1425
f 1425 976 888
f 806 805 1426
f 805 804 1426
f 1426 804 860
f 1425 865 681
f 865 809 681
f 681 809 1426
f 809 807 1426
f 1426 807 806
f 787 786 681
f 860 859 1426
f 859 858 1426
f 1426 858 681
f 858 788 681
f 681 788 787
f 851 854 1427
f 854 702 1427
f 1427 702 681
f 786 785 681
f 785 853 681
f 681 853 1427
f 853 852 1427
f 1427 852 851
f 1012 1011 1425
f 888 887 1425
f 887 1013 1425
f 1425 1013 1012
f 1011 966 1425
f 966 965 1425
f 1425 965 964
f 964 963 1425
f 963 1008 1425
f 1425 1008 1007
f 1007 1006 1425
f 1006 1005 1425
f 1425 1005 875
f 1284 1283 1192
f 1283 1282 1192
f 1192 1282 1343
f 1342 1341 1428
f 1341 1344 1428
f 1344 1206 1428
f 1428 1206 1200
f 1200 1151 1429
f 1151 1149 1429
f 1429 1149 1148
f 1194 1193 1200
f 1193 1192 1200
f 1200 1192 1428
f 1192 1343 1428
f 1428 1343 1342
f 1148 1430 1429
f 1430 1055 1429
f 1429 1055 1200
f 1055 1054 1200
f 1200 1054 1194
f 1347 1285 1015
f 1285 1188 1015
f 1129 1128 1285
f 1128 1127 1285
f 1285 1127 1188
f 1284 1192 1285
f 1192 1130 1285
f 1285 1130 1129
f 1187 1186 1188
f 1186 1040 1188
f 1188 1040 1015
f 1299 1349 1431
f 1349 1348 1431
f 1431 1348 1347
f 1302 1301 1431
f 1301 1300 1431
f 1431 1300 1299
f 1347 1015 1431
f 1015 1014 1431
f 1431 1014 1302

